<?xml version="1.0" encoding="UTF-8" standalone="no"?>
<svg
   xmlns:dc="http://purl.org/dc/elements/1.1/"
   xmlns:cc="http://creativecommons.org/ns#"
   xmlns:rdf="http://www.w3.org/1999/02/22-rdf-syntax-ns#"
   xmlns:svg="http://www.w3.org/2000/svg"
   xmlns="http://www.w3.org/2000/svg"
   xmlns:sodipodi="http://sodipodi.sourceforge.net/DTD/sodipodi-0.dtd"
   xmlns:inkscape="http://www.inkscape.org/namespaces/inkscape"
   width="10cm"
   height="3cm"
   viewBox="0 0 100 29.999999"
   version="1.1"
   id="svg8"
   inkscape:version="1.0 (4035a4fb49, 2020-05-01)"
   sodipodi:docname="1.svg">
  <defs
     id="defs2">
    <inkscape:path-effect
       simplify_just_coalesce="false"
       simplify_individual_paths="false"
       helper_size="0"
       smooth_angles="360"
       threshold="0.000408163"
       steps="1"
       lpeversion="1"
       is_visible="true"
       id="path-effect942"
       effect="simplify" />
    <inkscape:path-effect
       simplify_just_coalesce="false"
       simplify_individual_paths="false"
       helper_size="0"
       smooth_angles="360"
       threshold="0.000408163"
       steps="1"
       lpeversion="1"
       is_visible="true"
       id="path-effect938"
       effect="simplify" />
    <inkscape:path-effect
       simplify_just_coalesce="false"
       simplify_individual_paths="false"
       helper_size="0"
       smooth_angles="360"
       threshold="0.000408163"
       steps="1"
       lpeversion="1"
       is_visible="true"
       id="path-effect934"
       effect="simplify" />
    <inkscape:path-effect
       simplify_just_coalesce="false"
       simplify_individual_paths="false"
       helper_size="0"
       smooth_angles="360"
       threshold="0.000408163"
       steps="1"
       lpeversion="1"
       is_visible="true"
       id="path-effect930"
       effect="simplify" />
    <inkscape:path-effect
       simplify_just_coalesce="false"
       simplify_individual_paths="false"
       helper_size="0"
       smooth_angles="360"
       threshold="0.000408163"
       steps="1"
       lpeversion="1"
       is_visible="true"
       id="path-effect926"
       effect="simplify" />
    <inkscape:path-effect
       simplify_just_coalesce="false"
       simplify_individual_paths="false"
       helper_size="0"
       smooth_angles="360"
       threshold="0.000408163"
       steps="1"
       lpeversion="1"
       is_visible="true"
       id="path-effect922"
       effect="simplify" />
    <inkscape:path-effect
       simplify_just_coalesce="false"
       simplify_individual_paths="false"
       helper_size="0"
       smooth_angles="360"
       threshold="0.000408163"
       steps="1"
       lpeversion="1"
       is_visible="true"
       id="path-effect918"
       effect="simplify" />
    <inkscape:path-effect
       simplify_just_coalesce="false"
       simplify_individual_paths="false"
       helper_size="0"
       smooth_angles="360"
       threshold="0.000408163"
       steps="1"
       lpeversion="1"
       is_visible="true"
       id="path-effect914"
       effect="simplify" />
    <inkscape:path-effect
       simplify_just_coalesce="false"
       simplify_individual_paths="false"
       helper_size="0"
       smooth_angles="360"
       threshold="0.000408163"
       steps="1"
       lpeversion="1"
       is_visible="true"
       id="path-effect910"
       effect="simplify" />
    <inkscape:path-effect
       simplify_just_coalesce="false"
       simplify_individual_paths="false"
       helper_size="0"
       smooth_angles="360"
       threshold="0.000408163"
       steps="1"
       lpeversion="1"
       is_visible="true"
       id="path-effect906"
       effect="simplify" />
    <inkscape:path-effect
       simplify_just_coalesce="false"
       simplify_individual_paths="false"
       helper_size="0"
       smooth_angles="360"
       threshold="0.000408163"
       steps="1"
       lpeversion="1"
       is_visible="true"
       id="path-effect902"
       effect="simplify" />
    <inkscape:path-effect
       simplify_just_coalesce="false"
       simplify_individual_paths="false"
       helper_size="0"
       smooth_angles="360"
       threshold="0.000408163"
       steps="1"
       lpeversion="1"
       is_visible="true"
       id="path-effect898"
       effect="simplify" />
    <inkscape:path-effect
       simplify_just_coalesce="false"
       simplify_individual_paths="false"
       helper_size="0"
       smooth_angles="360"
       threshold="0.000408163"
       steps="1"
       lpeversion="1"
       is_visible="true"
       id="path-effect894"
       effect="simplify" />
    <inkscape:path-effect
       simplify_just_coalesce="false"
       simplify_individual_paths="false"
       helper_size="0"
       smooth_angles="360"
       threshold="0.000408163"
       steps="1"
       lpeversion="1"
       is_visible="true"
       id="path-effect890"
       effect="simplify" />
    <inkscape:path-effect
       simplify_just_coalesce="false"
       simplify_individual_paths="false"
       helper_size="0"
       smooth_angles="360"
       threshold="0.000408163"
       steps="1"
       lpeversion="1"
       is_visible="true"
       id="path-effect886"
       effect="simplify" />
    <inkscape:path-effect
       simplify_just_coalesce="false"
       simplify_individual_paths="false"
       helper_size="0"
       smooth_angles="360"
       threshold="0.000408163"
       steps="1"
       lpeversion="1"
       is_visible="true"
       id="path-effect882"
       effect="simplify" />
    <inkscape:path-effect
       simplify_just_coalesce="false"
       simplify_individual_paths="false"
       helper_size="0"
       smooth_angles="360"
       threshold="0.000408163"
       steps="1"
       lpeversion="1"
       is_visible="true"
       id="path-effect878"
       effect="simplify" />
    <inkscape:path-effect
       simplify_just_coalesce="false"
       simplify_individual_paths="false"
       helper_size="0"
       smooth_angles="360"
       threshold="0.000408163"
       steps="1"
       lpeversion="1"
       is_visible="true"
       id="path-effect874"
       effect="simplify" />
    <inkscape:path-effect
       simplify_just_coalesce="false"
       simplify_individual_paths="false"
       helper_size="0"
       smooth_angles="360"
       threshold="0.000408163"
       steps="1"
       lpeversion="1"
       is_visible="true"
       id="path-effect870"
       effect="simplify" />
    <inkscape:path-effect
       simplify_just_coalesce="false"
       simplify_individual_paths="false"
       helper_size="0"
       smooth_angles="360"
       threshold="0.000408163"
       steps="1"
       lpeversion="1"
       is_visible="true"
       id="path-effect866"
       effect="simplify" />
    <inkscape:path-effect
       simplify_just_coalesce="false"
       simplify_individual_paths="false"
       helper_size="0"
       smooth_angles="360"
       threshold="0.000408163"
       steps="1"
       lpeversion="1"
       is_visible="true"
       id="path-effect862"
       effect="simplify" />
    <inkscape:path-effect
       simplify_just_coalesce="false"
       simplify_individual_paths="false"
       helper_size="0"
       smooth_angles="360"
       threshold="0.000408163"
       steps="1"
       lpeversion="1"
       is_visible="true"
       id="path-effect858"
       effect="simplify" />
    <inkscape:path-effect
       simplify_just_coalesce="false"
       simplify_individual_paths="false"
       helper_size="0"
       smooth_angles="360"
       threshold="0.000408163"
       steps="1"
       lpeversion="1"
       is_visible="true"
       id="path-effect951"
       effect="simplify" />
    <inkscape:path-effect
       simplify_just_coalesce="false"
       simplify_individual_paths="false"
       helper_size="0"
       smooth_angles="360"
       threshold="0.000408163"
       steps="1"
       lpeversion="1"
       is_visible="true"
       id="path-effect947"
       effect="simplify" />
    <inkscape:path-effect
       simplify_just_coalesce="false"
       simplify_individual_paths="false"
       helper_size="0"
       smooth_angles="360"
       threshold="0.000408163"
       steps="1"
       lpeversion="1"
       is_visible="true"
       id="path-effect943"
       effect="simplify" />
    <inkscape:path-effect
       simplify_just_coalesce="false"
       simplify_individual_paths="false"
       helper_size="0"
       smooth_angles="360"
       threshold="0.000408163"
       steps="1"
       lpeversion="1"
       is_visible="true"
       id="path-effect939"
       effect="simplify" />
    <inkscape:path-effect
       simplify_just_coalesce="false"
       simplify_individual_paths="false"
       helper_size="0"
       smooth_angles="360"
       threshold="0.000408163"
       steps="1"
       lpeversion="1"
       is_visible="true"
       id="path-effect935"
       effect="simplify" />
    <inkscape:path-effect
       simplify_just_coalesce="false"
       simplify_individual_paths="false"
       helper_size="0"
       smooth_angles="360"
       threshold="0.000408163"
       steps="1"
       lpeversion="1"
       is_visible="true"
       id="path-effect931"
       effect="simplify" />
    <inkscape:path-effect
       simplify_just_coalesce="false"
       simplify_individual_paths="false"
       helper_size="0"
       smooth_angles="360"
       threshold="0.000408163"
       steps="1"
       lpeversion="1"
       is_visible="true"
       id="path-effect927"
       effect="simplify" />
    <inkscape:path-effect
       simplify_just_coalesce="false"
       simplify_individual_paths="false"
       helper_size="0"
       smooth_angles="360"
       threshold="0.000408163"
       steps="1"
       lpeversion="1"
       is_visible="true"
       id="path-effect923"
       effect="simplify" />
    <inkscape:path-effect
       simplify_just_coalesce="false"
       simplify_individual_paths="false"
       helper_size="0"
       smooth_angles="360"
       threshold="0.000408163"
       steps="1"
       lpeversion="1"
       is_visible="true"
       id="path-effect919"
       effect="simplify" />
    <inkscape:path-effect
       simplify_just_coalesce="false"
       simplify_individual_paths="false"
       helper_size="0"
       smooth_angles="360"
       threshold="0.000408163"
       steps="1"
       lpeversion="1"
       is_visible="true"
       id="path-effect915"
       effect="simplify" />
    <inkscape:path-effect
       simplify_just_coalesce="false"
       simplify_individual_paths="false"
       helper_size="0"
       smooth_angles="360"
       threshold="0.000408163"
       steps="1"
       lpeversion="1"
       is_visible="true"
       id="path-effect911"
       effect="simplify" />
  </defs>
  <sodipodi:namedview
     id="base"
     pagecolor="#ffffff"
     bordercolor="#666666"
     borderopacity="1.0"
     inkscape:pageopacity="0.0"
     inkscape:pageshadow="2"
     inkscape:zoom="3.6797313"
     inkscape:cx="192.94887"
     inkscape:cy="38.295274"
     inkscape:document-units="mm"
     inkscape:current-layer="layer1"
     inkscape:document-rotation="0"
     showgrid="false"
     units="cm"
     inkscape:window-width="1920"
     inkscape:window-height="1051"
     inkscape:window-x="0"
     inkscape:window-y="0"
     inkscape:window-maximized="1" />
  <metadata
     id="metadata5">
    <rdf:RDF>
      <cc:Work
         rdf:about="">
        <dc:format>image/svg+xml</dc:format>
        <dc:type
           rdf:resource="http://purl.org/dc/dcmitype/StillImage" />
        <dc:title />
      </cc:Work>
    </rdf:RDF>
  </metadata>
  <g
     inkscape:label="Layer 1"
     inkscape:groupmode="layer"
     id="layer1">
    <path
       style="fill:none;stroke:#2690a7;stroke-width:0.264583px;stroke-linecap:butt;stroke-linejoin:miter;stroke-opacity:0.474099"
       d="m 0,20.132291 102.10211,0"
       id="path10"
       sodipodi:nodetypes="cc" />
    <path
       id="path12"
       d="m 0,0.1322915 101.24145,0"
       style="fill:none;stroke:#2690a7;stroke-width:0.264583px;stroke-linecap:butt;stroke-linejoin:miter;stroke-opacity:0.474099"
       sodipodi:nodetypes="cc" />
    <path
       id="path14"
       d="m 0,10.132291 101.7922,0"
       style="fill:none;stroke:#2690a7;stroke-width:0.265;stroke-linecap:butt;stroke-linejoin:miter;stroke-miterlimit:4;stroke-dasharray:1.06, 1.06;stroke-dashoffset:0;stroke-opacity:0.474099"
       sodipodi:nodetypes="cc" />
    <path
       inkscape:original-d="M 17.937398,0.76365006 C 17.624147,1.9690234 17.554995,3.2390455 17.435554,4.4782636 c -0.148801,1.5438356 -0.0736,3.0649045 -0.05628,4.6151265 0.01524,1.3635029 -0.0081,2.7150559 -0.08442,4.0757579 -0.0307,0.54716 -0.03247,1.094806 -0.06097,1.641558 -0.04033,0.773631 -0.151128,1.539174 -0.112563,2.316942 0.01569,0.316376 0.04866,0.586983 0.01407,0.905206 -0.01953,0.179673 -0.04024,0.352134 -0.01876,0.534677 0.0022,0.01921 0.0025,0.07175 0.01407,0.05628 0.0455,-0.06067 0.02211,-0.150056 0.03283,-0.225131"
       inkscape:path-effect="#path-effect866"
       id="path864"
       d="M 17.937398,0.76365006 C 17.693924,1.7018164 17.595678,2.669214 17.512416,3.6323491 c -0.03116,0.3604449 -0.06807,0.7203836 -0.09784,1.0809389 -0.117329,1.4210128 -0.05506,2.8477095 -0.03662,4.2711495 0.0185,1.4274005 -0.0172,2.8550395 -0.08822,4.2808955 -0.03241,0.6507 -0.03305,1.302754 -0.08247,1.952703 -0.0505,0.664289 -0.122396,1.330437 -0.08116,1.997463 0.01716,0.277501 0.03915,0.55667 0.0074,0.834179 -0.02034,0.177996 -0.0052,0.357101 -0.01543,0.536926 -8.66e-4,0.01525 0.0036,0.0559 0.02032,0.0255 0.03597,-0.06531 0.01447,-0.14307 0.02508,-0.213429"
       style="fill:none;stroke:#000000;stroke-width:0.264583px;stroke-linecap:butt;stroke-linejoin:miter;stroke-opacity:1" />
    <path
       inkscape:original-d="m 15.812776,4.2390649 c 0.0472,2.5189387 -0.322199,5.0108326 -0.436182,7.5183401 -0.01925,0.423503 -0.07035,0.842511 -0.07035,1.266349 0,0.320609 0.06286,0.553438 0.05628,0.553438 -0.320624,0 -0.468052,-0.807596 -0.497152,-0.994317 -0.01809,-0.116062 -0.04166,-0.462937 -0.06097,-0.347073 -0.03558,0.213499 0.214867,1.24916 0.337688,1.32732 0.372788,0.237231 1.351248,-2.294962 0.980234,-1.181921"
       inkscape:path-effect="#path-effect870"
       id="path868"
       d="m 15.812776,4.2390649 c 0.02809,1.4921153 -0.09048,2.9816351 -0.215861,4.4671858 -0.08771,1.0391715 -0.168992,2.0789713 -0.223751,3.1205963 -0.02201,0.418614 -0.07502,0.836277 -0.06622,1.255957 0.0034,0.16255 0.0045,0.32936 0.05505,0.483757 0.007,0.02131 -0.02586,0.0092 -0.03626,0.007 -0.08198,-0.01693 -0.14366,-0.08158 -0.188501,-0.148331 -0.07803,-0.116144 -0.127781,-0.248573 -0.167738,-0.381804 -0.04759,-0.158698 -0.08584,-0.320641 -0.107583,-0.484867 -0.01397,-0.105517 -0.01299,-0.213587 -0.03846,-0.316996 -0.0016,-0.0065 -0.01068,-0.0421 -0.01539,-0.02225 -0.01319,0.05569 -0.0072,0.113838 -9.75e-4,0.169977 0.02014,0.182284 0.05722,0.362363 0.101615,0.540113 0.04072,0.163042 0.0803,0.327671 0.146205,0.482469 0.02083,0.04892 0.03755,0.102765 0.0753,0.141154 0.03273,0.03328 0.08602,0.03058 0.125603,0.01161 0.07473,-0.03581 0.132847,-0.09795 0.184675,-0.160875 0.128064,-0.155485 0.231762,-0.329136 0.33107,-0.503825 0.131879,-0.231983 0.238794,-0.477472 0.372488,-0.708303 0.01839,-0.03176 0.05295,-0.130985 0.05753,-0.09436 0.0051,0.04083 -0.01516,0.08467 -0.02754,0.124514 -0.01658,0.05334 -0.03407,0.106397 -0.05171,0.159397"
       style="fill:none;stroke:#ff0000;stroke-width:0.264583px;stroke-linecap:butt;stroke-linejoin:miter;stroke-opacity:1" />
    <path
       inkscape:original-d="m 51.382613,3.9764157 c 0.237136,-0.6887587 0.622835,-1.2849092 1.041205,-1.8713777 0.09533,-0.1336362 0.275116,-0.5568612 0.295476,-0.3939738 0.06789,0.5431434 -0.281567,1.7785088 -0.318929,2.3028739 -0.06651,0.9334926 -0.111847,1.8689778 -0.126632,2.8047199 -0.01423,0.9011811 0.08429,1.8006869 0.112561,2.701537 0.05872,1.871072 0.03982,3.742971 0.07504,5.614131 0.01625,0.863634 0.353779,1.695994 0.272028,2.565526 -0.02164,0.230304 -0.108156,0.443521 -0.09849,0.675384 0.0042,0.100407 0.05703,0.396421 0.02814,0.300167 -0.0078,-0.02585 -0.0094,-0.05316 -0.01408,-0.07973"
       inkscape:path-effect="#path-effect874"
       id="path872"
       d="m 51.382613,3.9764157 c 0.18813,-0.5487209 0.483605,-1.0527707 0.805373,-1.5329708 0.08284,-0.1236244 0.17575,-0.2405087 0.254637,-0.3666435 0.07521,-0.120249 0.153737,-0.2388973 0.213751,-0.367703 0.01284,-0.027554 0.05605,-0.052809 0.06185,-0.00524 0.02195,0.1800402 0.0053,0.3622331 -0.01714,0.5412815 -0.06415,0.5129295 -0.18408,1.0163908 -0.271025,1.5255381 -0.02424,0.1419549 -0.03293,0.2857628 -0.04266,0.4292588 -0.06195,0.913929 -0.111203,1.8293538 -0.114942,2.7454427 -0.0037,0.9109967 0.09182,1.8182198 0.118483,2.7283073 0.0538,1.8366078 0.01075,3.6749638 0.07171,5.5112108 0.02363,0.711884 0.259202,1.398055 0.281151,2.109826 0.0063,0.204554 -0.0016,0.410856 -0.04373,0.611896 -0.03724,0.177667 -0.07791,0.35825 -0.05857,0.541854 0.0086,0.08135 0.08049,0.307933 0.03,0.243579 -0.0153,-0.0195 -0.01623,-0.06194 -0.02173,-0.09139 0,0 -8.44e-4,-0.005 -8.44e-4,-0.005"
       style="fill:none;stroke:#000000;stroke-width:0.264583px;stroke-linecap:butt;stroke-linejoin:miter;stroke-opacity:1" />
    <path
       inkscape:original-d="M 51.134035,2.2504346 C 51.479303,1.5112464 51.872193,0.20616398 52.803717,-8.4703242e-4 52.904915,-0.02333603 53.026951,-0.11571033 53.132025,-0.10403183 c 0.06651,0.00739 0.219324,0.00841 0.234506,0.093804 0.09982,0.56145828 0.04273,1.20975913 0.0469,1.77757343 0.0044,0.5946416 0.0644,1.1866866 0.07504,1.782265 0.02013,1.1273197 -0.06598,2.2662417 -0.01408,3.3909912 0.03006,0.6512822 0.158295,1.2685805 0.154773,1.9276616 -0.0042,0.7910054 -0.12605,1.5710976 -0.121941,2.3638436 0.0059,1.140837 0.08911,2.288527 0.08911,3.428513 0,0.07868 -0.112085,-0.112128 -0.154773,-0.178226 -0.0079,-0.01229 -0.562819,-1.04116 -0.609711,-0.79733 -0.02069,0.107638 0.709991,1.100069 0.764484,1.106881 0.218599,0.02732 0.278604,-0.346075 0.375214,-0.54406 0.1432,-0.293463 0.261337,-0.600237 0.426799,-0.88175 0.301255,-0.512541 0.637826,-1.003677 0.970852,-1.496167 0.03654,-0.05404 0.109524,-0.200314 0.136017,-0.140703 0.02941,0.06618 -0.07817,0.121945 -0.117256,0.182917"
       inkscape:path-effect="#path-effect878"
       id="path876"
       d="m 51.134035,2.2504346 c 0.16316,-0.3546827 0.300743,-0.7209519 0.477295,-1.0695055 0.153746,-0.30353004 0.332168,-0.60123904 0.578965,-0.83895663 0.172776,-0.16642008 0.389709,-0.28235323 0.622969,-0.34512728 0.100267,-0.02698349 0.188034,-0.10905319 0.293842,-0.10179184 0.06853,0.004703 0.13772,0.01166315 0.204075,0.03288026 0.04998,0.01598128 0.05724,0.06979457 0.06426,0.11472459 0.06349,0.40678254 0.05453,0.82007984 0.04416,1.2302169 -0.0069,0.2738663 -0.0088,0.5479158 0.0012,0.8217633 0.01984,0.5424176 0.06502,1.0837554 0.06992,1.6267987 0.0099,1.101014 -0.07662,2.2027252 -0.01196,3.3029368 0.03619,0.6157621 0.15379,1.2256131 0.150373,1.8438895 -0.0045,0.8163734 -0.128025,1.6270846 -0.121401,2.4440696 0.0091,1.118802 0.52482,2.324602 0.08825,3.354886 -0.01326,0.03129 -0.04479,-0.01898 -0.05487,-0.03299 -0.05744,-0.07986 -0.106187,-0.165402 -0.154764,-0.25087 -0.113073,-0.198947 -0.221647,-0.40238 -0.362545,-0.583025 -0.04077,-0.05227 -0.08044,-0.108415 -0.136818,-0.145078 -0.04841,-0.03148 -0.06129,0.0386 -0.04476,0.07598 0.04829,0.109184 0.114232,0.209443 0.180472,0.308324 0.147469,0.220139 0.296732,0.440238 0.468664,0.641915 0.03132,0.03674 0.05158,0.09268 0.0979,0.107006 0.05364,0.01659 0.113596,-0.0099 0.151331,-0.04878 0.07147,-0.07355 0.108451,-0.172012 0.142945,-0.2665 0.03376,-0.09249 0.06886,-0.184419 0.111265,-0.273568 0.142503,-0.299589 0.268938,-0.607479 0.438981,-0.893458 0.294378,-0.495086 0.624438,-0.967542 0.942647,-1.447341 0.03093,-0.04664 0.04541,-0.114336 0.09722,-0.137634 0.04598,-0.02068 0.03745,0.05245 0.01767,0.07895 -0.03052,0.04089 -0.07487,0.06948 -0.103386,0.112035"
       style="fill:none;stroke:#fb0000;stroke-width:0.264583px;stroke-linecap:butt;stroke-linejoin:miter;stroke-opacity:1" />
    <path
       inkscape:original-d="m 79.007395,3.1274951 c 0.14927,-0.1815727 1.550342,-2.14991388 1.693132,-2.18561723 0.02008,-0.005022 -0.04618,0.17208663 -0.05159,0.18291483 -0.06411,0.128211 -0.05837,0.3039646 -0.06566,0.4361856 -0.04753,0.8615692 -0.119285,1.7219547 -0.150083,2.5842844 -0.06193,1.7342057 0.05378,2.5184251 0.173535,4.4275203 0.01056,0.1682171 0.0957,1.4229527 0.07973,1.72129 -0.185836,3.472667 -0.101137,1.100502 -0.220441,2.645257 -0.05744,0.743799 -0.03288,1.488143 -0.06096,2.232518 -0.02455,0.65043 -0.08898,1.265854 -0.04221,1.908899 0.03817,0.524795 -0.08255,0.951054 -0.154779,1.472714 -0.01225,0.08849 -0.09022,0.320946 -0.01876,0.267341 0.05246,-0.03936 0.137351,-0.256534 0.18291,-0.314242"
       inkscape:path-effect="#path-effect882"
       id="path880"
       d="m 79.007395,3.1274951 c 0.147367,-0.1903666 0.287223,-0.3864318 0.430078,-0.5801845 0.324474,-0.4400795 0.638966,-0.8884024 0.987613,-1.3097258 0.07737,-0.093492 0.165454,-0.1778612 0.241136,-0.27311773 0.01328,-0.0167098 0.04452,-0.0351642 0.03548,0.00235 -0.0173,0.0717519 -0.05058,0.13828256 -0.07369,0.20810556 -0.0487,0.1471632 -0.03996,0.3041131 -0.04868,0.4567288 -0.05912,1.034848 -0.144093,2.0685784 -0.161123,3.1055092 -0.01073,0.6532101 0.01382,1.3064999 0.05829,1.9581464 0.04601,0.6742981 0.09732,1.3482269 0.139636,2.0227832 0.02844,0.4533587 0.05407,0.906934 0.0708,1.3609379 0.0055,0.150055 -0.0046,0.299951 -0.0131,0.449711 -0.03072,0.541478 -0.03846,1.085042 -0.09827,1.62412 -0.0069,0.06229 0.03862,0.187368 -0.02427,0.18681 -0.04013,-3.56e-4 -0.03548,0.06679 -0.03942,0.100712 -0.02737,0.235333 -0.04631,0.471661 -0.05995,0.708156 -0.04408,0.76456 -0.01955,1.531017 -0.05916,2.295809 -0.02874,0.554926 -0.0646,1.111178 -0.02785,1.667039 0.02061,0.311823 -0.02062,0.623369 -0.07358,0.930056 -0.03076,0.178116 -0.05442,0.35744 -0.08722,0.535191 -0.01423,0.07707 -0.05726,0.153293 -0.04441,0.231083 0.0079,0.04799 0.05221,-0.01001 0.065,-0.03008 0.05539,-0.08688 0.08998,-0.185613 0.147529,-0.271074"
       style="fill:none;stroke:#000000;stroke-width:0.264583px;stroke-linecap:butt;stroke-linejoin:miter;stroke-opacity:1" />
    <path
       inkscape:original-d="m 78.256978,18.81611 c -0.137578,0.0094 -0.275153,0.01876 -0.412731,0.02814 -0.01095,0 -0.04289,0.0043 -0.03283,0 0.136784,-0.05863 0.302096,0.0114 0.445566,-0.02814 0.279615,-0.07706 0.52899,-0.248117 0.811393,-0.314241 0.907555,-0.212505 3.878672,-0.393414 4.605689,0.06097"
       inkscape:path-effect="#path-effect886"
       id="path884"
       d="m 78.256978,18.81611 c -0.145673,0.0099 -0.291351,0.01991 -0.437025,0.02975 0,0 -0.0085,-0.0016 -0.0085,-0.0016 0.07394,-0.03163 0.156349,-0.02583 0.234601,-0.02023 0.07458,0.0053 0.151011,0.0094 0.22405,-0.01159 0.262495,-0.07543 0.493951,-0.232805 0.758806,-0.300591 0.13349,-0.03416 0.269536,-0.05745 0.405716,-0.07777 0.394591,-0.05888 0.792264,-0.09547 1.190367,-0.11972 0.524164,-0.03194 1.05001,-0.04653 1.574813,-0.02413 0.308775,0.01318 0.618474,0.0338 0.922419,0.09157 0.15931,0.03028 0.319546,0.06656 0.467065,0.135461 0.02909,0.01359 0.05757,0.02858 0.08481,0.04559"
       style="fill:none;stroke:#000000;stroke-width:0.264583px;stroke-linecap:butt;stroke-linejoin:miter;stroke-opacity:1" />
    <path
       inkscape:original-d="m 78.908906,1.5938116 c 0.456682,-0.78404075 1.121955,-1.41761662 1.749412,-2.06367532 0.108598,-0.11181852 0.192355,-0.2567428 0.328303,-0.33300291 0.129302,-0.072533 0.533665,0.21319648 0.619099,0.33769212 0.485092,0.70686743 0.367448,2.23624481 0.393964,3.13772491 0.02156,0.7329686 -0.06728,1.4545392 -0.08911,2.1856171 -0.01712,0.5732499 0.02373,1.1200238 -0.03284,1.6978412 -0.05704,0.5826496 -0.256521,1.1467013 -0.295476,1.735364 -0.01815,0.2744364 0.251632,0.9115293 0.02814,1.1350201 C 81.597047,9.439757 81.127123,8.6015104 81.0945,8.5352606 81.024827,8.393768 80.820259,7.9940477 80.949106,8.085003 c 0.32095,0.226563 0.451292,0.7177548 0.778555,0.9380334 0.03284,0.022101 0.08464,0.041185 0.117255,0.018762 C 82.060591,8.8935248 82.14938,8.6158586 82.309239,8.408628 82.61284,8.0150637 82.980577,7.682429 83.298852,7.3017473"
       inkscape:path-effect="#path-effect890"
       id="path888"
       d="m 78.908906,1.5938116 c 0.286565,-0.4922697 0.65867,-0.92780876 1.047845,-1.34126013 0.236783,-0.25155360897 0.487925,-0.48939875 0.721657,-0.74374427 0.09551,-0.10393342 0.177547,-0.22194311 0.295618,-0.30432639 0.0451,-0.0314676 0.103731,-0.0191544 0.151864,-0.00269 0.114288,0.0390928 0.219009,0.10287748 0.313702,0.1767589 0.06247,0.048742 0.127453,0.0980602 0.171785,0.16459706 0.135588,0.20350023 0.211656,0.44023563 0.262144,0.6775523 0.08155,0.38334002 0.105055,0.77613067 0.115882,1.16700284 0.01167,0.4211211 -0.004,0.8425783 0.0097,1.2636059 0.02459,0.7572337 -0.07272,1.5110096 -0.09011,2.2672241 -0.0124,0.538976 0.02053,1.0793196 -0.02929,1.6171757 -0.05446,0.587899 -0.252987,1.1523175 -0.296483,1.7418729 -0.0078,0.1058452 0.01469,0.2108593 0.03469,0.3141384 0.03442,0.1777188 0.08039,0.355269 0.08151,0.5371567 5.97e-4,0.09723 -0.01711,0.1980614 -0.07409,0.2811315 -0.0074,0.01084 -0.01429,0.022286 -0.02597,0.0047 C 81.532824,9.3146324 81.473681,9.2098693 81.414026,9.1056246 81.307354,8.9192205 81.193556,8.7364322 81.098812,8.5436837 81.03786,8.4196815 80.955938,8.3019361 80.925754,8.1668813 c -0.0066,-0.029325 -0.04335,-0.1007651 -0.01025,-0.094449 0.05066,0.00967 0.08988,0.054225 0.1259,0.089229 0.154408,0.1500679 0.256451,0.3421275 0.37525,0.5193387 0.08727,0.1301813 0.185354,0.2581502 0.317378,0.3461351 0.03852,0.025668 0.08954,0.031397 0.130739,3.892e-4 0.123911,-0.093252 0.205105,-0.2288614 0.281021,-0.3611496 0.05931,-0.1033532 0.12157,-0.2052779 0.195701,-0.2990347 0.296569,-0.3750819 0.650964,-0.6990566 0.95736,-1.0655932"
       style="fill:none;stroke:#ff0000;stroke-width:0.264583px;stroke-linecap:butt;stroke-linejoin:miter;stroke-opacity:1" />
    <path
       inkscape:original-d="m 79.213765,20.030863 c -0.100058,0.01251 -0.200115,0.02501 -0.300173,0.03752 -0.0062,0 -0.02434,-0.0028 -0.01876,0 0.102365,0.05118 2.071426,-0.323924 2.434167,-0.318932 0.207298,0.0029 0.613042,0.09402 0.792633,0.06566 0.02556,-0.004 0.339516,-0.05741 0.328303,-0.07035 -0.119819,-0.138249 -0.616098,-0.161596 -0.750416,-0.206369 -0.523703,-0.17457 0.185015,-0.0042 -0.290788,-0.211057 -0.06402,-0.02784 0.06219,0.130618 0.117253,0.173534 0.161684,0.126019 0.600003,0.200212 0.670684,0.384595 0.124608,0.325065 -0.579054,0.590882 -0.745728,0.792639"
       inkscape:path-effect="#path-effect898"
       id="path896"
       d="m 79.213765,20.030863 c -0.100057,0.01251 -0.199565,0.03074 -0.300173,0.03752 -0.0063,4.22e-4 -0.02519,-0.0016 -0.01876,0 0.04083,0.01015 0.08381,0.0041 0.125203,2.69e-4 0.145149,-0.01336 0.289457,-0.03442 0.433595,-0.0558 0.470717,-0.0698 0.939523,-0.152434 1.41112,-0.216158 0.131982,-0.01783 0.264145,-0.03515 0.397016,-0.04517 0.08687,-0.0065 0.173747,0.0037 0.25986,0.0142 0.149265,0.01815 0.297787,0.04433 0.448052,0.05268 0.05796,0.0032 0.1164,0.0031 0.173859,-0.0069 0.08983,-0.01571 0.183219,-0.01995 0.268595,-0.0521 0.01226,-0.0046 0.04682,-0.0046 0.0378,-0.01461 -0.03325,-0.03684 -0.07923,-0.05872 -0.124944,-0.07566 -0.09544,-0.03536 -0.195929,-0.05423 -0.295905,-0.0716 -0.09102,-0.01582 -0.182543,-0.02854 -0.27347,-0.04501 -0.0452,-0.0082 -0.0886,-0.02351 -0.131355,-0.03976 -0.04185,-0.01591 -0.08588,-0.02822 -0.124205,-0.05187 0,0 -0.0042,-0.0071 -0.0042,-0.0071 0.02562,-0.01544 0.08272,0.0097 0.08568,-0.02096 0.002,-0.02029 -0.02124,-0.03009 -0.03562,-0.03856 -0.04389,-0.02585 -0.09715,-0.03551 -0.137178,-0.0669 -0.0074,-0.0058 -0.02224,-0.0043 -0.01643,0.0093 0.01596,0.03737 0.04278,0.06894 0.06919,0.09933 0.02767,0.03184 0.05729,0.06266 0.09339,0.08511 0.06771,0.0421 0.142461,0.07096 0.216201,0.100498 0.09926,0.03976 0.201265,0.07525 0.293034,0.130832 0.04873,0.02952 0.09833,0.06426 0.124862,0.116061 0.02708,0.05287 0.02869,0.116697 0.0082,0.172155 -0.02603,0.07031 -0.07644,0.128407 -0.130643,0.17869 -0.09281,0.0861 -0.199092,0.155694 -0.304385,0.22531 -0.08513,0.05629 -0.173002,0.109254 -0.251266,0.175023 -0.02137,0.01795 -0.04205,0.03692 -0.05991,0.05843"
       style="fill:none;stroke:#ff0000;stroke-width:0.264583px;stroke-linecap:butt;stroke-linejoin:miter;stroke-opacity:1" />
    <path
       inkscape:original-d="m 49.773899,29.317401 c -0.135752,-0.426929 0.105331,-0.595672 0.39397,-0.891132 0.949296,-0.971727 2.1449,-1.323709 3.480067,-1.050603 0.569262,0.116443 0.570135,0.886863 0.862984,1.275729 0.01535,0.02037 0.430263,0.448482 0.281405,0.286101"
       inkscape:path-effect="#path-effect902"
       id="path900"
       d="m 49.773899,29.317401 c -0.03527,-0.110063 -0.05195,-0.229399 -0.02528,-0.343432 0.02528,-0.108119 0.08955,-0.202144 0.162115,-0.284188 0.08839,-0.09993 0.185687,-0.191372 0.27943,-0.286173 0.319833,-0.323442 0.692166,-0.597219 1.104691,-0.790744 0.382068,-0.179237 0.797524,-0.285114 1.218216,-0.316412 0.386286,-0.02874 0.777492,-0.003 1.154646,0.08357 0.105785,0.02429 0.203716,0.07918 0.281209,0.155097 0.100529,0.09849 0.168215,0.224551 0.22393,0.352373 0.08558,0.196345 0.142165,0.404588 0.237527,0.596714 0.02952,0.05947 0.05783,0.12157 0.103118,0.170258 0.08486,0.09122 0.168992,0.183357 0.25925,0.269233 0.01685,0.01603 0.06499,0.06621 0.05085,0.04896 -0.0099,-0.01213 -0.02076,-0.02353 -0.03128,-0.03516"
       style="fill:none;stroke:#000000;stroke-width:0.264583px;stroke-linecap:butt;stroke-linejoin:miter;stroke-opacity:1" />
    <path
       inkscape:original-d="m 50.660333,23.661055 c -0.0938,0.146958 -0.209757,0.281936 -0.281408,0.440875 -0.14586,0.32355 0.678066,0.76811 0.839533,0.150086 0.03818,-0.146151 0.09085,-0.728094 -0.196988,-0.750425 -0.131198,-0.01018 -0.241149,0.105433 -0.361137,0.159464 -0.507995,0.228749 -0.381688,0.05372 -0.525296,0.412735"
       inkscape:path-effect="#path-effect906"
       id="path904"
       d="m 50.660333,23.661055 c -0.08217,0.12877 -0.181268,0.246765 -0.252592,0.382326 -0.02348,0.04463 -0.04739,0.09168 -0.04597,0.143894 0.0015,0.05622 0.02573,0.10954 0.05864,0.154214 0.04762,0.06464 0.11201,0.115745 0.182697,0.153076 0.07694,0.04063 0.16295,0.0661 0.250341,0.06705 0.07106,7.65e-4 0.143017,-0.01778 0.202539,-0.05739 0.05647,-0.03757 0.09904,-0.09324 0.127593,-0.154277 0.0237,-0.05066 0.03879,-0.105035 0.04746,-0.160224 0.01376,-0.08751 0.01987,-0.176319 0.01732,-0.264858 -0.0023,-0.07938 -0.01002,-0.159515 -0.03414,-0.235476 -0.01584,-0.04987 -0.03925,-0.09887 -0.07701,-0.136014 -0.02922,-0.02875 -0.06834,-0.04646 -0.109058,-0.05116 -0.04662,-0.0054 -0.09347,0.0067 -0.135721,0.02586 -0.08343,0.03789 -0.154393,0.09801 -0.238024,0.135642 -0.09721,0.04374 -0.197598,0.07974 -0.297441,0.117142 -0.0383,0.01435 -0.08216,0.02134 -0.112716,0.04985 -0.03118,0.0291 -0.04368,0.07166 -0.05822,0.110332 -0.01668,0.04437 -0.03333,0.08876 -0.051,0.132751"
       style="fill:none;stroke:#000000;stroke-width:0.264583px;stroke-linecap:butt;stroke-linejoin:miter;stroke-opacity:1" />
    <path
       inkscape:original-d="m 53.535372,23.717335 c -0.12038,0.01407 -0.254355,-0.01511 -0.361138,0.04221 -0.327588,0.175869 0.06438,0.91213 0.590958,0.422113 0.38245,-0.355894 0.05342,-0.929457 -0.440873,-0.717594"
       inkscape:path-effect="#path-effect910"
       id="path908"
       d="m 53.535372,23.717335 c -0.08819,0.0102 -0.177556,-0.0021 -0.265494,0.01149 -0.04696,0.0073 -0.09309,0.02418 -0.130774,0.05379 -0.03894,0.03059 -0.06561,0.07522 -0.0771,0.123185 -0.0154,0.06426 -0.0067,0.132503 0.01641,0.193796 0.03338,0.08843 0.09787,0.165976 0.182014,0.210216 0.05789,0.03044 0.124833,0.04229 0.18981,0.03559 0.07401,-0.0076 0.144166,-0.03763 0.20608,-0.07795 0.0472,-0.03074 0.09108,-0.06666 0.130474,-0.106891 0.06099,-0.06229 0.107927,-0.139195 0.130576,-0.22376 0.02387,-0.08911 0.01834,-0.185838 -0.01628,-0.27151 -0.03305,-0.08181 -0.09383,-0.152171 -0.170605,-0.196028 -0.06765,-0.03864 -0.146897,-0.05467 -0.224422,-0.05013 -0.06269,0.0037 -0.124169,0.02023 -0.181744,0.04493"
       style="fill:none;stroke:#000000;stroke-width:0.264583px;stroke-linecap:butt;stroke-linejoin:miter;stroke-opacity:1" />
    <path
       inkscape:original-d="m 56.738726,11.293081 c -1.023546,-0.274444 -0.0069,4.5e-4 0,0 0.187986,-0.01194 0.350078,-0.145409 0.534672,-0.182917 0.408422,-0.08299 0.830125,-0.07834 1.242883,-0.136016 0.514482,-0.07189 0.749493,-0.113025 0.712893,-0.131324 -0.306316,-0.153158 -0.494807,0.326234 -0.947404,-0.229818 -0.09744,-0.119718 -0.537847,-0.276349 -0.384585,-0.257958 0.284517,0.03414 0.655482,0.124715 0.914572,0.229818 0.193728,0.07859 0.38938,0.162685 0.558126,0.286098 0.491463,0.359433 -1.085676,1.483216 -1.15846,1.561825"
       inkscape:path-effect="#path-effect914"
       id="path912"
       d="m 56.738726,11.293081 c -0.151634,-0.04055 -0.606307,-0.163057 -0.454939,-0.12152 0.139928,0.0384 0.281255,0.07181 0.420427,0.112865 0.01988,0.0059 0.03949,0.0089 0.06078,0.0062 0.106253,-0.01325 0.203311,-0.06157 0.299497,-0.10554 0.0732,-0.03346 0.148653,-0.06316 0.228059,-0.07875 0.32341,-0.06346 0.653574,-0.07485 0.981021,-0.10441 0.108578,-0.0098 0.216707,-0.02382 0.324609,-0.0393 0.164308,-0.02357 0.329299,-0.04377 0.492108,-0.07624 0.04388,-0.0088 0.09292,-0.0067 0.130773,-0.03081 0.0043,-0.0027 0.01807,-0.0076 0.0081,-0.01275 -0.05361,-0.02763 -0.115598,-0.03696 -0.175278,-0.02901 -0.09964,0.01327 -0.191047,0.06021 -0.290877,0.07334 -0.06853,0.009 -0.139135,-0.0029 -0.201623,-0.03234 -0.08879,-0.0418 -0.161677,-0.10998 -0.227774,-0.181291 -0.03581,-0.03864 -0.06682,-0.08176 -0.110702,-0.112629 -0.07433,-0.05228 -0.157202,-0.09051 -0.237028,-0.13347 -0.03968,-0.02135 -0.08266,-0.03797 -0.118477,-0.06566 0,0 -0.0017,-0.0058 -0.0017,-0.0058 0.03064,-0.0057 0.06216,0.0027 0.0927,0.0071 0.19489,0.02812 0.387562,0.07119 0.576456,0.126646 0.109366,0.0321 0.216879,0.07031 0.322313,0.113684 0.18051,0.07426 0.361366,0.154247 0.518365,0.271809 0.04299,0.03219 0.07515,0.07958 0.085,0.132864 0.01235,0.0668 -0.0047,0.135259 -0.0306,0.196685 -0.04346,0.102998 -0.108376,0.195368 -0.17851,0.281723 -0.127017,0.156395 -0.271836,0.297308 -0.421218,0.432097 -0.175613,0.158458 -0.362292,0.30391 -0.545599,0.453273 -0.0246,0.02004 -0.05023,0.03899 -0.0732,0.06094"
       style="fill:none;stroke:#0092ff;stroke-width:0.264583px;stroke-linecap:butt;stroke-linejoin:miter;stroke-opacity:1" />
    <path
       inkscape:original-d="m 60.467366,3.2025381 c 0.815134,0.01538 0.205095,0.0435 1.139698,-0.1360139 1.340916,-0.257557 2.70492,-0.3051865 4.066334,-0.3423838 0.400722,-0.010948 0.6785,-0.010668 1.078727,0.028142 0.108368,0.010509 0.21095,0.1235519 0.314238,0.089113 0.02853,-0.00951 0.102558,-0.040966 0.08911,-0.01407 -0.118923,0.2378436 -0.351217,0.501775 -0.473703,0.6941448 -0.348083,0.5466795 -0.698288,1.3027345 -0.938025,1.8573057 -0.601527,1.3915011 -0.679571,1.7461349 -1.167836,3.2502858 -0.560491,1.7266483 -1.139002,3.4524993 -1.439868,5.2483013 -0.103502,0.617793 -0.169347,1.241878 -0.286097,1.857306 -0.171368,0.903332 -0.51232,1.757375 -0.642543,2.668706 -0.0032,0.02216 -0.0123,-0.04514 -0.02814,-0.06097 -0.08958,-0.0896 -0.07361,-0.0647 -0.02814,-0.257962"
       inkscape:path-effect="#path-effect918"
       id="path916"
       d="m 60.467366,3.2025381 c 0.154871,0.00172 0.309621,0.013113 0.464471,0.011289 0.07801,-9.184e-4 0.150983,-0.031807 0.225794,-0.050281 0.298837,-0.073795 0.602073,-0.128793 0.905986,-0.1767598 1.226929,-0.1936475 2.47097,-0.2312311 3.710524,-0.2652028 0.316868,-0.00868 0.632894,0.026542 0.950042,0.028033 0.08309,3.906e-4 0.152569,0.049798 0.225936,0.081488 0.0429,0.018529 0.08891,0.010173 0.136214,0.00316 0.01913,-0.00284 0.08116,-0.030447 0.06914,-0.00694 -0.126524,0.2474165 -0.319738,0.4516081 -0.467882,0.6850754 -0.245304,0.3865874 -0.453253,0.7955082 -0.647804,1.2094823 -0.219404,0.4668583 -0.421831,0.9415576 -0.615583,1.4195675 -0.182372,0.4499351 -0.341945,0.9087131 -0.489828,1.3710246 -0.183927,0.5749936 -0.369393,1.1494882 -0.555781,1.7236923 -0.463897,1.4291215 -0.910995,2.8684635 -1.19075,4.3471875 -0.138994,0.734692 -0.204553,1.481274 -0.350225,2.21475 -0.171406,0.863047 -0.531547,1.685778 -0.623962,2.562593 -0.0017,0.01601 -0.01061,0.06728 -0.01559,0.02644 -0.0057,-0.04672 -0.05256,-0.06778 -0.07419,-0.105338 -0.02201,-0.03821 -0.0016,-0.08278 0.0084,-0.121473 0.0065,-0.02523 0.01291,-0.05051 0.01886,-0.07588"
       style="fill:none;stroke:#008bff;stroke-width:0.264583px;stroke-linecap:butt;stroke-linejoin:miter;stroke-opacity:1" />
    <path
       inkscape:original-d="m 82.196672,10.824062 c 1.024914,-0.237298 0.798301,-0.232634 1.786935,-0.290788 0.252949,-0.01488 0.506417,-0.02514 0.759798,-0.02345 0.21758,0.0015 0.435094,0.01476 0.651928,0.03283 0.177398,0.01478 0.353724,0.04075 0.529985,0.06566 1.44704,0.204556 -1.068298,-0.460454 -1.111563,-0.6191 -0.02318,-0.084949 0.176882,0.00822 0.26265,0.02814 0.03662,0.0085 1.674212,0.251802 1.650923,0.717593 -0.01834,0.366844 -1.419696,0.812092 -1.566505,1.472715"
       inkscape:path-effect="#path-effect922"
       id="path920"
       d="m 82.196672,10.824062 c 0.22559,-0.05178 0.450171,-0.107789 0.675124,-0.162231 0.13603,-0.03292 0.273344,-0.06137 0.412525,-0.07727 0.185317,-0.02117 0.371656,-0.03134 0.557752,-0.04287 0.345827,-0.02143 0.692446,-0.03957 1.039005,-0.02941 0.19391,0.0057 0.387652,0.0178 0.580731,0.03642 0.210379,0.02029 0.41857,0.05838 0.628605,0.08128 0.07751,0.0085 0.15608,0.0277 0.233444,0.01669 0.01639,-0.0023 0.05538,0.0033 0.04962,-0.01454 -0.0083,-0.02562 -0.03834,-0.03635 -0.06083,-0.04722 -0.09122,-0.04409 -0.18664,-0.07873 -0.281777,-0.11323 -0.306044,-0.111 -0.617497,-0.207258 -0.920139,-0.327387 -0.08132,-0.03228 -0.166605,-0.05859 -0.239969,-0.106567 -0.02429,-0.01588 -0.07474,-0.03621 -0.05791,-0.067907 0.01342,-0.025287 0.04816,-0.015741 0.07041,-0.010864 0.06584,0.014431 0.126768,0.047278 0.193149,0.058406 0.292159,0.04898 0.5833,0.107763 0.867189,0.192984 0.167527,0.05029 0.334889,0.10593 0.489434,0.18866 0.083,0.04443 0.164977,0.09543 0.227498,0.166936 0.0405,0.04632 0.07062,0.106123 0.0668,0.169013 -0.0035,0.05788 -0.03701,0.10853 -0.07431,0.150634 -0.06728,0.07594 -0.148819,0.137559 -0.231597,0.19542 -0.179905,0.125751 -0.368957,0.237655 -0.551039,0.360143 -0.164775,0.110845 -0.328089,0.226826 -0.467366,0.369191 -0.09456,0.09666 -0.180407,0.206873 -0.224831,0.33602 -0.0069,0.02009 -0.01275,0.04056 -0.01736,0.06131"
       style="fill:none;stroke:#0093ff;stroke-width:0.264583px;stroke-linecap:butt;stroke-linejoin:miter;stroke-opacity:1" />
    <path
       inkscape:original-d="m 89.644581,2.9633394 c 1.928035,-0.2024946 3.859213,-0.4075142 5.801675,-0.3845933 0.05637,6.641e-4 1.087054,-0.039423 1.125622,0.2016762 0.0396,0.2475458 -0.264035,0.7081385 -0.328311,0.8817518 -0.08412,0.2272278 -0.162589,0.4565099 -0.243882,0.6847649 -0.25014,0.6534968 -0.50292,1.3059889 -0.750416,1.9604905 -0.494607,1.3079727 -0.884746,2.4127743 -1.411727,3.7005455 -0.529709,1.294434 -1.117116,2.559813 -1.622782,3.864697 -0.475517,1.227077 -0.912495,2.466736 -1.106869,3.775587 -0.133493,0.898888 -0.109966,0.235027 -0.0094,0.436183 0.03159,0.06317 -0.02721,0.264688 0.01876,0.211061 0.07535,-0.08791 0.131326,-0.190734 0.196987,-0.286102"
       inkscape:path-effect="#path-effect926"
       id="path924"
       d="m 89.644581,2.9633394 c 1.83722,-0.1929913 3.679023,-0.3950996 5.52859,-0.3863378 0.146204,6.926e-4 0.292355,-6.246e-4 0.438566,-3.355e-4 0.22427,4.434e-4 0.451122,-3.86e-5 0.671194,0.045873 0.08647,0.01804 0.176359,0.038715 0.248555,0.092787 0.03154,0.02362 0.04343,0.062927 0.04376,0.1012599 0.001,0.1235724 -0.04519,0.2414106 -0.09277,0.3533451 -0.06774,0.1593741 -0.166703,0.3043324 -0.228351,0.4659881 -0.09164,0.2403131 -0.168246,0.4861989 -0.260302,0.7263356 -0.358364,0.934825 -0.719149,1.8687416 -1.06745,2.8073911 -0.390521,1.0524294 -0.781716,2.1049937 -1.213971,3.1412128 -0.52947,1.269267 -1.100636,2.521319 -1.591803,3.806453 -0.389772,1.019835 -0.734503,2.060766 -0.94619,3.134238 -0.0525,0.266245 -0.05141,0.544442 -0.135533,0.802463 -0.0077,0.02362 -0.02508,0.09612 -0.02346,0.07399 0.0023,-0.03121 0.02821,-0.113554 0.06514,-0.07173 0.03961,0.04486 0.01722,0.108447 0.02336,0.162653 0.0028,0.02431 -0.01178,0.103131 0.0059,0.08374 0.08051,-0.08831 0.136425,-0.19559 0.204426,-0.293263"
       style="fill:none;stroke:#009bff;stroke-width:0.264583px;stroke-linecap:butt;stroke-linejoin:miter;stroke-opacity:1" />
    <path
       inkscape:original-d="m 91.1501,9.5108166 c 1.407673,-0.1351555 2.768259,-0.5462264 4.16483,-0.7457381 0.138679,-0.019812 0.958429,-0.130977 1.074031,-0.046901"
       inkscape:path-effect="#path-effect930"
       id="path928"
       d="m 91.1501,9.5108166 c 0.757731,-0.072699 1.504458,-0.2261372 2.248435,-0.3827446 0.66072,-0.1390818 1.32107,-0.2855833 1.990979,-0.3732611 0.212619,-0.027828 0.425815,-0.054149 0.640112,-0.063703 0.093,-0.00415 0.187027,-0.010957 0.279258,0.00323 0.02743,0.00422 0.05641,0.00827 0.08008,0.023839"
       style="fill:none;stroke:#0099ff;stroke-width:0.264583px;stroke-linecap:butt;stroke-linejoin:miter;stroke-opacity:1" />
    <path
       inkscape:original-d="m 77.633191,28.008842 c 0.06253,-0.148524 0.08898,-0.318117 0.187603,-0.445567 0.877771,-1.134358 4.152024,-1.794876 5.46399,-1.552447 0.716716,0.132437 1.336466,0.881041 1.364819,1.594662 0.0013,0.03519 -0.167757,1.392131 -0.02344,0.862986"
       inkscape:path-effect="#path-effect934"
       id="path932"
       d="m 77.633191,28.008842 c 0.05694,-0.134963 0.07925,-0.285611 0.161679,-0.408663 0.05057,-0.07549 0.112565,-0.142905 0.177616,-0.205994 0.217267,-0.210716 0.475369,-0.374598 0.742941,-0.513416 0.419631,-0.217707 0.86543,-0.381476 1.318795,-0.51314 0.572343,-0.166217 1.158301,-0.287429 1.750599,-0.353874 0.378076,-0.04241 0.759795,-0.06985 1.139889,-0.0446 0.148875,0.0099 0.298709,0.02306 0.443591,0.05997 0.273015,0.06955 0.520295,0.222168 0.721805,0.416906 0.223813,0.216291 0.399207,0.485737 0.49241,0.783424 0.03814,0.121809 0.07839,0.248784 0.06709,0.37603 -0.0096,0.107602 -0.02291,0.214856 -0.03393,0.322327 -0.01838,0.179314 -0.04723,0.358472 -0.04654,0.538789 1.53e-4,0.04038 -0.034,0.112006 0.0057,0.121736 0.01587,0.0039 0.02092,-0.02286 0.02535,-0.03511 0.01006,-0.0278 0.01812,-0.05627 0.02596,-0.08476"
       style="fill:none;stroke:#000000;stroke-width:0.264583px;stroke-linecap:butt;stroke-linejoin:miter;stroke-opacity:1" />
    <path
       inkscape:original-d="m 79.93604,23.056024 c -0.994608,0.520583 0.665872,0.858283 0.980231,0.534677 0.446961,-0.46011 -0.77946,-0.569464 -0.980231,-0.534677 -0.146958,0.06254 -0.293912,0.12507 -0.44087,0.187604 0.0078,0.0078 0.01564,0.01563 0.02344,0.02345"
       inkscape:path-effect="#path-effect938"
       id="path936"
       d="m 79.93604,23.056024 c -0.07538,0.0398 -0.149855,0.0835 -0.213023,0.141198 -0.03669,0.03351 -0.07008,0.07242 -0.08917,0.118939 -0.01829,0.04456 -0.01355,0.09673 0.01107,0.138285 0.02575,0.04345 0.0657,0.07651 0.108019,0.102957 0.07087,0.0443 0.149712,0.07435 0.229796,0.09716 0.125115,0.03564 0.254584,0.05565 0.384465,0.06129 0.106377,0.0046 0.213882,0.0014 0.318382,-0.02007 0.06375,-0.01313 0.127019,-0.03297 0.183024,-0.06699 0.0336,-0.02041 0.06071,-0.04952 0.08474,-0.0802 0.02819,-0.03599 0.05151,-0.0773 0.05878,-0.123134 0.0086,-0.054 -0.01779,-0.107096 -0.05579,-0.14433 -0.0422,-0.04134 -0.09463,-0.07043 -0.148394,-0.09381 -0.08954,-0.03893 -0.184257,-0.06466 -0.279699,-0.08428 -0.126251,-0.02595 -0.254425,-0.04292 -0.383118,-0.04969 -0.06026,-0.0032 -0.120883,-0.0065 -0.181026,-7.2e-4 -0.0143,0.0014 -0.02826,0.0035 -0.04184,0.0093 -0.142363,0.06058 -0.536495,0.07234 -0.427093,0.181741 0.0078,0.0078 0.01564,0.01563 0.02344,0.02345"
       style="fill:none;stroke:#000000;stroke-width:0.264583px;stroke-linecap:butt;stroke-linejoin:miter;stroke-opacity:1" />
    <path
       inkscape:original-d="m 83.12532,22.957531 c 0.05159,0.140705 0.02072,0.355091 0.154768,0.422114 0.128682,0.06434 0.28077,-0.07361 0.408043,-0.140703 0.745826,-0.393152 -0.0863,-0.990412 -0.848913,-0.572204"
       inkscape:path-effect="#path-effect942"
       id="path940"
       d="m 83.12532,22.957531 c 0.02055,0.05719 0.02714,0.117995 0.0363,0.177721 0.0082,0.05353 0.01688,0.107885 0.039,0.15779 0.01704,0.03844 0.04682,0.07165 0.08552,0.08947 0.03745,0.01725 0.08067,0.01683 0.119976,0.0065 0.05401,-0.01416 0.103046,-0.04205 0.150422,-0.07081 0.04657,-0.02827 0.0923,-0.05793 0.140264,-0.0839 0.07156,-0.03874 0.140571,-0.08468 0.195786,-0.145021 0.0387,-0.0423 0.06988,-0.09308 0.08221,-0.149671 0.01252,-0.05746 2.91e-4,-0.118484 -0.02888,-0.169161 -0.03245,-0.05637 -0.08214,-0.101042 -0.136814,-0.135295 -0.07959,-0.04987 -0.170177,-0.08038 -0.262341,-0.09654 -0.157774,-0.02767 -0.321497,-0.01444 -0.47475,0.03083 -0.08082,0.02387 -0.158917,0.05676 -0.232784,0.09728"
       style="fill:none;stroke:#000000;stroke-width:0.264583px;stroke-linecap:butt;stroke-linejoin:miter;stroke-opacity:1" />
  </g>
</svg>
