<?xml version="1.0" encoding="UTF-8" standalone="no"?>
<svg
   xmlns:dc="http://purl.org/dc/elements/1.1/"
   xmlns:cc="http://creativecommons.org/ns#"
   xmlns:rdf="http://www.w3.org/1999/02/22-rdf-syntax-ns#"
   xmlns:svg="http://www.w3.org/2000/svg"
   xmlns="http://www.w3.org/2000/svg"
   xmlns:sodipodi="http://sodipodi.sourceforge.net/DTD/sodipodi-0.dtd"
   xmlns:inkscape="http://www.inkscape.org/namespaces/inkscape"
   sodipodi:docname="a.svg"
   inkscape:version="1.0 (4035a4fb49, 2020-05-01)"
   id="svg8"
   version="1.1"
   viewBox="0 0 100 29.999999"
   height="3cm"
   width="10cm">
  <defs
     id="defs2">
    <inkscape:path-effect
       effect="simplify"
       id="path-effect951"
       is_visible="true"
       lpeversion="1"
       steps="1"
       threshold="0.000408163"
       smooth_angles="360"
       helper_size="0"
       simplify_individual_paths="false"
       simplify_just_coalesce="false" />
    <inkscape:path-effect
       effect="simplify"
       id="path-effect947"
       is_visible="true"
       lpeversion="1"
       steps="1"
       threshold="0.000408163"
       smooth_angles="360"
       helper_size="0"
       simplify_individual_paths="false"
       simplify_just_coalesce="false" />
    <inkscape:path-effect
       effect="simplify"
       id="path-effect943"
       is_visible="true"
       lpeversion="1"
       steps="1"
       threshold="0.000408163"
       smooth_angles="360"
       helper_size="0"
       simplify_individual_paths="false"
       simplify_just_coalesce="false" />
    <inkscape:path-effect
       effect="simplify"
       id="path-effect939"
       is_visible="true"
       lpeversion="1"
       steps="1"
       threshold="0.000408163"
       smooth_angles="360"
       helper_size="0"
       simplify_individual_paths="false"
       simplify_just_coalesce="false" />
    <inkscape:path-effect
       effect="simplify"
       id="path-effect935"
       is_visible="true"
       lpeversion="1"
       steps="1"
       threshold="0.000408163"
       smooth_angles="360"
       helper_size="0"
       simplify_individual_paths="false"
       simplify_just_coalesce="false" />
    <inkscape:path-effect
       effect="simplify"
       id="path-effect931"
       is_visible="true"
       lpeversion="1"
       steps="1"
       threshold="0.000408163"
       smooth_angles="360"
       helper_size="0"
       simplify_individual_paths="false"
       simplify_just_coalesce="false" />
    <inkscape:path-effect
       effect="simplify"
       id="path-effect927"
       is_visible="true"
       lpeversion="1"
       steps="1"
       threshold="0.000408163"
       smooth_angles="360"
       helper_size="0"
       simplify_individual_paths="false"
       simplify_just_coalesce="false" />
    <inkscape:path-effect
       effect="simplify"
       id="path-effect923"
       is_visible="true"
       lpeversion="1"
       steps="1"
       threshold="0.000408163"
       smooth_angles="360"
       helper_size="0"
       simplify_individual_paths="false"
       simplify_just_coalesce="false" />
    <inkscape:path-effect
       effect="simplify"
       id="path-effect919"
       is_visible="true"
       lpeversion="1"
       steps="1"
       threshold="0.000408163"
       smooth_angles="360"
       helper_size="0"
       simplify_individual_paths="false"
       simplify_just_coalesce="false" />
    <inkscape:path-effect
       effect="simplify"
       id="path-effect915"
       is_visible="true"
       lpeversion="1"
       steps="1"
       threshold="0.000408163"
       smooth_angles="360"
       helper_size="0"
       simplify_individual_paths="false"
       simplify_just_coalesce="false" />
    <inkscape:path-effect
       effect="simplify"
       id="path-effect911"
       is_visible="true"
       lpeversion="1"
       steps="1"
       threshold="0.000408163"
       smooth_angles="360"
       helper_size="0"
       simplify_individual_paths="false"
       simplify_just_coalesce="false" />
  </defs>
  <sodipodi:namedview
     inkscape:window-maximized="0"
     inkscape:window-y="0"
     inkscape:window-x="1920"
     inkscape:window-height="908"
     inkscape:window-width="1600"
     units="cm"
     showgrid="false"
     inkscape:document-rotation="0"
     inkscape:current-layer="layer1"
     inkscape:document-units="mm"
     inkscape:cy="54.637969"
     inkscape:cx="395.13143"
     inkscape:zoom="1.3919419"
     inkscape:pageshadow="2"
     inkscape:pageopacity="0.0"
     borderopacity="1.0"
     bordercolor="#666666"
     pagecolor="#ffffff"
     id="base" />
  <metadata
     id="metadata5">
    <rdf:RDF>
      <cc:Work
         rdf:about="">
        <dc:format>image/svg+xml</dc:format>
        <dc:type
           rdf:resource="http://purl.org/dc/dcmitype/StillImage" />
        <dc:title></dc:title>
      </cc:Work>
    </rdf:RDF>
  </metadata>
  <g
     id="layer1"
     inkscape:groupmode="layer"
     inkscape:label="Layer 1">
    <path
       sodipodi:nodetypes="cc"
       id="path10"
       d="m 0,20.132291 102.10211,0"
       style="fill:none;stroke:#2690a7;stroke-width:0.264583px;stroke-linecap:butt;stroke-linejoin:miter;stroke-opacity:0.474099" />
    <path
       sodipodi:nodetypes="cc"
       style="fill:none;stroke:#2690a7;stroke-width:0.264583px;stroke-linecap:butt;stroke-linejoin:miter;stroke-opacity:0.474099"
       d="m 0,0.1322915 101.24145,0"
       id="path12" />
    <path
       sodipodi:nodetypes="cc"
       style="fill:none;stroke:#2690a7;stroke-width:0.265;stroke-linecap:butt;stroke-linejoin:miter;stroke-miterlimit:4;stroke-dasharray:1.06, 1.06;stroke-dashoffset:0;stroke-opacity:0.474099"
       d="m 0,10.132291 101.7922,0"
       id="path14" />
    <path
       style="fill:none;stroke:#000000;stroke-width:0.264583px;stroke-linecap:butt;stroke-linejoin:miter;stroke-opacity:1"
       d="m 20.424453,10.927265 c -0.236915,-0.118461 -0.455825,-0.283428 -0.710746,-0.355382 -0.607373,-0.171438 -1.441518,0.256199 -2.007378,0.470634 -2.70576,1.02536 -4.648421,4.340767 -4.254875,7.193989 0.03913,0.283678 0.253307,0.487089 0.364978,0.739568 0.05025,0.113614 0.118509,0.567912 0.220908,0.662727 0.359241,0.332636 1.175796,0.19642 1.6424,0.182494 0.690602,-0.02061 1.18947,-0.592996 1.728842,-0.970081 0.289269,-0.202233 0.832893,-0.451634 1.075724,-0.739568 1.18896,-1.409792 1.3025,-3.535871 1.440702,-5.263424 0.02405,-0.300604 -0.01826,-0.610996 0.05763,-0.902857 0.09309,-0.35804 0.398203,-0.650736 0.441817,-1.0181 0.04331,-0.364842 -0.145927,-0.720851 -0.192095,-1.0853427 -0.01574,-0.1242386 0.09268,-0.4049601 -0.02881,-0.3745876 -0.316497,0.079123 -0.431209,1.2880833 -0.403396,1.7480703 0.04214,0.696974 0.593675,6.958383 1.988168,7.578174 0.06171,0.02743 0.148592,-0.02251 0.201698,0.01921"
       id="path853" />
    <path
       style="fill:none;stroke:#ff0100;stroke-width:0.264583px;stroke-linecap:butt;stroke-linejoin:miter;stroke-opacity:1"
       d="m 16.832303,9.8611281 c -1.100257,0.3715139 -2.623593,1.7586059 -3.332826,2.7181599 -0.293115,0.396569 -1.20458,1.556221 -0.950862,1.133362"
       id="path855" />
    <path
       style="fill:none;stroke:#ff0100;stroke-width:0.264583px;stroke-linecap:butt;stroke-linejoin:miter;stroke-opacity:1"
       d="m 12.548615,13.71265 c 0.159248,-4.4479506 -0.295644,-0.01478 0,0 0.46052,0.02302 4.494699,-2.803179 0,0"
       id="path857" />
    <path
       style="fill:none;stroke:#ff0000;stroke-width:0.264583px;stroke-linecap:butt;stroke-linejoin:miter;stroke-opacity:1"
       d="m 16.30382,18.25547 c 0.15351,-0.01492 0.479732,0.0097 0.645197,-0.122243 0.481053,-0.38345 1.336714,-1.420744 1.460179,-1.840528"
       id="path875" />
    <path
       style="fill:none;stroke:#ff0000;stroke-width:0.264583px;stroke-linecap:butt;stroke-linejoin:miter;stroke-opacity:1"
       d="m 18.409196,16.292699 c -0.32373,0.09508 -0.639933,0.221132 -0.971189,0.285248 -0.540066,0.104531 0.940488,-0.478491 0.971189,-0.285248 0.03888,0.244697 -0.184415,0.460961 -0.251287,0.699532 -0.04681,0.167001 0.06113,0.295958 0.06113,0.448251 0,0.05147 -0.0081,0.458753 0.03396,0.448245 0.04793,-0.01199 0.0042,-0.129952 0.0068,-0.15621 0.04669,-0.480252 0.09961,-0.959879 0.149411,-1.439818"
       id="path879" />
    <path
       style="fill:none;stroke:#ff0000;stroke-width:0.264583px;stroke-linecap:butt;stroke-linejoin:miter;stroke-opacity:1"
       d="m 21.526512,13.406265 c -0.134693,0.823377 -0.119529,1.572616 0.325995,2.275185 0.124416,0.196199 0.135303,0.439147 0.108663,0.665578 -0.011,0.09352 0.12904,0.345455 0.12904,0.251293 0,-0.0703 -0.05246,-0.211988 -0.06113,-0.278454"
       id="path887" />
    <path
       style="fill:none;stroke:#ff0000;stroke-width:0.264583px;stroke-linecap:butt;stroke-linejoin:miter;stroke-opacity:1"
       d="m 22.02908,16.319867 c 0.235441,-0.183374 0.438272,-0.418946 0.706323,-0.550121 0.07402,-0.03622 -0.04543,0.158426 -0.06792,0.237706 -0.02386,0.08414 -0.106971,0.658516 -0.230909,0.679158 -0.180261,0.03002 -0.232927,-0.312709 -0.407499,-0.366743 -0.240088,-0.07431 -0.50315,0.03124 -0.753855,0.01358 -9e-4,-6.3e-5 -0.469752,-0.166372 -0.448242,-0.230913 0.0048,-0.01437 0.125472,0.01029 0.142624,0 0.01034,-0.0062 0.0055,-0.03278 0.0068,-0.04075 0.350894,0.08603 0.701788,0.172058 1.052683,0.258087"
       id="path895" />
    <path
       style="fill:none;stroke:#000000;stroke-width:0.264583px;stroke-linecap:butt;stroke-linejoin:miter;stroke-opacity:1"
       d="m 86.494333,12.910479 c 0.02391,-0.20991 0.127613,-0.401464 0.248861,-0.570441 0.220513,-0.307317 0.499588,-0.567857 0.794161,-0.802703 0.493249,-0.393238 1.032598,-0.72826 1.600305,-1.002338 0.423296,-0.204359 0.8617,-0.386941 1.322164,-0.486565 0.243029,-0.052581 0.495369,-0.090076 0.7433,-0.052627 0.150551,0.02274 0.303056,0.084024 0.402017,0.2050251 0.0774,0.09464 0.104924,0.216905 0.127445,0.333916 0.06363,0.330604 0.03695,0.671234 -0.02005,1.000682 -0.08579,0.49588 -0.252573,0.972519 -0.370646,1.460714 -0.07389,0.305507 -0.147175,0.611168 -0.221201,0.916649 -0.250739,1.034719 -0.499513,2.073972 -0.616994,3.133783 -0.07836,0.706887 -0.102271,1.425707 0.0077,2.130566 0.04451,0.28532 0.125869,0.571876 0.288806,0.813726 0.119264,0.177025 0.291637,0.318844 0.492291,0.39417 0.246688,0.09261 0.518997,0.08841 0.774551,0.03896 0.337756,-0.06536 0.653398,-0.209628 0.958574,-0.365135 0.276902,-0.1411 0.557866,-0.279485 0.808418,-0.46457 0.09971,-0.07366 0.201606,-0.150781 0.270102,-0.255559 0.01194,-0.01826 0.02256,-0.03745 0.03068,-0.05773"
       id="path913"
       inkscape:path-effect="#path-effect915"
       inkscape:original-d="m 86.494333,12.910479 c 0.147889,-1.415395 4.784834,-3.8788432 5.195522,-2.546859 0.259924,0.843008 -0.185576,1.93879 -0.373541,2.737024 -0.439473,1.866313 -1.10758,4.191722 -0.801396,6.098864 0.238799,1.487418 1.339154,1.480373 2.465332,0.882909 0.204565,-0.108526 1.033391,-0.498491 1.154551,-0.801414" />
    <path
       style="fill:none;stroke:#000000;stroke-width:0.264583px;stroke-linecap:butt;stroke-linejoin:miter;stroke-opacity:1"
       d="m 90.311167,15.321494 c -0.2088,-0.09369 -0.438111,-0.138945 -0.666815,-0.13713 -0.286153,0.0023 -0.566648,0.07277 -0.836822,0.162026 -0.256062,0.08459 -0.50756,0.182048 -0.76132,0.273187 -0.501942,0.180274 -1.00598,0.35874 -1.488013,0.588346 -0.401438,0.191216 -0.786901,0.424435 -1.114825,0.727194 -0.287355,0.265303 -0.521548,0.585523 -0.699091,0.933582 -0.168593,0.330513 -0.286481,0.684502 -0.375892,1.043937 -0.03383,0.135985 -0.06989,0.271863 -0.09055,0.410556 -0.0068,0.04583 -0.01003,0.09188 0.01389,0.136639 0.08496,0.159022 0.227057,0.280389 0.383503,0.366024 0.212712,0.116434 0.450036,0.180501 0.688174,0.218788 0.337694,0.05429 0.681721,0.06259 1.022594,0.04052 0.221531,-0.01434 0.442145,-0.04375 0.659246,-0.09097 0.380719,-0.08281 0.754029,-0.202024 1.108658,-0.364156 0.326915,-0.149462 0.63482,-0.336813 0.933541,-0.536065 0.236819,-0.157962 0.480459,-0.305291 0.720722,-0.457913 0.05121,-0.03253 0.09972,-0.06916 0.151467,-0.101053 0.01152,-0.0071 0.03129,-0.03154 0.006,-0.03493 -0.04537,-0.0061 -0.09133,-2.14e-4 -0.136673,0.0034 -0.04075,0.0033 -0.08147,0.0068 -0.122225,0.01005"
       id="path917"
       inkscape:path-effect="#path-effect919"
       inkscape:original-d="m 90.311167,15.321494 c -0.739812,-0.328583 -1.440698,0.004 -2.152912,0.258087 -1.92437,0.686548 -3.228064,1.158816 -3.769299,3.253177 -0.0088,0.03386 -0.141176,0.536151 -0.115456,0.590875 0.369107,0.785365 2.01403,0.726378 2.675858,0.590869 0.827376,-0.169405 1.416638,-0.438643 2.091801,-0.889703 1.000512,-0.668415 1.162431,-0.651002 0.665565,-0.611242" />
    <path
       style="fill:none;stroke:#000000;stroke-width:0.264583px;stroke-linecap:butt;stroke-linejoin:miter;stroke-opacity:1"
       d="m 85.237898,28.78247 c -0.100156,-0.01837 -0.202088,-0.0045 -0.303059,-0.0047 -0.06907,-1.75e-4 -0.141878,-0.0022 -0.203803,-0.03668 -0.04203,-0.02338 -0.06563,-0.06834 -0.07635,-0.113905 -0.01959,-0.08331 0.0051,-0.169732 0.0421,-0.244489 0.0649,-0.131182 0.16055,-0.243068 0.245406,-0.36126 0.219859,-0.30623 0.49815,-0.566755 0.799387,-0.791462 0.422995,-0.315532 0.892244,-0.568343 1.385987,-0.753708 0.446704,-0.167705 0.915712,-0.285115 1.393093,-0.312334 0.338525,-0.0193 0.683742,0.0053 1.007622,0.110365 0.249499,0.08092 0.476564,0.222354 0.670619,0.397743 0.247534,0.223724 0.444939,0.495924 0.624896,0.775122 0.140636,0.218193 0.273703,0.44112 0.412588,0.660426 0.107931,0.170428 0.206392,0.348558 0.335314,0.503798 0.04389,0.05285 0.09682,0.0971 0.145689,0.145126 0,0 0.0046,0.006 0.0046,0.006 -0.05829,-0.03806 -0.112968,-0.08159 -0.168215,-0.123954 -0.02021,-0.0155 -0.04045,-0.03097 -0.06083,-0.04625"
       id="path933"
       inkscape:path-effect="#path-effect935"
       inkscape:original-d="m 85.237898,28.78247 c -0.190164,-0.03849 -0.49703,0.06412 -0.570494,-0.115459 -0.08644,-0.211304 0.133461,-0.444926 0.264874,-0.631616 0.841296,-1.195173 3.07517,-2.201765 4.536747,-1.779405 0.852943,0.246481 1.272929,1.067665 1.704671,1.752238 0.12728,0.201816 0.254539,0.403997 0.393903,0.597662 0.04022,0.05589 0.199036,0.188896 0.142632,0.149413 -0.07418,-0.05193 -0.144886,-0.108667 -0.217326,-0.163" />
    <path
       style="fill:none;stroke:#000000;stroke-width:0.264583px;stroke-linecap:butt;stroke-linejoin:miter;stroke-opacity:1"
       d="m 87.472305,22.778687 c -0.07779,-0.0394 -0.16257,-0.06836 -0.250305,-0.07221 -0.0671,-0.0029 -0.135233,0.0115 -0.194259,0.04406 -0.06668,0.03678 -0.119439,0.0955 -0.155542,0.162015 -0.0482,0.08881 -0.07019,0.190649 -0.06907,0.291311 0.0011,0.101312 0.02574,0.203528 0.07823,0.290781 0.04012,0.06669 0.09851,0.122576 0.168192,0.157763 0.07369,0.03721 0.157767,0.04812 0.239745,0.04519 0.04354,-0.0016 0.08628,-0.01139 0.1277,-0.02439 0.09001,-0.02825 0.176346,-0.06788 0.257499,-0.11583 0.07972,-0.0471 0.155822,-0.101896 0.219055,-0.169898 0.04798,-0.05159 0.08907,-0.111975 0.107458,-0.180763 0.01385,-0.05181 0.01192,-0.107861 -0.0067,-0.158166 -0.0159,-0.04286 -0.03932,-0.08384 -0.072,-0.116014 -0.04117,-0.04053 -0.09561,-0.06401 -0.150293,-0.08011 -0.09625,-0.02834 -0.19755,-0.03674 -0.292192,-0.07092 0,0 -0.0075,-0.0028 -0.0075,-0.0028 z"
       id="path945"
       inkscape:path-effect="#path-effect947"
       inkscape:original-d="m 87.472305,22.778687 c -0.789276,-0.400631 -0.929257,0.992021 -0.156205,0.916864 0.218297,-0.02122 0.901827,-0.361402 0.631618,-0.733493 -0.09981,-0.137434 -0.316941,-0.122247 -0.475413,-0.183371 z" />
    <path
       style="fill:none;stroke:#000000;stroke-width:0.264583px;stroke-linecap:butt;stroke-linejoin:miter;stroke-opacity:1"
       d="m 90.399461,22.880563 c -0.105988,-0.0027 -0.213065,0.0025 -0.316485,0.02716 -0.07,0.01666 -0.13906,0.04219 -0.19804,0.08417 -0.04601,0.03274 -0.08462,0.07725 -0.105184,0.130388 -0.02127,0.05497 -0.0201,0.11692 -0.0021,0.172662 0.02255,0.06997 0.0684,0.13058 0.123788,0.17807 0.07873,0.0675 0.176967,0.110012 0.278474,0.12898 0.07678,0.01435 0.156005,0.01676 0.233187,0.0053 0.0397,-0.0059 0.07556,-0.02604 0.107974,-0.0487 0.05665,-0.0396 0.106367,-0.0885 0.150457,-0.141523 0.0521,-0.06265 0.09834,-0.131053 0.130271,-0.206201 0.02004,-0.04716 0.03543,-0.09753 0.03533,-0.149207 -6.5e-5,-0.0352 -0.0093,-0.07134 -0.03119,-0.09944 -0.02544,-0.03261 -0.0636,-0.05321 -0.103131,-0.06349 -0.05316,-0.01383 -0.10859,-0.0129 -0.163081,-0.01241 -0.04677,4.23e-4 -0.09386,0.0015 -0.140235,-0.0057 z"
       id="path949"
       inkscape:path-effect="#path-effect951"
       inkscape:original-d="m 90.399461,22.880563 c -1.005718,-0.02698 -0.676828,0.816363 0.0136,0.726699 0.183766,-0.02387 0.559954,-0.502458 0.373531,-0.665577 -0.09831,-0.08603 -0.258077,-0.04075 -0.387117,-0.06112 z" />
  </g>
</svg>
