<?xml version="1.0" encoding="UTF-8" standalone="no"?>
<svg
   xmlns:dc="http://purl.org/dc/elements/1.1/"
   xmlns:cc="http://creativecommons.org/ns#"
   xmlns:rdf="http://www.w3.org/1999/02/22-rdf-syntax-ns#"
   xmlns:svg="http://www.w3.org/2000/svg"
   xmlns="http://www.w3.org/2000/svg"
   xmlns:sodipodi="http://sodipodi.sourceforge.net/DTD/sodipodi-0.dtd"
   xmlns:inkscape="http://www.inkscape.org/namespaces/inkscape"
   width="10cm"
   height="3cm"
   viewBox="0 0 100 29.999999"
   version="1.1"
   id="svg8"
   inkscape:version="1.0 (4035a4fb49, 2020-05-01)"
   sodipodi:docname="b.svg">
  <defs
     id="defs2">
    <inkscape:path-effect
       simplify_just_coalesce="false"
       simplify_individual_paths="false"
       helper_size="0"
       smooth_angles="360"
       threshold="0.000408163"
       steps="1"
       lpeversion="1"
       is_visible="true"
       id="path-effect906"
       effect="simplify" />
    <inkscape:path-effect
       simplify_just_coalesce="false"
       simplify_individual_paths="false"
       helper_size="0"
       smooth_angles="360"
       threshold="0.000408163"
       steps="1"
       lpeversion="1"
       is_visible="true"
       id="path-effect902"
       effect="simplify" />
    <inkscape:path-effect
       simplify_just_coalesce="false"
       simplify_individual_paths="false"
       helper_size="0"
       smooth_angles="360"
       threshold="0.000408163"
       steps="1"
       lpeversion="1"
       is_visible="true"
       id="path-effect898"
       effect="simplify" />
    <inkscape:path-effect
       simplify_just_coalesce="false"
       simplify_individual_paths="false"
       helper_size="0"
       smooth_angles="360"
       threshold="0.000408163"
       steps="1"
       lpeversion="1"
       is_visible="true"
       id="path-effect894"
       effect="simplify" />
    <inkscape:path-effect
       simplify_just_coalesce="false"
       simplify_individual_paths="false"
       helper_size="0"
       smooth_angles="360"
       threshold="0.000408163"
       steps="1"
       lpeversion="1"
       is_visible="true"
       id="path-effect890"
       effect="simplify" />
    <inkscape:path-effect
       simplify_just_coalesce="false"
       simplify_individual_paths="false"
       helper_size="0"
       smooth_angles="360"
       threshold="0.000408163"
       steps="1"
       lpeversion="1"
       is_visible="true"
       id="path-effect886"
       effect="simplify" />
    <inkscape:path-effect
       simplify_just_coalesce="false"
       simplify_individual_paths="false"
       helper_size="0"
       smooth_angles="360"
       threshold="0.000408163"
       steps="1"
       lpeversion="1"
       is_visible="true"
       id="path-effect882"
       effect="simplify" />
    <inkscape:path-effect
       simplify_just_coalesce="false"
       simplify_individual_paths="false"
       helper_size="0"
       smooth_angles="360"
       threshold="0.000408163"
       steps="1"
       lpeversion="1"
       is_visible="true"
       id="path-effect878"
       effect="simplify" />
    <inkscape:path-effect
       simplify_just_coalesce="false"
       simplify_individual_paths="false"
       helper_size="0"
       smooth_angles="360"
       threshold="0.000408163"
       steps="1"
       lpeversion="1"
       is_visible="true"
       id="path-effect874"
       effect="simplify" />
    <inkscape:path-effect
       simplify_just_coalesce="false"
       simplify_individual_paths="false"
       helper_size="0"
       smooth_angles="360"
       threshold="0.000408163"
       steps="1"
       lpeversion="1"
       is_visible="true"
       id="path-effect870"
       effect="simplify" />
    <inkscape:path-effect
       simplify_just_coalesce="false"
       simplify_individual_paths="false"
       helper_size="0"
       smooth_angles="360"
       threshold="0.000408163"
       steps="1"
       lpeversion="1"
       is_visible="true"
       id="path-effect866"
       effect="simplify" />
    <inkscape:path-effect
       simplify_just_coalesce="false"
       simplify_individual_paths="false"
       helper_size="0"
       smooth_angles="360"
       threshold="0.000408163"
       steps="1"
       lpeversion="1"
       is_visible="true"
       id="path-effect862"
       effect="simplify" />
    <inkscape:path-effect
       simplify_just_coalesce="false"
       simplify_individual_paths="false"
       helper_size="0"
       smooth_angles="360"
       threshold="0.000408163"
       steps="1"
       lpeversion="1"
       is_visible="true"
       id="path-effect858"
       effect="simplify" />
    <inkscape:path-effect
       simplify_just_coalesce="false"
       simplify_individual_paths="false"
       helper_size="0"
       smooth_angles="360"
       threshold="0.000408163"
       steps="1"
       lpeversion="1"
       is_visible="true"
       id="path-effect951"
       effect="simplify" />
    <inkscape:path-effect
       simplify_just_coalesce="false"
       simplify_individual_paths="false"
       helper_size="0"
       smooth_angles="360"
       threshold="0.000408163"
       steps="1"
       lpeversion="1"
       is_visible="true"
       id="path-effect947"
       effect="simplify" />
    <inkscape:path-effect
       simplify_just_coalesce="false"
       simplify_individual_paths="false"
       helper_size="0"
       smooth_angles="360"
       threshold="0.000408163"
       steps="1"
       lpeversion="1"
       is_visible="true"
       id="path-effect943"
       effect="simplify" />
    <inkscape:path-effect
       simplify_just_coalesce="false"
       simplify_individual_paths="false"
       helper_size="0"
       smooth_angles="360"
       threshold="0.000408163"
       steps="1"
       lpeversion="1"
       is_visible="true"
       id="path-effect939"
       effect="simplify" />
    <inkscape:path-effect
       simplify_just_coalesce="false"
       simplify_individual_paths="false"
       helper_size="0"
       smooth_angles="360"
       threshold="0.000408163"
       steps="1"
       lpeversion="1"
       is_visible="true"
       id="path-effect935"
       effect="simplify" />
    <inkscape:path-effect
       simplify_just_coalesce="false"
       simplify_individual_paths="false"
       helper_size="0"
       smooth_angles="360"
       threshold="0.000408163"
       steps="1"
       lpeversion="1"
       is_visible="true"
       id="path-effect931"
       effect="simplify" />
    <inkscape:path-effect
       simplify_just_coalesce="false"
       simplify_individual_paths="false"
       helper_size="0"
       smooth_angles="360"
       threshold="0.000408163"
       steps="1"
       lpeversion="1"
       is_visible="true"
       id="path-effect927"
       effect="simplify" />
    <inkscape:path-effect
       simplify_just_coalesce="false"
       simplify_individual_paths="false"
       helper_size="0"
       smooth_angles="360"
       threshold="0.000408163"
       steps="1"
       lpeversion="1"
       is_visible="true"
       id="path-effect923"
       effect="simplify" />
    <inkscape:path-effect
       simplify_just_coalesce="false"
       simplify_individual_paths="false"
       helper_size="0"
       smooth_angles="360"
       threshold="0.000408163"
       steps="1"
       lpeversion="1"
       is_visible="true"
       id="path-effect919"
       effect="simplify" />
    <inkscape:path-effect
       simplify_just_coalesce="false"
       simplify_individual_paths="false"
       helper_size="0"
       smooth_angles="360"
       threshold="0.000408163"
       steps="1"
       lpeversion="1"
       is_visible="true"
       id="path-effect915"
       effect="simplify" />
    <inkscape:path-effect
       simplify_just_coalesce="false"
       simplify_individual_paths="false"
       helper_size="0"
       smooth_angles="360"
       threshold="0.000408163"
       steps="1"
       lpeversion="1"
       is_visible="true"
       id="path-effect911"
       effect="simplify" />
  </defs>
  <sodipodi:namedview
     id="base"
     pagecolor="#ffffff"
     bordercolor="#666666"
     borderopacity="1.0"
     inkscape:pageopacity="0.0"
     inkscape:pageshadow="2"
     inkscape:zoom="3.6797313"
     inkscape:cx="192.94887"
     inkscape:cy="54.637967"
     inkscape:document-units="mm"
     inkscape:current-layer="layer1"
     inkscape:document-rotation="0"
     showgrid="false"
     units="cm"
     inkscape:window-width="1920"
     inkscape:window-height="1051"
     inkscape:window-x="0"
     inkscape:window-y="0"
     inkscape:window-maximized="1" />
  <metadata
     id="metadata5">
    <rdf:RDF>
      <cc:Work
         rdf:about="">
        <dc:format>image/svg+xml</dc:format>
        <dc:type
           rdf:resource="http://purl.org/dc/dcmitype/StillImage" />
        <dc:title />
      </cc:Work>
    </rdf:RDF>
  </metadata>
  <g
     inkscape:label="Layer 1"
     inkscape:groupmode="layer"
     id="layer1">
    <path
       style="fill:none;stroke:#2690a7;stroke-width:0.264583px;stroke-linecap:butt;stroke-linejoin:miter;stroke-opacity:0.474099"
       d="m 0,20.132291 102.10211,0"
       id="path10"
       sodipodi:nodetypes="cc" />
    <path
       id="path12"
       d="m 0,0.1322915 101.24145,0"
       style="fill:none;stroke:#2690a7;stroke-width:0.264583px;stroke-linecap:butt;stroke-linejoin:miter;stroke-opacity:0.474099"
       sodipodi:nodetypes="cc" />
    <path
       id="path14"
       d="m 0,10.132291 101.7922,0"
       style="fill:none;stroke:#2690a7;stroke-width:0.265;stroke-linecap:butt;stroke-linejoin:miter;stroke-miterlimit:4;stroke-dasharray:1.06, 1.06;stroke-dashoffset:0;stroke-opacity:0.474099"
       sodipodi:nodetypes="cc" />
    <path
       inkscape:original-d="m 11.066377,0.56433063 c -0.03752,0.10631101 -0.09509,0.20755702 -0.112562,0.31893303 -0.09542,0.60833054 0.03077,1.27856514 0.05628,1.89482824 0.06875,1.6607218 0.231762,3.3151019 0.290787,4.9762692 0.05961,1.6777084 0.190454,3.3537699 0.215745,5.0325489 0.01576,1.045951 -0.0056,2.091819 -0.0094,3.137725 -0.0034,0.938754 0.01088,1.880438 -0.02345,2.818791 -0.01189,0.324921 -0.05021,0.650017 -0.03752,0.975556 0.0015,0.0383 0.02013,0.150746 0.02345,0.112564 0.03728,-0.428688 -0.140554,-0.871223 -0.06566,-1.299177 0.04131,-0.236027 0.156662,-0.477249 0.201675,-0.712906 0.196357,-1.027995 0.278916,-2.075792 0.43618,-3.109581 0.165006,-1.084681 0.4003,-2.389398 1.130318,-3.264358 0.289252,-0.346682 0.635932,-0.4292 1.055276,-0.497159 0.273856,-0.04438 1.313164,-0.358833 1.646232,-0.192297 0.211752,0.105877 0.384124,0.278776 0.590954,0.393974 0.269268,0.149973 0.527566,0.226214 0.773869,0.417424 1.412344,1.096433 3.094782,5.628631 1.876047,7.23224 -0.543794,0.715522 -1.269008,1.163653 -2.110552,1.411744 -0.251475,0.07414 -0.539435,0.172398 -0.8067,0.112563 -0.466349,-0.104406 -0.888824,-0.404512 -1.331995,-0.5722 -0.718029,-0.27169 -1.237037,-0.333831 -1.866665,-0.872371 -0.273982,-0.234345 -0.403583,-0.71932 -0.558124,-1.022457"
       inkscape:path-effect="#path-effect858"
       id="path856"
       d="m 11.066377,0.56433063 c -0.04205,0.11714467 -0.10042,0.22927163 -0.117902,0.35464738 -0.0605,0.43386989 -0.01923,0.87296609 0.02138,1.30649289 0.02268,0.2420929 0.03679,0.4848183 0.04783,0.7277523 0.07519,1.6540294 0.225569,3.3036127 0.288987,4.9584184 0.06839,1.7845247 0.205842,3.5666874 0.214765,5.3532954 0.0055,1.110426 -0.0153,2.220735 -0.01453,3.331175 5.22e-4,0.753891 0.0097,1.508443 -0.02828,2.261552 -0.01484,0.294318 -0.09491,0.595609 -0.03054,0.883844 0.0061,0.02744 0.01995,0.109945 0.02162,0.09004 0.02765,-0.32994 -0.06309,-0.653244 -0.08201,-0.981001 -0.0091,-0.157504 0.0083,-0.315988 0.05102,-0.468129 0.05837,-0.208032 0.138636,-0.40971 0.178381,-0.623209 0.203083,-1.090892 0.287017,-2.199111 0.462879,-3.294207 0.111422,-0.693828 0.247152,-1.391082 0.518432,-2.042332 0.154149,-0.370059 0.348878,-0.729156 0.618323,-1.027948 0.149489,-0.165771 0.348637,-0.279597 0.560265,-0.347905 0.168941,-0.05453 0.346358,-0.07329 0.519107,-0.111556 0.380141,-0.0842 0.757518,-0.195596 1.147304,-0.221179 0.132266,-0.0087 0.273471,-0.02526 0.397071,0.02776 0.133958,0.05747 0.250965,0.146803 0.366342,0.234315 0.112802,0.08556 0.231477,0.163411 0.35832,0.227038 0.227947,0.114343 0.471554,0.204507 0.67341,0.364272 0.308988,0.244558 0.554291,0.55947 0.769105,0.88692 0.413198,0.629856 0.735047,1.316975 0.986283,2.025909 0.264841,0.747324 0.467696,1.523393 0.524528,2.315937 0.03492,0.486959 0.02117,0.986793 -0.126867,1.455806 -0.07135,0.22605 -0.187425,0.436187 -0.335025,0.622145 -0.350583,0.441693 -0.804339,0.797038 -1.308591,1.04846 -0.268408,0.133829 -0.552516,0.232471 -0.83984,0.317384 -0.209281,0.06185 -0.42857,0.130803 -0.647806,0.0952 -0.171589,-0.02786 -0.336035,-0.08891 -0.494527,-0.158703 -0.333447,-0.146834 -0.648896,-0.332305 -0.991941,-0.458629 -0.415395,-0.152967 -0.850889,-0.258709 -1.242498,-0.470549 -0.205048,-0.11092 -0.406084,-0.236941 -0.57028,-0.402468 -0.159086,-0.160375 -0.253187,-0.370396 -0.340752,-0.575195 -0.05898,-0.137948 -0.112175,-0.278606 -0.179778,-0.4127"
       style="fill:none;stroke:#000000;stroke-width:0.264583px;stroke-linecap:butt;stroke-linejoin:miter;stroke-opacity:1" />
    <path
       inkscape:original-d="M 9.6030607,2.7874724 C 9.473544,3.2922173 9.513949,3.8063733 9.513949,4.3211559 c 0,1.1805483 0.028141,2.3604228 0.028141,3.5410793 0,0.4238546 -0.036833,0.8063537 -0.1266332,1.2194439 -0.026448,0.1216594 0.045684,0.5508287 0.032831,0.4737058 C 9.4059821,9.3015376 8.294381,8.1083091 8.5477857,7.7825009 8.6106737,7.7016439 8.6030547,7.9797824 8.6322067,8.0779812 8.7736725,8.5545045 8.964427,8.8432483 9.227851,9.2692854 9.305925,9.3955554 9.28858,9.5546986 9.3685551,9.677329 9.4452505,9.7949296 9.582356,9.4913565 9.6640326,9.3771594 10.008262,8.8958707 10.167721,8.2025312 10.419141,7.7355998"
       inkscape:path-effect="#path-effect862"
       id="path860"
       d="m 9.6030607,2.7874724 c -0.075715,0.293873 -0.093979,0.5988242 -0.094991,0.901182 -7.987e-4,0.2385228 0.00569,0.4769758 0.00592,0.7155077 0.00117,1.1692462 0.033822,2.3383165 0.027926,3.5075585 -0.00177,0.3504049 -0.045462,0.6987939 -0.1007248,1.0449663 -0.0089,0.05578 -0.028716,0.1100708 -0.030729,0.1666465 -0.00352,0.098924 0.00744,0.19766 0.019403,0.2956899 0.00591,0.048457 0.027489,0.1933058 0.019877,0.1450877 -0.0083,-0.05256 -0.035686,-0.099557 -0.062692,-0.1444234 C 9.3050883,9.2835152 9.2107628,9.1553501 9.1187315,9.0259363 8.9625893,8.8063702 8.8019714,8.5886942 8.6714674,8.352594 8.6115481,8.2441915 8.5525599,8.1327496 8.5240921,8.0115342 8.5090998,7.9476973 8.492168,7.8728073 8.5279538,7.8155315 c 0.010393,-0.016634 0.032567,-0.066965 0.048477,-0.044202 0.024035,0.034387 0.024532,0.079237 0.029645,0.119572 0.00911,0.071861 0.013316,0.144832 0.034477,0.2147889 0.065236,0.2156733 0.1547618,0.4235757 0.2623528,0.6215002 0.1028753,0.1892495 0.2260156,0.3666391 0.3319917,0.5540272 0.065299,0.1154626 0.067227,0.2513337 0.1197564,0.3727075 0.012439,0.028741 0.041001,0.06352 0.076292,0.044545 0.040788,-0.02193 0.068063,-0.061567 0.093623,-0.098773 C 9.5807252,9.5179519 9.6278564,9.4306111 9.6839929,9.3487195 9.8369605,9.1255712 9.9461528,8.8763751 10.046638,8.6262464 10.149235,8.370861 10.238413,8.1097501 10.356184,7.8607185 c 0.01996,-0.04221 0.04082,-0.084004 0.06296,-0.1251187"
       style="fill:none;stroke:#ff0000;stroke-width:0.264583px;stroke-linecap:butt;stroke-linejoin:miter;stroke-opacity:1" />
    <path
       inkscape:original-d="m 13.125338,15.427476 c -0.129595,-0.884072 0.214939,-2.045368 1.027136,-2.53269 0.803556,-0.482137 1.828235,0.259119 2.288776,0.909894 0.273612,0.386631 0.394273,0.83326 0.567504,1.266345 0.208563,0.521417 0.373546,1.291435 0.201676,1.843235 -0.06715,0.215574 -0.195829,0.389171 -0.290789,0.590961 -0.112728,0.239548 -0.18973,0.655652 -0.440871,0.792639 -0.310174,0.169188 -1.036776,0.08831 -1.313232,-0.07504 -0.162221,-0.09586 -0.179309,-0.350798 -0.262645,-0.501846 -0.05726,-0.103783 -0.206592,0.0076 -0.281409,-0.05159 -0.06719,-0.0532 -0.276082,-0.201985 -0.201673,-0.159464 0.481184,0.274971 0.902522,-0.09701 1.346061,-0.27672 0.104586,-0.04238 0.317043,-0.172686 0.332999,-0.06097 0.0092,0.06465 -0.339613,0.0365 -0.736349,0.09849 -0.376802,0.05888 -0.727985,0.251852 -1.097486,0.342381 -0.162561,0.03983 -0.664028,0.08319 -0.497152,0.07035 0.404689,-0.03112 0.660402,0.767635 0.736348,1.036527 0.03692,0.130711 -0.06665,0.444852 0,0.178225"
       inkscape:path-effect="#path-effect866"
       id="path864"
       d="m 13.125338,15.427476 c -0.04973,-0.345316 -0.02879,-0.699379 0.0487,-1.038901 0.08232,-0.360728 0.228117,-0.710464 0.450326,-1.007807 0.154718,-0.207032 0.347445,-0.389301 0.575442,-0.512842 0.174826,-0.09473 0.376204,-0.135953 0.574391,-0.126401 0.253123,0.0122 0.497776,0.09809 0.718848,0.218471 0.273529,0.148941 0.518616,0.347659 0.729684,0.576048 0.137902,0.149219 0.259637,0.313733 0.357652,0.491959 0.157964,0.287235 0.260255,0.599841 0.375076,0.905626 0.04218,0.112324 0.08854,0.223065 0.126627,0.336924 0.09769,0.292043 0.167553,0.594742 0.191311,0.902096 0.01779,0.230175 0.0097,0.464593 -0.04783,0.689255 -0.03618,0.141187 -0.104086,0.271243 -0.174888,0.397711 -0.06472,0.11561 -0.129698,0.231645 -0.177057,0.355873 -0.06341,0.166321 -0.113939,0.339687 -0.207854,0.492311 -0.05266,0.08559 -0.123944,0.163645 -0.217268,0.205195 -0.111868,0.04981 -0.234735,0.06855 -0.356071,0.07533 -0.191928,0.01073 -0.385475,-0.0038 -0.573335,-0.0439 -0.117082,-0.02501 -0.233205,-0.0591 -0.340269,-0.114007 -0.07405,-0.03798 -0.120596,-0.111479 -0.153306,-0.185556 -0.04669,-0.105742 -0.07182,-0.219573 -0.122624,-0.323886 -0.02325,-0.04773 -0.08251,-0.04856 -0.12908,-0.0432 -0.04534,0.0052 -0.09729,0.02675 -0.137468,8.03e-4 -0.03506,-0.02264 -0.06763,-0.04922 -0.101049,-0.07434 -0.04176,-0.03139 -0.08435,-0.06174 -0.124813,-0.09482 0,0 -0.0061,-0.007 -0.0061,-0.007 0.03482,0.01741 0.069,0.03643 0.104995,0.05172 0.116952,0.04967 0.247365,0.06411 0.372974,0.04647 0.166845,-0.02344 0.322283,-0.0936 0.471729,-0.168171 0.141407,-0.07056 0.282165,-0.142391 0.427204,-0.205701 0.07505,-0.03276 0.14819,-0.07034 0.227105,-0.09426 0.03439,-0.01043 0.09908,-0.0049 0.09051,0.03979 -0.0063,0.03306 -0.05148,0.03441 -0.07835,0.03783 -0.105338,0.01342 -0.211652,0.01601 -0.317472,0.02393 -0.179007,0.01339 -0.358728,0.0316 -0.532765,0.07778 -0.313213,0.08311 -0.603518,0.240351 -0.921447,0.305081 -0.121336,0.0247 -0.244617,0.03804 -0.367491,0.0525 -0.04886,0.0057 -0.195589,0.02155 -0.146676,0.01641 0.05389,-0.0057 0.109154,-0.0035 0.160619,0.0155 0.10032,0.03709 0.179262,0.114482 0.242842,0.19801 0.101075,0.132787 0.174656,0.284189 0.236594,0.438432 0.05096,0.126914 0.103624,0.254601 0.131139,0.388551 0.01355,0.06598 0.0069,0.134564 -0.0066,0.199732 -0.0052,0.0252 -0.02194,0.100777 -0.01797,0.07525 0.0054,-0.03477 0.01472,-0.06883 0.02293,-0.103017"
       style="fill:none;stroke:#ff0000;stroke-width:0.264583px;stroke-linecap:butt;stroke-linejoin:miter;stroke-opacity:1" />
    <path
       inkscape:original-d="m 61.630517,0.83167124 c 0.09557,1.87809096 0.600728,3.69077196 0.745725,5.56722976 0.137491,1.7792999 -0.0292,3.5155134 -0.08911,5.290511 -0.04292,1.271562 -0.0067,2.5235 0.04221,3.794348 0.01884,0.490085 0.07471,1.020078 0.0047,1.510233 -0.06697,0.468803 -0.171563,0.815049 -0.103179,1.266345 0.0428,0.282467 -0.05606,0.590394 -0.159464,0.848922 -0.03235,0.08087 -0.112694,0.328917 -0.0938,0.243888 0.204412,-0.920096 1.162627,-0.03439 1.519594,0.145395 0.359387,0.181006 0.745567,0.303991 1.125628,0.436187 0.580289,0.201842 1.243264,0.284076 1.847905,0.145395 1.950834,-0.447447 4.390544,-2.23196 4.690118,-4.329029 0.06769,-0.473813 -0.0109,-0.94579 -0.06097,-1.416431 -0.209415,-1.96864 -0.694277,-3.424792 -2.551422,-4.3712341 -0.43905,-0.2237497 -0.942036,-0.3305882 -1.430488,-0.2391987 -0.967454,0.1810112 -1.678676,0.8285898 -2.288776,1.5524448 -0.377571,0.447971 -0.780192,0.835788 -1.078727,1.350768 -0.08829,0.152298 -0.797277,2.002705 -0.647234,2.002705 0.01916,0 0.01733,-0.06012 -0.0047,-0.1923"
       inkscape:path-effect="#path-effect870"
       id="path868"
       d="m 61.630517,0.83167124 c 0.06825,1.34602466 0.346948,2.66787416 0.555041,3.99622896 0.112811,0.7201261 0.195629,1.4454886 0.226296,2.174145 0.06958,1.6532807 -0.09111,3.3036138 -0.132625,4.9553088 -0.03057,1.216113 -0.002,2.433022 0.05541,3.647774 0.02156,0.456482 0.06315,0.916405 0.0018,1.371617 -0.04834,0.358723 -0.135458,0.713972 -0.125778,1.078874 0.0025,0.09334 0.02246,0.185093 0.02817,0.278059 0.0154,0.250394 -0.05362,0.497757 -0.148145,0.726547 -0.04099,0.0992 -0.04772,0.215417 -0.110966,0.302059 -0.01206,0.01652 0.005,-0.03958 0.008,-0.05095 0.03356,-0.12833 0.09568,-0.263928 0.218044,-0.329057 0.117771,-0.06269 0.259384,-0.04426 0.380814,-0.0036 0.233361,0.07819 0.439494,0.217073 0.642735,0.352425 0.113714,0.07573 0.228512,0.150228 0.352578,0.208808 0.360081,0.17002 0.738059,0.297642 1.116172,0.420142 0.490579,0.158937 1.015753,0.232856 1.528987,0.16385 0.274385,-0.03689 0.542006,-0.114079 0.803064,-0.204058 0.784494,-0.270393 1.520275,-0.679333 2.170751,-1.193283 0.60369,-0.476983 1.146242,-1.047153 1.522046,-1.722296 0.24471,-0.439629 0.421095,-0.926566 0.456793,-1.43079 0.03101,-0.438045 -0.03867,-0.873889 -0.08731,-1.307835 C 71.01193,13.547829 70.89003,12.826423 70.620203,12.152643 70.412917,11.635033 70.102566,11.157336 69.701146,10.768876 69.339197,10.418613 68.915778,10.132767 68.460162,9.9204262 68.071136,9.7391194 67.631296,9.6468731 67.203959,9.710193 c -0.488634,0.072402 -0.948495,0.2852851 -1.34678,0.573854 -0.411572,0.298196 -0.755637,0.676387 -1.085688,1.060435 -0.332193,0.38654 -0.68504,0.758179 -0.963866,1.187849 -0.04372,0.06738 -0.08053,0.138679 -0.111394,0.212905 -0.159003,0.382379 -0.307314,0.769568 -0.43534,1.163355 -0.06422,0.197527 -0.159262,0.39176 -0.170724,0.599568 -0.0021,0.03878 -0.01509,0.157348 0.01306,0.121991 0.02837,-0.03563 0.01028,-0.09266 0.0041,-0.135573 -0.0027,-0.01895 -0.0057,-0.03785 -0.0088,-0.05673"
       style="fill:none;stroke:#000000;stroke-width:0.264583px;stroke-linecap:butt;stroke-linejoin:miter;stroke-opacity:1" />
    <path
       inkscape:original-d="m 60.387634,2.99384 c -0.193733,1.0412503 0.02685,2.204098 0.234506,3.2268356 0.107061,0.5272844 0.295547,0.9960953 0.342381,1.5383748 0.04307,0.4987411 -0.04406,0.9705339 -0.09849,1.4633318 -0.02619,0.2371569 -0.133813,0.6432333 -0.06566,0.8817518 0.0048,0.01686 0.03035,0.06221 0.0047,0.07504 -0.105278,0.05265 -0.626057,-1.0255751 -0.680067,-1.1444011 -0.04534,-0.099752 -0.142256,-0.6282092 -0.126635,-0.3470727 0.007,0.1263787 0.113552,0.3390696 0.154774,0.4033544 0.164422,0.2564098 0.352099,0.4972277 0.534672,0.7410465 0.511855,0.6835619 0.402371,0.4035259 0.726969,-0.2485771 0.247497,-0.49721 0.549736,-1.0502706 0.952096,-1.4258115"
       inkscape:path-effect="#path-effect874"
       id="path872"
       d="m 60.387634,2.99384 c -0.0887,0.4786546 -0.08995,0.9694157 -0.04899,1.4531375 0.05182,0.6120095 0.165559,1.2166578 0.292458,1.8168234 0.09014,0.4263322 0.236492,0.8394349 0.30588,1.270467 0.03435,0.2133606 0.04443,0.4301304 0.0364,0.645978 -0.01328,0.357041 -0.0628,0.7111963 -0.110037,1.0648544 -0.02848,0.2131917 -0.0814,0.4239807 -0.0849,0.6398034 -0.0012,0.076046 -0.0018,0.1548623 0.02455,0.2267693 0.0077,0.02107 0.02876,0.07491 -0.0032,0.06915 -0.04751,-0.0086 -0.07657,-0.05565 -0.102954,-0.09202 C 60.615814,9.9770354 60.547329,9.8567761 60.481058,9.7358759 60.359079,9.513346 60.248547,9.2848134 60.135585,9.0575917 c -0.02836,-0.057048 -0.04154,-0.1199024 -0.05743,-0.1811695 -0.02142,-0.082594 -0.06057,-0.1624349 -0.06462,-0.2477151 -4.66e-4,-0.00983 -0.01485,-0.034144 -0.01608,-0.010902 -0.003,0.057264 0.0035,0.1149377 0.02011,0.1699569 0.02957,0.098184 0.06851,0.1943783 0.122389,0.2814928 0.06579,0.1063825 0.137391,0.209108 0.210641,0.3104586 0.128709,0.1780839 0.259784,0.3544851 0.394413,0.5281168 0.06775,0.08738 0.131463,0.1796237 0.213891,0.2537197 0.03287,0.02955 0.06913,0.06815 0.115858,0.06621 0.04781,-0.002 0.07592,-0.04786 0.09543,-0.08563 0.045,-0.08714 0.07855,-0.179506 0.115217,-0.2703055 0.05092,-0.1260742 0.109129,-0.2490171 0.170476,-0.3703369 0.170716,-0.3376051 0.353214,-0.671575 0.581995,-0.9738682 0.09967,-0.1316948 0.2082,-0.2570935 0.328997,-0.3699069"
       style="fill:none;stroke:#ff0000;stroke-width:0.264583px;stroke-linecap:butt;stroke-linejoin:miter;stroke-opacity:1" />
    <path
       inkscape:original-d="m 63.839563,18.438563 c 1.083222,0.587801 2.211988,-7.41e-4 3.245556,-0.422113 0.539295,-0.21987 1.005121,-0.350066 1.430488,-0.787948 0.357098,-0.367605 0.748271,-1.598384 0.680062,-2.124646 -0.121018,-0.933694 -0.343355,-1.016764 -0.778555,-1.725981 -0.351671,-0.573091 -0.82513,-1.052183 -1.57588,-0.989626 -0.527616,0.04396 -1.504394,1.337335 -1.880735,1.69315 -0.05222,0.04937 -0.319114,0.196245 -0.32362,0.178225 -0.09681,-0.387214 0.146302,-1.014026 0.229817,-1.402361 0.02418,-0.1124 0.0799,-0.421759 0.131326,-0.318933 0.06943,0.13881 -0.852357,1.956236 -0.609719,2.223144 0.336074,0.36969 1.785443,-0.631206 1.89012,-0.605034 0.04409,0.01102 -0.04065,0.0813 -0.06098,0.121946"
       inkscape:path-effect="#path-effect878"
       id="path876"
       d="m 63.839563,18.438563 c 0.259147,0.141802 0.549719,0.224056 0.844474,0.243085 0.356285,0.023 0.71233,-0.0422 1.05271,-0.143518 0.535536,-0.159406 1.039993,-0.402781 1.559437,-0.60547 0.278009,-0.10848 0.559481,-0.215218 0.813097,-0.375001 0.156462,-0.09857 0.305283,-0.212611 0.427285,-0.351672 0.0979,-0.111583 0.172223,-0.241603 0.237481,-0.374191 0.12645,-0.256917 0.224745,-0.527327 0.29972,-0.803433 0.06055,-0.222979 0.110136,-0.45028 0.125926,-0.681216 0.0065,-0.09547 0.0034,-0.191487 -0.0098,-0.286441 -0.03667,-0.263655 -0.08887,-0.52878 -0.199387,-0.772644 -0.09847,-0.217273 -0.242028,-0.409187 -0.375917,-0.605159 -0.08019,-0.117372 -0.154596,-0.238514 -0.230835,-0.358466 -0.150091,-0.236149 -0.32545,-0.460467 -0.545819,-0.635286 -0.173246,-0.137436 -0.377381,-0.237689 -0.595022,-0.28043 -0.138162,-0.02713 -0.281237,-0.03905 -0.42044,-0.01841 -0.110247,0.01634 -0.211006,0.0698 -0.303104,0.129974 -0.178803,0.116823 -0.337835,0.260959 -0.490074,0.40995 -0.310736,0.304108 -0.589468,0.638428 -0.883479,0.958244 -0.062,0.06745 -0.118495,0.14155 -0.190856,0.197831 -0.06039,0.04697 -0.126548,0.08641 -0.194747,0.120658 -0.03901,0.01959 -0.101721,0.09431 -0.11956,0.05417 -0.01846,-0.04154 -0.02178,-0.09433 -0.02434,-0.141631 -0.009,-0.166698 0.01822,-0.332868 0.05313,-0.495287 0.05077,-0.236247 0.124179,-0.466745 0.18218,-0.70118 0.02907,-0.117494 0.03217,-0.244093 0.08628,-0.35283 0.0096,-0.01933 0.02487,-0.06951 0.04555,-0.05043 0.03569,0.03294 0.01417,0.08632 0.0031,0.125657 -0.0379,0.13491 -0.08961,0.265427 -0.14019,0.395941 -0.140286,0.361954 -0.293146,0.720021 -0.403691,1.092491 -0.04121,0.138843 -0.08442,0.279369 -0.09315,0.424461 -0.0037,0.06096 -0.0094,0.128422 0.02357,0.181867 0.03213,0.05215 0.091,0.08219 0.149442,0.09402 0.104443,0.02115 0.212396,0.0045 0.314305,-0.02113 0.202747,-0.051 0.395204,-0.135356 0.583256,-0.225303 0.233012,-0.111452 0.455548,-0.243222 0.685868,-0.35987 0.04877,-0.0247 0.102631,-0.03947 0.149087,-0.06862 0.01561,-0.0098 0.04461,-6.9e-4 0.03282,0.02214 -0.01846,0.03575 -0.05117,0.06174 -0.07047,0.09697"
       style="fill:none;stroke:#ff0000;stroke-width:0.264583px;stroke-linecap:butt;stroke-linejoin:miter;stroke-opacity:1" />
    <path
       inkscape:original-d="m 62.601368,28.681894 c 0.06254,-0.157903 0.0901,-0.334653 0.187606,-0.47371 0.571005,-0.814316 3.312673,-1.530199 4.164825,-1.322623 0.270936,0.066 0.537464,0.152082 0.797316,0.253264 0.666359,0.259472 1.122101,1.027467 1.3789,1.641563 0.01386,0.03313 0.0663,0.306572 0.08442,0.328311 0.0016,0.0019 0.01558,-0.05698 0.07504,-0.30017"
       inkscape:path-effect="#path-effect882"
       id="path880"
       d="m 62.601368,28.681894 c 0.05786,-0.145807 0.08209,-0.306012 0.165984,-0.440455 0.07265,-0.116424 0.173986,-0.212166 0.281573,-0.29584 0.208448,-0.162116 0.442047,-0.28887 0.681274,-0.398978 0.404965,-0.186392 0.828309,-0.33121 1.258786,-0.445756 0.391944,-0.104293 0.79026,-0.189683 1.194191,-0.2294 0.208003,-0.02045 0.418168,-0.03102 0.626717,-0.01049 0.105123,0.01035 0.207004,0.03927 0.308443,0.06725 0.225152,0.06211 0.448314,0.1332 0.66386,0.223134 0.242438,0.101154 0.452729,0.267484 0.630334,0.458974 0.223683,0.24117 0.402556,0.520662 0.551976,0.812762 0.05979,0.116885 0.127281,0.231698 0.165509,0.357294 0.01752,0.05757 0.02809,0.117012 0.04222,0.175473 0.01181,0.04887 0.02131,0.09856 0.03842,0.145932 0,0 0.0038,0.0069 0.0038,0.0069 0.01399,-0.04456 0.02382,-0.09053 0.03493,-0.135968 0.01338,-0.05473 0.02673,-0.109471 0.04011,-0.164202"
       style="fill:none;stroke:#000000;stroke-width:0.264583px;stroke-linecap:butt;stroke-linejoin:miter;stroke-opacity:1" />
    <path
       inkscape:original-d="m 64.449274,23.452355 c -0.379378,-0.11741 -0.473702,-0.01419 -0.473702,0.361142 0,0.700342 1.147397,0.429177 1.388274,-0.150085 0.248766,-0.598237 -0.907291,-0.871966 -1.130316,-0.473706"
       inkscape:path-effect="#path-effect886"
       id="path884"
       d="m 64.449274,23.452355 c -0.07044,-0.02145 -0.142365,-0.0411 -0.216181,-0.04523 -0.04825,-0.0027 -0.09885,0.002 -0.141697,0.02631 -0.04355,0.02471 -0.07073,0.06987 -0.08589,0.116376 -0.01982,0.06077 -0.02628,0.124989 -0.02847,0.188526 -0.002,0.05816 -0.0032,0.116837 0.0071,0.174418 0.01243,0.06926 0.04259,0.135995 0.09062,0.18801 0.05108,0.05533 0.120342,0.0912 0.192612,0.11016 0.09435,0.02475 0.193724,0.02478 0.289739,0.01081 0.137435,-0.02 0.270593,-0.06665 0.39215,-0.133421 0.1175,-0.06454 0.226166,-0.147922 0.310492,-0.252689 0.05135,-0.0638 0.09414,-0.135517 0.119263,-0.213746 0.02146,-0.06684 0.02616,-0.139627 0.0089,-0.208066 -0.01867,-0.0742 -0.06257,-0.14009 -0.117339,-0.192696 -0.07068,-0.06789 -0.157591,-0.117077 -0.248734,-0.151815 -0.113685,-0.04333 -0.235212,-0.06697 -0.356906,-0.0669 -0.08905,5.2e-5 -0.179391,0.01207 -0.262136,0.04623 -0.06074,0.02508 -0.117368,0.064 -0.155231,0.1185 -0.0051,0.0073 -0.0098,0.01482 -0.01412,0.02257"
       style="fill:none;stroke:#000000;stroke-width:0.264583px;stroke-linecap:butt;stroke-linejoin:miter;stroke-opacity:1" />
    <path
       inkscape:original-d="m 68.313931,23.940131 c -0.125071,-0.128197 -0.212164,-0.310479 -0.37521,-0.384591 -0.427265,-0.194211 -1.425919,1.357275 -0.02344,0.961482 0.113557,-0.03205 0.23309,-0.09054 0.300168,-0.187605 0.0761,-0.110116 0.07916,-0.256838 0.09849,-0.389286 0.08032,-0.550355 -0.0058,-0.618021 -0.450252,-0.3799"
       inkscape:path-effect="#path-effect890"
       id="path888"
       d="m 68.313931,23.940131 c -0.08951,-0.092 -0.154779,-0.204772 -0.247098,-0.29423 -0.04023,-0.03899 -0.08571,-0.07428 -0.138229,-0.09459 -0.0448,-0.01733 -0.09483,-0.01537 -0.140653,-0.0033 -0.0659,0.01738 -0.126082,0.05178 -0.180533,0.09202 -0.0853,0.06305 -0.159654,0.140235 -0.223312,0.224841 -0.06361,0.08454 -0.118711,0.176565 -0.154555,0.276358 -0.02303,0.06412 -0.03898,0.132128 -0.03555,0.200657 0.0025,0.04947 0.01768,0.09919 0.04862,0.138522 0.03286,0.04179 0.0815,0.06836 0.131969,0.08277 0.07087,0.02023 0.145682,0.02182 0.218666,0.01604 0.112946,-0.0089 0.224325,-0.03295 0.332685,-0.06528 0.07604,-0.02269 0.150148,-0.05541 0.213036,-0.104455 0.04228,-0.03298 0.07778,-0.07484 0.101758,-0.122977 0.03308,-0.0664 0.04672,-0.140252 0.05627,-0.213185 0.0069,-0.05287 0.01331,-0.105801 0.02057,-0.158636 0.01185,-0.08623 0.02336,-0.172906 0.02317,-0.260056 -1.03e-4,-0.04679 -0.0034,-0.09413 -0.01678,-0.139343 -0.01152,-0.03898 -0.04173,-0.07377 -0.08315,-0.08201 -0.04061,-0.0081 -0.08229,3.83e-4 -0.1212,0.01219 -0.06803,0.02064 -0.132536,0.05116 -0.195766,0.08331 -0.02017,0.01026 -0.04021,0.02077 -0.06016,0.03145"
       style="fill:none;stroke:#000000;stroke-width:0.264583px;stroke-linecap:butt;stroke-linejoin:miter;stroke-opacity:1" />
    <path
       inkscape:original-d="m 72.849271,12.078694 c 1.239996,-0.03626 2.507747,-0.12035 3.747402,0.0094 0.138097,0.01445 0.510913,0.154462 0.412731,0.05628 -0.163546,-0.163545 -0.755927,-0.556304 -0.914569,-0.58627 -0.310904,-0.05873 -0.735028,0.01205 -1.0459,-0.08442 -0.01283,-0.004 0.01945,-0.02227 0.03283,-0.02345 0.09501,-0.0084 0.191186,-0.01413 0.286094,-0.0047 0.572844,0.05695 1.424686,0.212851 1.857285,0.637861 0.750425,0.737262 -1.016696,1.225382 -1.153766,1.801026"
       inkscape:path-effect="#path-effect894"
       id="path892"
       d="m 72.849271,12.078694 c 0.947193,-0.02776 1.894754,-0.08301 2.842565,-0.05096 0.306714,0.01037 0.615561,0.01243 0.91845,0.06207 0.08412,0.01379 0.165427,0.04034 0.248193,0.06017 0.04857,0.01164 0.09836,0.0175 0.147276,0.02906 0.01066,0.0025 0.02621,-0.007 0.01671,-0.01895 -0.02638,-0.03321 -0.06003,-0.06 -0.09281,-0.08662 -0.12363,-0.100421 -0.254256,-0.19201 -0.388205,-0.278033 -0.109417,-0.07027 -0.219568,-0.140433 -0.33732,-0.195889 -0.04192,-0.01974 -0.08513,-0.03787 -0.131341,-0.04535 -0.154138,-0.02494 -0.310839,-0.02237 -0.466471,-0.02386 -0.161285,-0.0016 -0.324344,-0.0021 -0.482559,-0.03695 -0.02519,-0.0056 -0.06165,0.0025 -0.07483,-0.01969 -0.0066,-0.01109 0.01237,-0.01829 0.02025,-0.01985 0.05379,-0.01065 0.109757,-0.01099 0.164623,-0.01285 0.06771,-0.0023 0.135202,0.0043 0.202416,0.01169 0.313573,0.03472 0.6262,0.08781 0.928729,0.178456 0.216869,0.06498 0.430731,0.147204 0.622947,0.268073 0.114038,0.07171 0.222147,0.155923 0.307235,0.261044 0.06157,0.07607 0.108471,0.168137 0.114383,0.267391 0.0057,0.0963 -0.03019,0.190308 -0.08227,0.269799 -0.07445,0.113652 -0.175015,0.207229 -0.279148,0.293182 -0.219174,0.18091 -0.463537,0.328881 -0.680781,0.51211 -0.08927,0.07529 -0.177459,0.15539 -0.240183,0.254833 -0.02472,0.03918 -0.04499,0.08164 -0.05576,0.126862"
       style="fill:none;stroke:#ff6161;stroke-width:0.264583px;stroke-linecap:butt;stroke-linejoin:miter;stroke-opacity:1" />
    <path
       inkscape:original-d="m 85.939388,1.0849398 c -0.168844,0.043775 -0.34921,0.055999 -0.506531,0.1313246 -0.605047,0.2896912 -1.05668,1.2466288 -1.383589,1.7635035 -0.515948,0.8157649 -1.117229,1.5983582 -1.472692,2.5045503 -0.199009,0.5073346 -0.30399,1.0390248 -0.483089,1.5524469 -0.19045,0.5459627 -0.421833,1.0775024 -0.600334,1.6274875 -0.220113,0.6781943 -0.281583,1.3916124 -0.4268,2.0871264 -0.169312,0.810914 -0.434022,1.744164 -0.487767,2.584282 -0.07712,1.205509 0.06522,2.415387 0.365823,3.578599 0.318646,1.233038 0.462492,1.927451 1.392971,2.875072 0.141327,0.14393 0.379986,0.341555 0.576881,0.412735 0.167836,0.06067 0.830647,0.265347 1.106869,0.225131 1.439508,-0.209585 2.790089,-1.461394 3.658288,-2.560834 0.969952,-1.2283 2.0691,-2.761129 1.941711,-4.408757 -0.03016,-0.390128 -0.236927,-0.776635 -0.412732,-1.116264 -0.907555,-1.753256 -2.08765,-1.789273 -3.949075,-1.833855 -0.650529,-0.01558 -1.41196,-0.08166 -2.040202,0.126636 -0.878703,0.291337 -1.222074,1.23835 -1.660306,1.969873 -0.260358,0.434607 -0.402775,0.8749 -0.44087,0.703524"
       inkscape:path-effect="#path-effect898"
       id="path896"
       d="m 85.939388,1.0849398 c -0.18617,0.047789 -0.384399,0.061439 -0.55582,0.1565624 -0.241886,0.1342258 -0.431535,0.3433457 -0.596964,0.5612188 -0.273306,0.3599483 -0.478087,0.764665 -0.718038,1.1462659 -0.445792,0.7089555 -0.949375,1.384604 -1.318532,2.1394499 -0.13882,0.283857 -0.248715,0.5809185 -0.339447,0.8834177 -0.119362,0.3979525 -0.221545,0.8012242 -0.362441,1.1926222 -0.194658,0.540745 -0.428793,1.067775 -0.5921,1.6193418 -0.202409,0.6836331 -0.265602,1.3969385 -0.416185,2.0920165 -0.160494,0.740827 -0.36714,1.475134 -0.441903,2.231289 -0.03951,0.399623 -0.04715,0.802062 -0.0351,1.203257 0.02771,0.923116 0.181507,1.839036 0.414552,2.731963 0.137024,0.525016 0.263645,1.057769 0.495071,1.55143 0.203649,0.43441 0.500177,0.818645 0.832509,1.162346 0.146803,0.151825 0.309276,0.291915 0.49503,0.39376 0.113348,0.06215 0.239122,0.0962 0.36257,0.131505 0.224945,0.06434 0.453184,0.121018 0.686328,0.146821 0.09145,0.01012 0.183014,-0.0011 0.273276,-0.01745 0.600314,-0.108762 1.158873,-0.383384 1.658947,-0.725896 0.64339,-0.440673 1.211802,-0.985328 1.708124,-1.584741 0.252906,-0.305437 0.49594,-0.619154 0.729059,-0.939902 0.454489,-0.625332 0.872371,-1.287462 1.141284,-2.015691 0.204514,-0.553833 0.328943,-1.152703 0.256137,-1.741755 -0.03989,-0.322737 -0.183058,-0.619967 -0.327692,-0.907233 -0.148086,-0.294121 -0.311939,-0.581563 -0.514858,-0.842028 -0.255508,-0.327967 -0.583091,-0.60205 -0.961061,-0.778532 -0.46273,-0.216058 -0.975841,-0.289731 -1.480674,-0.32559 -0.506084,-0.03595 -1.013517,-0.04093 -1.520471,-0.05623 -0.448098,-0.01353 -0.901883,-0.02027 -1.342799,0.0734 -0.223377,0.04745 -0.441241,0.127794 -0.632654,0.254424 -0.311908,0.206344 -0.543123,0.510074 -0.736409,0.825339 -0.204013,0.332762 -0.379669,0.681542 -0.57615,1.018771 -0.110585,0.189802 -0.183868,0.400273 -0.303088,0.584532 -0.02184,0.03376 -0.03409,0.09795 -0.07639,0.09579 -0.01818,-9.28e-4 -0.02154,-0.02425 -0.02555,-0.03789"
       style="fill:none;stroke:#728eff;stroke-width:0.264583px;stroke-linecap:butt;stroke-linejoin:miter;stroke-opacity:1" />
    <path
       inkscape:original-d="m 83.467701,2.2105817 c -0.932762,1.2527726 -1.877354,2.5143228 -2.565501,3.9162895 -0.219503,0.447198 -0.502396,0.8689774 -0.689448,1.3320096 -0.28997,0.7177892 -0.335735,1.4928535 -0.614405,2.2043784 -0.193302,0.4935528 -0.379923,0.9616228 -0.45494,1.4867828 -0.01797,0.125765 -0.0406,0.288501 -0.06097,0.412737 -0.0046,0.02815 -0.01408,0.112953 -0.01408,0.08442 0,-0.300518 -0.0072,-0.48463 -0.117256,-0.802022 -0.02925,-0.08436 -0.172511,-0.277337 -0.225126,-0.365831 -0.07869,-0.132349 -0.04988,-0.353256 -0.187605,-0.422116 -0.16633,-0.083166 0.04045,0.369895 0.07035,0.55344 0.05623,0.345172 0.132231,0.895945 0.286102,0.867682 0.420293,-0.0772 1.912458,-1.5201378 2.560804,-1.8526163"
       inkscape:path-effect="#path-effect902"
       id="path900"
       d="m 83.467701,2.2105817 c -0.718176,0.9647072 -1.439674,1.9308714 -2.052132,2.9677245 -0.193792,0.3280777 -0.370311,0.6659107 -0.542003,1.0060761 -0.214749,0.4254734 -0.478645,0.8263609 -0.658618,1.2690742 -0.17005,0.4183049 -0.257914,0.8629574 -0.356364,1.3018509 -0.07299,0.3253864 -0.158592,0.6488248 -0.280595,0.9599153 -0.157191,0.4008163 -0.312868,0.8051453 -0.399032,1.2284033 -0.03501,0.171983 -0.0535,0.346697 -0.08093,0.519936 -0.0098,0.06208 -0.02251,0.249037 -0.02812,0.186442 -0.0036,-0.04032 -0.0019,-0.08235 -0.0022,-0.123374 -0.0013,-0.160317 -0.01461,-0.321432 -0.0549,-0.477036 -0.01978,-0.07641 -0.03564,-0.155237 -0.07051,-0.226076 -0.04651,-0.09451 -0.108748,-0.180053 -0.166983,-0.267475 -0.03325,-0.04991 -0.0658,-0.10084 -0.08403,-0.158897 -0.02805,-0.08934 -0.03176,-0.187612 -0.07995,-0.26954 -0.02272,-0.03862 -0.05963,-0.08694 -0.105336,-0.08043 -0.04629,0.0066 -0.03256,0.06851 -0.0263,0.100227 0.02579,0.130754 0.07444,0.2554 0.110639,0.383382 0.02346,0.08293 0.03213,0.16899 0.04646,0.253754 0.02891,0.170988 0.05159,0.344895 0.10994,0.508644 0.02085,0.05852 0.04457,0.118252 0.08768,0.164926 0.03099,0.03355 0.07803,0.01898 0.114502,0.0051 0.114584,-0.0436 0.21832,-0.110931 0.31869,-0.18019 0.268454,-0.185243 0.521317,-0.391753 0.774741,-0.596721 0.338543,-0.273812 0.67043,-0.556713 1.024279,-0.8107611 0.12517,-0.089866 0.252164,-0.1784614 0.389048,-0.2497932"
       style="fill:none;stroke:#ff0000;stroke-width:0.264583px;stroke-linecap:butt;stroke-linejoin:miter;stroke-opacity:1" />
    <path
       inkscape:original-d="m 82.642238,17.345757 c -0.112294,1.13259 0.629272,1.783579 1.730647,1.374217 0.204558,-0.07603 0.381101,-0.21316 0.57689,-0.309551 0.752713,-0.37057 1.836719,-0.808516 2.265318,-1.557133 0.28508,-0.49794 0.173183,-1.148112 0.121951,-1.688463 -0.01797,-0.189602 0.06894,-0.881935 -0.07973,-1.041219 -0.142179,-0.152327 -1.266034,1.088658 -1.360133,1.200683 -0.211373,0.25164 -0.255889,0.367984 -0.248581,0.365834 0.545759,-0.160531 0.544838,-1.774952 0.994309,-1.632179 0.315312,0.100157 0.597533,0.260804 0.923952,0.347073 0.260053,0.06873 0.468209,0.07952 0.61909,0.314241"
       inkscape:path-effect="#path-effect906"
       id="path904"
       d="m 82.642238,17.345757 c -0.02609,0.264763 -0.0093,0.53802 0.08199,0.789746 0.07055,0.194577 0.192128,0.372537 0.357618,0.49876 0.161013,0.122809 0.360213,0.189397 0.56115,0.204776 0.255344,0.01954 0.512301,-0.03302 0.748983,-0.126369 0.203842,-0.0804 0.37928,-0.21526 0.575495,-0.310945 0.422291,-0.205931 0.853178,-0.396803 1.256095,-0.639826 0.267115,-0.161113 0.525911,-0.342621 0.739212,-0.571829 0.119828,-0.128764 0.227419,-0.271564 0.301221,-0.431864 0.09467,-0.205619 0.130093,-0.433251 0.136889,-0.658015 0.0096,-0.3163 -0.04841,-0.629511 -0.06462,-0.944616 -0.005,-0.09785 0.0015,-0.195831 0.0046,-0.293644 0.0054,-0.169663 0.01515,-0.340631 -0.0075,-0.509271 -0.0093,-0.06964 -0.02804,-0.137952 -0.05669,-0.203246 -0.01418,-0.03232 -0.04938,-0.04492 -0.0836,-0.03399 -0.06339,0.02024 -0.118898,0.05877 -0.171633,0.09822 -0.146341,0.109456 -0.280484,0.234184 -0.411295,0.361451 -0.226023,0.2199 -0.443629,0.448394 -0.654561,0.682773 -0.08713,0.09682 -0.171531,0.197082 -0.241139,0.307251 -0.02438,0.03858 -0.0573,0.07516 -0.06596,0.120228 -0.0022,0.01153 0.01429,2.84e-4 0.01905,-0.0015 0.09571,-0.035 0.16863,-0.112562 0.223579,-0.195749 0.0895,-0.13549 0.147438,-0.28862 0.199823,-0.441417 0.07495,-0.218614 0.128809,-0.444371 0.213646,-0.659484 0.03587,-0.09094 0.07431,-0.18344 0.137607,-0.259137 0.03702,-0.04427 0.08993,-0.08095 0.150021,-0.07903 0.04335,0.0014 0.08371,0.01926 0.124002,0.0334 0.286219,0.100439 0.55689,0.242731 0.85062,0.322555 0.12337,0.03353 0.251017,0.0536 0.369713,0.102744 0.0868,0.03594 0.16346,0.09513 0.220417,0.170042 0.0102,0.01342 0.01984,0.02727 0.02896,0.04146"
       style="fill:none;stroke:#ff0000;stroke-width:0.264583px;stroke-linecap:butt;stroke-linejoin:miter;stroke-opacity:1" />
  </g>
</svg>
