<?xml version="1.0" encoding="UTF-8" standalone="no"?>
<svg
   xmlns:dc="http://purl.org/dc/elements/1.1/"
   xmlns:cc="http://creativecommons.org/ns#"
   xmlns:rdf="http://www.w3.org/1999/02/22-rdf-syntax-ns#"
   xmlns:svg="http://www.w3.org/2000/svg"
   xmlns="http://www.w3.org/2000/svg"
   xmlns:sodipodi="http://sodipodi.sourceforge.net/DTD/sodipodi-0.dtd"
   xmlns:inkscape="http://www.inkscape.org/namespaces/inkscape"
   sodipodi:docname="B.svg"
   inkscape:version="1.0 (4035a4fb49, 2020-05-01)"
   id="svg8"
   version="1.1"
   viewBox="0 0 100 29.999999"
   height="3cm"
   width="10cm">
  <defs
     id="defs2">
    <inkscape:path-effect
       simplify_just_coalesce="false"
       simplify_individual_paths="false"
       helper_size="0"
       smooth_angles="360"
       threshold="0.000408163"
       steps="1"
       lpeversion="1"
       is_visible="true"
       id="path-effect907"
       effect="simplify" />
    <inkscape:path-effect
       simplify_just_coalesce="false"
       simplify_individual_paths="false"
       helper_size="0"
       smooth_angles="360"
       threshold="0.000408163"
       steps="1"
       lpeversion="1"
       is_visible="true"
       id="path-effect903"
       effect="simplify" />
    <inkscape:path-effect
       simplify_just_coalesce="false"
       simplify_individual_paths="false"
       helper_size="0"
       smooth_angles="360"
       threshold="0.000408163"
       steps="1"
       lpeversion="1"
       is_visible="true"
       id="path-effect899"
       effect="simplify" />
    <inkscape:path-effect
       effect="simplify"
       id="path-effect906"
       is_visible="true"
       lpeversion="1"
       steps="1"
       threshold="0.000408163"
       smooth_angles="360"
       helper_size="0"
       simplify_individual_paths="false"
       simplify_just_coalesce="false" />
    <inkscape:path-effect
       effect="simplify"
       id="path-effect902"
       is_visible="true"
       lpeversion="1"
       steps="1"
       threshold="0.000408163"
       smooth_angles="360"
       helper_size="0"
       simplify_individual_paths="false"
       simplify_just_coalesce="false" />
    <inkscape:path-effect
       effect="simplify"
       id="path-effect898"
       is_visible="true"
       lpeversion="1"
       steps="1"
       threshold="0.000408163"
       smooth_angles="360"
       helper_size="0"
       simplify_individual_paths="false"
       simplify_just_coalesce="false" />
    <inkscape:path-effect
       effect="simplify"
       id="path-effect894"
       is_visible="true"
       lpeversion="1"
       steps="1"
       threshold="0.000408163"
       smooth_angles="360"
       helper_size="0"
       simplify_individual_paths="false"
       simplify_just_coalesce="false" />
    <inkscape:path-effect
       effect="simplify"
       id="path-effect890"
       is_visible="true"
       lpeversion="1"
       steps="1"
       threshold="0.000408163"
       smooth_angles="360"
       helper_size="0"
       simplify_individual_paths="false"
       simplify_just_coalesce="false" />
    <inkscape:path-effect
       effect="simplify"
       id="path-effect886"
       is_visible="true"
       lpeversion="1"
       steps="1"
       threshold="0.000408163"
       smooth_angles="360"
       helper_size="0"
       simplify_individual_paths="false"
       simplify_just_coalesce="false" />
    <inkscape:path-effect
       effect="simplify"
       id="path-effect882"
       is_visible="true"
       lpeversion="1"
       steps="1"
       threshold="0.000408163"
       smooth_angles="360"
       helper_size="0"
       simplify_individual_paths="false"
       simplify_just_coalesce="false" />
    <inkscape:path-effect
       effect="simplify"
       id="path-effect878"
       is_visible="true"
       lpeversion="1"
       steps="1"
       threshold="0.000408163"
       smooth_angles="360"
       helper_size="0"
       simplify_individual_paths="false"
       simplify_just_coalesce="false" />
    <inkscape:path-effect
       effect="simplify"
       id="path-effect874"
       is_visible="true"
       lpeversion="1"
       steps="1"
       threshold="0.000408163"
       smooth_angles="360"
       helper_size="0"
       simplify_individual_paths="false"
       simplify_just_coalesce="false" />
    <inkscape:path-effect
       effect="simplify"
       id="path-effect870"
       is_visible="true"
       lpeversion="1"
       steps="1"
       threshold="0.000408163"
       smooth_angles="360"
       helper_size="0"
       simplify_individual_paths="false"
       simplify_just_coalesce="false" />
    <inkscape:path-effect
       effect="simplify"
       id="path-effect866"
       is_visible="true"
       lpeversion="1"
       steps="1"
       threshold="0.000408163"
       smooth_angles="360"
       helper_size="0"
       simplify_individual_paths="false"
       simplify_just_coalesce="false" />
    <inkscape:path-effect
       effect="simplify"
       id="path-effect862"
       is_visible="true"
       lpeversion="1"
       steps="1"
       threshold="0.000408163"
       smooth_angles="360"
       helper_size="0"
       simplify_individual_paths="false"
       simplify_just_coalesce="false" />
    <inkscape:path-effect
       effect="simplify"
       id="path-effect858"
       is_visible="true"
       lpeversion="1"
       steps="1"
       threshold="0.000408163"
       smooth_angles="360"
       helper_size="0"
       simplify_individual_paths="false"
       simplify_just_coalesce="false" />
    <inkscape:path-effect
       effect="simplify"
       id="path-effect951"
       is_visible="true"
       lpeversion="1"
       steps="1"
       threshold="0.000408163"
       smooth_angles="360"
       helper_size="0"
       simplify_individual_paths="false"
       simplify_just_coalesce="false" />
    <inkscape:path-effect
       effect="simplify"
       id="path-effect947"
       is_visible="true"
       lpeversion="1"
       steps="1"
       threshold="0.000408163"
       smooth_angles="360"
       helper_size="0"
       simplify_individual_paths="false"
       simplify_just_coalesce="false" />
    <inkscape:path-effect
       effect="simplify"
       id="path-effect943"
       is_visible="true"
       lpeversion="1"
       steps="1"
       threshold="0.000408163"
       smooth_angles="360"
       helper_size="0"
       simplify_individual_paths="false"
       simplify_just_coalesce="false" />
    <inkscape:path-effect
       effect="simplify"
       id="path-effect939"
       is_visible="true"
       lpeversion="1"
       steps="1"
       threshold="0.000408163"
       smooth_angles="360"
       helper_size="0"
       simplify_individual_paths="false"
       simplify_just_coalesce="false" />
    <inkscape:path-effect
       effect="simplify"
       id="path-effect935"
       is_visible="true"
       lpeversion="1"
       steps="1"
       threshold="0.000408163"
       smooth_angles="360"
       helper_size="0"
       simplify_individual_paths="false"
       simplify_just_coalesce="false" />
    <inkscape:path-effect
       effect="simplify"
       id="path-effect931"
       is_visible="true"
       lpeversion="1"
       steps="1"
       threshold="0.000408163"
       smooth_angles="360"
       helper_size="0"
       simplify_individual_paths="false"
       simplify_just_coalesce="false" />
    <inkscape:path-effect
       effect="simplify"
       id="path-effect927"
       is_visible="true"
       lpeversion="1"
       steps="1"
       threshold="0.000408163"
       smooth_angles="360"
       helper_size="0"
       simplify_individual_paths="false"
       simplify_just_coalesce="false" />
    <inkscape:path-effect
       effect="simplify"
       id="path-effect923"
       is_visible="true"
       lpeversion="1"
       steps="1"
       threshold="0.000408163"
       smooth_angles="360"
       helper_size="0"
       simplify_individual_paths="false"
       simplify_just_coalesce="false" />
    <inkscape:path-effect
       effect="simplify"
       id="path-effect919"
       is_visible="true"
       lpeversion="1"
       steps="1"
       threshold="0.000408163"
       smooth_angles="360"
       helper_size="0"
       simplify_individual_paths="false"
       simplify_just_coalesce="false" />
    <inkscape:path-effect
       effect="simplify"
       id="path-effect915"
       is_visible="true"
       lpeversion="1"
       steps="1"
       threshold="0.000408163"
       smooth_angles="360"
       helper_size="0"
       simplify_individual_paths="false"
       simplify_just_coalesce="false" />
    <inkscape:path-effect
       effect="simplify"
       id="path-effect911"
       is_visible="true"
       lpeversion="1"
       steps="1"
       threshold="0.000408163"
       smooth_angles="360"
       helper_size="0"
       simplify_individual_paths="false"
       simplify_just_coalesce="false" />
  </defs>
  <sodipodi:namedview
     inkscape:window-maximized="1"
     inkscape:window-y="0"
     inkscape:window-x="0"
     inkscape:window-height="1051"
     inkscape:window-width="1920"
     units="cm"
     showgrid="false"
     inkscape:document-rotation="0"
     inkscape:current-layer="layer1"
     inkscape:document-units="mm"
     inkscape:cy="31.973345"
     inkscape:cx="165.04733"
     inkscape:zoom="3.6797313"
     inkscape:pageshadow="2"
     inkscape:pageopacity="0.0"
     borderopacity="1.0"
     bordercolor="#666666"
     pagecolor="#ffffff"
     id="base" />
  <metadata
     id="metadata5">
    <rdf:RDF>
      <cc:Work
         rdf:about="">
        <dc:format>image/svg+xml</dc:format>
        <dc:type
           rdf:resource="http://purl.org/dc/dcmitype/StillImage" />
        <dc:title />
      </cc:Work>
    </rdf:RDF>
  </metadata>
  <g
     id="layer1"
     inkscape:groupmode="layer"
     inkscape:label="Layer 1">
    <path
       sodipodi:nodetypes="cc"
       id="path10"
       d="m 0,20.132291 102.10211,0"
       style="fill:none;stroke:#2690a7;stroke-width:0.264583px;stroke-linecap:butt;stroke-linejoin:miter;stroke-opacity:0.474099" />
    <path
       sodipodi:nodetypes="cc"
       style="fill:none;stroke:#2690a7;stroke-width:0.264583px;stroke-linecap:butt;stroke-linejoin:miter;stroke-opacity:0.474099"
       d="m 0,0.1322915 101.24145,0"
       id="path12" />
    <path
       sodipodi:nodetypes="cc"
       style="fill:none;stroke:#2690a7;stroke-width:0.265;stroke-linecap:butt;stroke-linejoin:miter;stroke-miterlimit:4;stroke-dasharray:1.06, 1.06;stroke-dashoffset:0;stroke-opacity:0.474099"
       d="m 0,10.132291 101.7922,0"
       id="path14" />
    <path
       style="fill:none;stroke:#000000;stroke-width:0.264583px;stroke-linecap:butt;stroke-linejoin:miter;stroke-opacity:1"
       d="m 70.307222,27.481212 c 0.05786,-0.145807 0.08209,-0.306012 0.165984,-0.440455 0.07265,-0.116424 0.173986,-0.212166 0.281573,-0.29584 0.208448,-0.162116 0.442047,-0.28887 0.681274,-0.398978 0.404965,-0.186392 0.828309,-0.33121 1.258786,-0.445756 0.391944,-0.104293 0.79026,-0.189683 1.194191,-0.2294 0.208003,-0.02045 0.418168,-0.03102 0.626717,-0.01049 0.105123,0.01035 0.207004,0.03927 0.308443,0.06725 0.225152,0.06211 0.448314,0.1332 0.66386,0.223134 0.242438,0.101154 0.452729,0.267484 0.630334,0.458974 0.223683,0.24117 0.402556,0.520662 0.551976,0.812762 0.05979,0.116885 0.127281,0.231698 0.165509,0.357294 0.01752,0.05757 0.02809,0.117012 0.04222,0.175473 0.01181,0.04887 0.02131,0.09856 0.03842,0.145932 0,0 0.0038,0.0069 0.0038,0.0069 0.01399,-0.04456 0.02382,-0.09053 0.03493,-0.135968 0.01338,-0.05473 0.02673,-0.109471 0.04011,-0.164202"
       id="path880"
       inkscape:path-effect="#path-effect882"
       inkscape:original-d="m 70.307222,27.481212 c 0.06254,-0.157903 0.0901,-0.334653 0.187606,-0.47371 0.571005,-0.814316 3.312673,-1.530199 4.164825,-1.322623 0.270936,0.066 0.537464,0.152082 0.797316,0.253264 0.666359,0.259472 1.122101,1.027467 1.3789,1.641563 0.01386,0.03313 0.0663,0.306572 0.08442,0.328311 0.0016,0.0019 0.01558,-0.05698 0.07504,-0.30017" />
    <path
       style="fill:none;stroke:#000000;stroke-width:0.264583px;stroke-linecap:butt;stroke-linejoin:miter;stroke-opacity:1"
       d="m 72.155128,22.251673 c -0.07044,-0.02145 -0.142365,-0.0411 -0.216181,-0.04523 -0.04825,-0.0027 -0.09885,0.002 -0.141697,0.02631 -0.04355,0.02471 -0.07073,0.06987 -0.08589,0.116376 -0.01982,0.06077 -0.02628,0.124989 -0.02846,0.188526 -0.002,0.05816 -0.0032,0.116837 0.0071,0.174418 0.01243,0.06926 0.04259,0.135995 0.09062,0.18801 0.05108,0.05533 0.120342,0.0912 0.192612,0.11016 0.09435,0.02475 0.193724,0.02478 0.289739,0.01081 0.137435,-0.02 0.270593,-0.06665 0.39215,-0.133421 0.1175,-0.06454 0.226166,-0.147922 0.310492,-0.252689 0.05135,-0.0638 0.09414,-0.135517 0.119263,-0.213746 0.02146,-0.06684 0.02616,-0.139627 0.0089,-0.208066 -0.01867,-0.0742 -0.06257,-0.14009 -0.117339,-0.192696 -0.07068,-0.06789 -0.157591,-0.117077 -0.248734,-0.151815 -0.113685,-0.04333 -0.235212,-0.06697 -0.356906,-0.0669 -0.08905,5.2e-5 -0.179391,0.01207 -0.262136,0.04623 -0.06074,0.02508 -0.117368,0.064 -0.155231,0.1185 -0.0051,0.0073 -0.0098,0.01482 -0.01412,0.02257"
       id="path884"
       inkscape:path-effect="#path-effect886"
       inkscape:original-d="m 72.155128,22.251673 c -0.379378,-0.11741 -0.473702,-0.01419 -0.473702,0.361142 0,0.700342 1.147397,0.429177 1.388274,-0.150085 0.248766,-0.598237 -0.907291,-0.871966 -1.130316,-0.473706" />
    <path
       style="fill:none;stroke:#000000;stroke-width:0.264583px;stroke-linecap:butt;stroke-linejoin:miter;stroke-opacity:1"
       d="m 76.019785,22.739449 c -0.08952,-0.092 -0.154779,-0.204772 -0.247098,-0.29423 -0.04024,-0.03899 -0.08571,-0.07428 -0.138229,-0.0946 -0.04479,-0.01733 -0.09483,-0.01537 -0.140653,-0.0033 -0.0659,0.01738 -0.126082,0.05178 -0.180533,0.09202 -0.0853,0.06305 -0.159654,0.140235 -0.223312,0.224841 -0.06361,0.08454 -0.118711,0.176565 -0.154555,0.276358 -0.02303,0.06412 -0.03898,0.132128 -0.03555,0.200657 0.0025,0.04947 0.01768,0.09919 0.04862,0.138522 0.03286,0.04179 0.0815,0.06836 0.131969,0.08277 0.07087,0.02023 0.145682,0.02182 0.218666,0.01604 0.112946,-0.0089 0.224325,-0.03295 0.332685,-0.06528 0.07604,-0.02269 0.150148,-0.05541 0.213036,-0.104455 0.04228,-0.03298 0.07778,-0.07484 0.101758,-0.122977 0.03307,-0.0664 0.04672,-0.140252 0.05627,-0.213185 0.0069,-0.05287 0.01331,-0.105801 0.02057,-0.158636 0.01185,-0.08623 0.02336,-0.172906 0.02317,-0.260056 -1.03e-4,-0.04679 -0.0034,-0.09413 -0.01678,-0.139343 -0.01152,-0.03898 -0.04173,-0.07377 -0.08315,-0.082 -0.04061,-0.0081 -0.08229,3.83e-4 -0.1212,0.01219 -0.06803,0.02064 -0.132536,0.05116 -0.195766,0.08331 -0.02017,0.01026 -0.04021,0.02077 -0.06016,0.03145"
       id="path888"
       inkscape:path-effect="#path-effect890"
       inkscape:original-d="m 76.019785,22.739449 c -0.125071,-0.128197 -0.212164,-0.310479 -0.37521,-0.384591 -0.427265,-0.194211 -1.425919,1.357275 -0.02344,0.961482 0.113557,-0.03205 0.23309,-0.09054 0.300168,-0.187605 0.0761,-0.110116 0.07916,-0.256838 0.09849,-0.389286 0.08032,-0.550355 -0.0058,-0.618021 -0.450252,-0.3799" />
    <path
       style="fill:none;stroke:#ff6161;stroke-width:0.264583px;stroke-linecap:butt;stroke-linejoin:miter;stroke-opacity:1"
       d="m 78.618109,11.553392 c 0.947193,-0.02776 1.894754,-0.08302 2.842565,-0.05096 0.306714,0.01037 0.615561,0.01243 0.91845,0.06207 0.08412,0.01379 0.165427,0.04034 0.248193,0.06017 0.04857,0.01164 0.09836,0.0175 0.147276,0.02906 0.01066,0.0025 0.02621,-0.007 0.01671,-0.01895 -0.02638,-0.03321 -0.06003,-0.06 -0.09281,-0.08662 -0.12363,-0.100421 -0.254256,-0.19201 -0.388205,-0.278033 -0.109417,-0.07027 -0.219568,-0.140433 -0.33732,-0.195889 -0.04192,-0.01974 -0.08513,-0.03787 -0.131341,-0.04535 -0.154138,-0.02494 -0.310839,-0.02237 -0.466471,-0.02386 -0.161285,-0.0016 -0.324344,-0.0021 -0.482559,-0.03695 -0.02519,-0.0056 -0.06165,0.0025 -0.07483,-0.01969 -0.0066,-0.01109 0.01237,-0.01829 0.02025,-0.01985 0.05379,-0.01065 0.109757,-0.01099 0.164623,-0.01285 0.06771,-0.0023 0.135202,0.0043 0.202416,0.01169 0.313573,0.03472 0.6262,0.08781 0.928729,0.178456 0.216869,0.06498 0.430731,0.147204 0.622947,0.268073 0.114038,0.07171 0.222147,0.155923 0.307235,0.261044 0.06157,0.07607 0.108471,0.168137 0.114383,0.267391 0.0057,0.0963 -0.03019,0.190308 -0.08227,0.269799 -0.07445,0.113652 -0.175015,0.207229 -0.279148,0.293182 -0.219174,0.18091 -0.463537,0.328881 -0.680781,0.51211 -0.08927,0.07529 -0.177459,0.15539 -0.240183,0.254833 -0.02472,0.03918 -0.04499,0.08164 -0.05576,0.126862"
       id="path892"
       inkscape:path-effect="#path-effect894"
       inkscape:original-d="m 78.618109,11.553392 c 1.239996,-0.03626 2.507747,-0.12035 3.747402,0.0094 0.138097,0.01445 0.510913,0.154462 0.412731,0.05628 -0.163546,-0.163545 -0.755927,-0.556304 -0.914569,-0.58627 -0.310904,-0.05873 -0.735028,0.01205 -1.0459,-0.08442 -0.01283,-0.004 0.01945,-0.02227 0.03283,-0.02345 0.09501,-0.0084 0.191186,-0.01413 0.286094,-0.0047 0.572844,0.05695 1.424686,0.212851 1.857285,0.637861 0.750425,0.737262 -1.016696,1.225382 -1.153766,1.801026" />
    <path
       id="path49"
       d="m 9.1204438,1.0708699 c -0.1659435,2.6454191 0.17135,5.2891006 0.2720252,7.9310749 0.063872,1.6761492 0.021765,3.3559092 0.089113,5.0325532 0.037255,0.92745 0.092424,1.854096 0.1360138,2.781269 0.023162,0.492653 -0.082064,1.264124 0.089113,1.777574 0.010922,0.03276 -0.0037,-0.06912 -0.00938,-0.103185 C 9.6701566,18.327122 9.6308766,18.166102 9.6082161,18.00238 9.5683082,17.714045 9.5331321,17.424841 9.5097228,17.1347 9.4242709,16.075594 9.5101462,15.044001 9.5003434,13.987597 9.4718543,10.918033 9.0483295,7.8841485 9.1720338,4.8136254 9.2056063,3.9803101 9.2533294,2.180399 9.6035258,1.3991814 9.8222857,0.91117268 10.955832,0.95536024 11.390458,0.84574112 11.915902,0.71321635 12.436893,0.5635391 12.961649,0.42831681 c 0.136621,-0.0352055 0.271876,-0.10189917 0.412728,-0.0938042 0.275489,0.0158327 0.559089,0.0524041 0.811392,0.16415575 0.248175,0.10992374 0.815258,1.30216414 0.928642,1.57589734 0.491449,1.1864733 0.994133,2.5965601 0.417419,3.8553188 -0.37706,0.8229861 -2.294453,2.3092184 -2.809378,2.77658 -0.782015,0.709781 -1.052229,1.0758787 -2.134003,0.8723712 -0.129798,-0.024418 0.262025,-0.036359 0.39397,-0.042212 0.741884,-0.032907 1.560451,-0.1502262 2.302848,-0.1266333 0.498689,0.015849 1.00053,0.037561 1.491456,0.1266333 1.569059,0.2846851 3.564085,2.1196883 3.916245,3.7239963 0.491059,2.237079 -1.942999,3.311743 -3.71926,3.719303 -0.01614,0.0037 -1.795297,0.140607 -1.796315,0.140703 -0.762543,0.07163 -1.533005,0.265074 -2.302846,0.182917 -0.171177,-0.01827 -0.339953,-0.0634 -0.501844,-0.121942 -0.128009,-0.04629 -0.5561812,-0.433559 -0.6706858,-0.412735"
       style="fill:none;stroke:#000000;stroke-width:0.264583px;stroke-linecap:butt;stroke-linejoin:miter;stroke-opacity:1" />
    <path
       id="path51"
       d="m 7.6758863,2.9422476 c -0.060711,0.674602 -0.056113,0.5108432 -0.06566,1.3929804 -0.015658,1.4467681 -0.00605,2.8711041 -0.065662,4.3196441 -0.050579,1.2290541 -0.2988271,2.5782669 -0.093802,3.8084179 0.00488,0.0293 0.00494,-0.05982 0,-0.08912 -0.041662,-0.246998 -0.110676,-0.414272 -0.215746,-0.633171 -1.214343,1.078042 -0.137259,-0.752038 -0.4408708,-0.834845 -0.1176564,-0.03209 -0.036394,0.248071 -0.00469,0.365832 0.054135,0.201074 0.2201691,0.769716 0.3564491,1.059979 0.095094,0.202543 0.154774,0.637137 0.3658274,0.562821 0.5280769,-0.185945 0.8685809,-1.20306 1.3835844,-1.557138"
       style="fill:none;stroke:#ff0000;stroke-width:0.264583px;stroke-linecap:butt;stroke-linejoin:miter;stroke-opacity:1" />
    <path
       id="path53"
       d="M 10.396154,8.7158451 C 10.247795,7.8884554 10.256882,7.032454 10.189789,6.1925337 10.109617,5.1888932 9.9474633,3.544339 10.175718,2.9610068 c 0.119209,-0.3046526 0.462743,-0.6258017 0.750418,-0.7879477 0.134849,-0.076006 0.332415,-0.061531 0.478393,-0.1078741 0.278878,-0.088535 0.643677,-0.2621012 0.938023,-0.2345072 0.292725,0.027442 0.626783,0.3318096 0.783249,0.5581295 0.69733,1.008648 0.380646,2.018915 -0.239196,2.9641863 -0.186692,0.2847088 -0.286103,0.6046766 -0.41742,0.9145831 -0.122644,0.2894377 -0.57188,0.5434068 -0.811389,0.717596 -0.05944,0.043228 -0.244261,0.1598472 -0.192296,0.107874 0.05904,-0.059045 0.453713,-1.0013642 0.314237,-1.0412184 -0.585029,-0.167168 -0.962064,1.1279483 -0.651925,1.4774039 0.242194,0.2728958 1.281331,-0.4926126 1.383585,-0.3611425 0.05417,0.069646 0.02189,0.1750994 0.03283,0.2626493"
       style="fill:none;stroke:#ff0000;stroke-width:0.264583px;stroke-linecap:butt;stroke-linejoin:miter;stroke-opacity:1" />
    <path
       id="path55"
       d="m 11.962653,10.718547 c 1.054059,0.122372 2.646743,-0.446253 3.423785,0.487778 0.161027,0.19356 0.264841,0.367256 0.337688,0.60972 0.335834,1.11779 0.128237,1.153511 -0.182915,2.218453 -0.180061,0.616273 0.05346,1.2798 -0.637855,1.594656 -0.394965,0.179884 -0.811855,0.09609 -1.228811,0.131325 -0.201502,0.01703 -0.468042,0.132805 -0.675376,0.103185 -0.288631,-0.04124 -0.290497,-0.244352 -0.558125,-0.05628 -0.03683,0.02588 -0.147948,0.0614 -0.168843,0.103185 -0.07396,0.14792 0.180675,-0.06837 0.384589,-0.300172 0.301928,-0.343224 0.563069,-0.721526 0.881743,-1.050597 0.07423,-0.07665 0.275728,-0.304865 0.248575,-0.201678 -0.118874,0.451735 -1.307564,1.296453 -1.697822,1.754125 -0.05345,0.06269 -0.211298,0.172904 -0.136014,0.206365 0.381682,0.169646 0.983729,-0.162525 1.407035,-0.187608 0.277837,-0.01646 0.257124,0.230395 0.501844,0.323624"
       style="fill:none;stroke:#fc0000;stroke-width:0.264583px;stroke-linecap:butt;stroke-linejoin:miter;stroke-opacity:1" />
    <path
       id="path885"
       d="m 47.93584,9.8367955 c 0.901724,-0.1794272 1.591074,-0.3319079 2.551425,-0.426805 0.245834,-0.024291 0.544541,-0.1403323 0.741037,0.00938 0.230785,0.1758381 -0.549577,0.2194613 -0.839531,0.2298179"
       style="fill:none;stroke:#000000;stroke-width:0.264583px;stroke-linecap:butt;stroke-linejoin:miter;stroke-opacity:1" />
    <path
       id="path887"
       d="M 50.388771,9.6491882 C 50.198038,9.4021732 50.033951,9.1320685 49.816575,8.9081429 49.715263,8.8037772 49.54702,8.8293058 49.441367,8.683014 49.32727,8.5250302 49.807097,8.8177337 49.99011,8.88469 c 0.442039,0.1617236 1.511265,0.3860376 1.097489,1.0975001 -0.487865,0.8388569 -1.647431,1.3778979 -1.829144,2.3591539"
       style="fill:none;stroke:#000000;stroke-width:0.264583px;stroke-linecap:butt;stroke-linejoin:miter;stroke-opacity:1" />
    <path
       id="path889"
       d="m 54.305017,4.1757615 c -0.162865,3.6363902 0.266001,7.2637435 0.159464,10.8999505 -0.0118,0.403087 -0.06558,0.80387 -0.103182,1.205374 -0.01087,0.116035 -0.06818,0.460686 -0.04221,0.347073 0.06341,-0.277408 0.103182,-0.559694 0.154773,-0.83954"
       style="fill:none;stroke:#00c0f3;stroke-width:0.264583px;stroke-linecap:butt;stroke-linejoin:miter;stroke-opacity:1" />
    <path
       id="path891"
       d="m 57.048733,5.8454609 c -1.601248,-0.2360522 1.710573,-3.1996749 3.039194,-1.815094 0.614704,0.6405917 -0.685551,2.0767556 -1.425794,2.959495 -0.162849,0.1941968 -0.417256,0.2938396 -0.590952,0.4783973 -0.03214,0.034155 0.0939,0.00294 0.140708,0 0.590428,-0.037146 1.134218,-0.1377899 1.711888,-0.060971 1.707375,0.2270485 3.140901,1.7852355 3.569182,3.4003718 0.501417,1.890944 -0.564531,2.900105 -1.904188,4.038234 -0.515927,0.438314 -1.097777,0.82335 -1.824458,0.79733 -0.585949,-0.02098 -1.401181,-0.761921 -1.824458,-1.130329"
       style="fill:none;stroke:#00c0f3;stroke-width:0.264583px;stroke-linecap:butt;stroke-linejoin:miter;stroke-opacity:1" />
    <path
       id="path893"
       d="m 70.917416,18.227507 c 0.02291,-0.653304 0.04837,-1.068374 -0.01408,-1.796335 -0.08295,-0.967073 -0.199943,-1.93112 -0.323614,-2.893833 -0.11556,-0.899551 -0.315407,-1.788622 -0.393975,-2.692156 -0.115946,-1.3333849 0.18696,-2.621431 0.276719,-3.9397426 0.04561,-0.6698102 -0.0054,-0.5668672 0.08442,-1.3507686 0.04122,-0.3596036 0.16991,-0.7111764 0.243893,-1.0646687 0.03315,-0.1583862 -0.009,-0.3767281 0.0469,-0.5206093 0.0499,-0.1283353 0.251957,-0.2726772 0.342381,-0.3564532 0.724379,-0.6711228 1.609662,-1.1111485 2.63584,-0.9896261 0.380037,0.045005 0.6608,0.2832105 0.938027,0.5253006 0.444429,0.3880958 0.432927,0.3533349 0.750417,0.8629906 0.113551,0.1822789 0.0542,0.4279233 0.0469,0.6425531 -0.04422,1.2990819 -0.631425,2.1375018 -1.655609,2.8938346 -0.128077,0.094581 -0.807246,0.5130599 -0.970849,0.623792 -0.464814,0.3146028 -0.895305,0.6776064 -1.355447,0.9990066 -0.06993,0.048845 -0.312565,0.091875 -0.229812,0.1125633 0.441796,0.1104492 0.912779,0.00581 1.364822,0.060973 1.703617,0.2078832 2.382152,1.6087037 2.316919,3.1564837 -0.03648,0.865647 -0.04315,1.748869 -0.0985,2.612423 -0.03004,0.468586 -0.312439,0.946971 -0.473697,1.378912 -0.110995,0.297311 -0.111628,0.814882 -0.304858,1.064667 -0.356555,0.460905 -1.320258,0.199233 -1.782247,0.201678 -0.221644,0.0012 -0.783508,0.245108 -0.994301,0.154773 -0.09357,-0.0401 -0.02535,-0.160968 -0.01408,-0.215748"
       style="fill:none;stroke:#000000;stroke-width:0.264583px;stroke-linecap:butt;stroke-linejoin:miter;stroke-opacity:1" />
    <path
       id="path895"
       d="m 84.67821,25.525414 c -0.204205,-1.041523 -0.2199,-2.112708 -0.182909,-3.170556 0.02479,-0.708987 0.09997,-1.932548 0.150082,-2.640566 0.06585,-0.930429 0.139677,-1.860279 0.20636,-2.790648 0.03025,-0.421971 0.05434,-0.844367 0.08443,-1.266349 0.151773,-2.12878 0.323247,-4.256612 0.665999,-6.3645592 0.185383,-1.1401237 0.353695,-2.2981324 0.862973,-3.3487793 0.154955,-0.3196749 0.519625,-0.6124752 0.736356,-0.8911326 0.541205,-0.695848 0.69595,-0.9888317 1.585251,-1.1584707 0.359106,-0.068501 0.941044,-0.290985 1.303854,-0.1500859 0.330745,0.1284457 0.870503,1.0851988 0.970856,1.4258115 0.07086,0.2404875 0.01442,0.3956489 -0.103184,0.6237917 -0.469694,0.9111059 -1.582764,1.3814044 -2.340364,2.0073937 -0.110808,0.091558 -0.527384,0.4857129 -0.689449,0.6566231 -0.01939,0.02045 -0.07491,0.06724 -0.0469,0.070352 0.08328,0.00925 0.161684,-0.044686 0.243882,-0.060971 2.211009,-0.4380364 4.332658,3.5387197 4.01474,5.4734277 -0.09091,0.553222 -0.503418,0.937307 -0.86767,1.327316 -0.501208,0.536649 -1.104585,1.306165 -1.876049,1.449262 -0.920747,0.170786 -1.77012,-0.09166 -2.668677,-0.257958 -0.619056,-0.114567 -1.664933,-0.184288 -1.885424,-0.919272"
       style="fill:none;stroke:#00b5ff;stroke-width:0.264583px;stroke-linecap:butt;stroke-linejoin:miter;stroke-opacity:1" />
    <path
       inkscape:original-d="m 37.626491,27.715726 c 0.06254,-0.157903 0.0901,-0.334653 0.187606,-0.47371 0.571005,-0.814316 3.312673,-1.530199 4.164825,-1.322623 0.270936,0.066 0.537464,0.152082 0.797316,0.253264 0.666359,0.259472 1.122101,1.027467 1.3789,1.641563 0.01386,0.03313 0.0663,0.306572 0.08442,0.328311 0.0016,0.0019 0.01558,-0.05698 0.07504,-0.30017"
       inkscape:path-effect="#path-effect899"
       id="path897"
       d="m 37.626491,27.715726 c 0.05786,-0.145807 0.08209,-0.306012 0.165984,-0.440455 0.07265,-0.116424 0.173986,-0.212166 0.281573,-0.29584 0.208448,-0.162116 0.442047,-0.28887 0.681274,-0.398978 0.404965,-0.186392 0.828309,-0.33121 1.258786,-0.445756 0.391944,-0.104293 0.79026,-0.189683 1.194191,-0.2294 0.208003,-0.02045 0.418168,-0.03102 0.626717,-0.01049 0.105123,0.01035 0.207004,0.03927 0.308443,0.06725 0.225152,0.06211 0.448314,0.1332 0.66386,0.223134 0.242438,0.101154 0.452729,0.267484 0.630334,0.458974 0.223683,0.24117 0.402556,0.520662 0.551976,0.812762 0.05979,0.116885 0.127281,0.231698 0.165509,0.357294 0.01752,0.05757 0.02808,0.117012 0.04222,0.175473 0.01181,0.04886 0.02131,0.09856 0.03842,0.145932 0,0 0.0038,0.0069 0.0038,0.0069 0.01399,-0.04456 0.02382,-0.09053 0.03493,-0.135968 0.01338,-0.05473 0.02673,-0.109471 0.04011,-0.164202"
       style="fill:none;stroke:#000000;stroke-width:0.264583px;stroke-linecap:butt;stroke-linejoin:miter;stroke-opacity:1" />
    <path
       inkscape:original-d="m 39.474397,22.486187 c -0.379378,-0.11741 -0.473702,-0.01419 -0.473702,0.361142 0,0.700342 1.147397,0.429177 1.388274,-0.150085 0.248766,-0.598237 -0.907291,-0.871966 -1.130316,-0.473706"
       inkscape:path-effect="#path-effect903"
       id="path901"
       d="m 39.474397,22.486187 c -0.07044,-0.02145 -0.142365,-0.0411 -0.216181,-0.04523 -0.04825,-0.0027 -0.09885,0.002 -0.141697,0.02631 -0.04355,0.02471 -0.07073,0.06987 -0.08589,0.116376 -0.01982,0.06077 -0.02628,0.124989 -0.02846,0.188526 -0.002,0.05816 -0.0032,0.116837 0.0071,0.174418 0.01243,0.06926 0.04259,0.135995 0.09062,0.18801 0.05108,0.05533 0.120342,0.0912 0.192612,0.11016 0.09435,0.02475 0.193724,0.02478 0.289739,0.01081 0.137435,-0.02 0.270593,-0.06665 0.39215,-0.133421 0.1175,-0.06454 0.226166,-0.147922 0.310492,-0.252689 0.05135,-0.0638 0.09414,-0.135517 0.119263,-0.213746 0.02146,-0.06684 0.02616,-0.139627 0.0089,-0.208066 -0.01867,-0.0742 -0.06257,-0.14009 -0.117339,-0.192696 -0.07068,-0.06789 -0.157591,-0.117077 -0.248734,-0.151815 -0.113685,-0.04333 -0.235212,-0.06697 -0.356906,-0.0669 -0.08905,5.2e-5 -0.179391,0.01207 -0.262136,0.04623 -0.06074,0.02508 -0.117368,0.064 -0.155231,0.1185 -0.0051,0.0073 -0.0098,0.01482 -0.01412,0.02257"
       style="fill:none;stroke:#000000;stroke-width:0.264583px;stroke-linecap:butt;stroke-linejoin:miter;stroke-opacity:1" />
    <path
       inkscape:original-d="m 43.339054,22.973963 c -0.125071,-0.128197 -0.212164,-0.310479 -0.37521,-0.384591 -0.427265,-0.194211 -1.425919,1.357275 -0.02344,0.961482 0.113557,-0.03205 0.23309,-0.09054 0.300168,-0.187605 0.0761,-0.110116 0.07916,-0.256838 0.09849,-0.389286 0.08032,-0.550355 -0.0058,-0.618021 -0.450252,-0.3799"
       inkscape:path-effect="#path-effect907"
       id="path905"
       d="m 43.339054,22.973963 c -0.08951,-0.092 -0.154779,-0.204772 -0.247098,-0.29423 -0.04024,-0.03899 -0.08571,-0.07428 -0.138229,-0.09459 -0.0448,-0.01733 -0.09483,-0.01538 -0.140653,-0.0033 -0.0659,0.01738 -0.126082,0.05178 -0.180533,0.09202 -0.0853,0.06305 -0.159654,0.140235 -0.223312,0.224841 -0.06361,0.08454 -0.118711,0.176565 -0.154555,0.276358 -0.02303,0.06412 -0.03898,0.132128 -0.03555,0.200657 0.0025,0.04947 0.01768,0.09919 0.04862,0.138522 0.03286,0.04179 0.0815,0.06836 0.131969,0.08277 0.07087,0.02023 0.145682,0.02182 0.218666,0.01604 0.112946,-0.0089 0.224325,-0.03295 0.332685,-0.06528 0.07604,-0.02269 0.150148,-0.05541 0.213036,-0.104455 0.04228,-0.03298 0.07778,-0.07484 0.101758,-0.122977 0.03307,-0.0664 0.04672,-0.140252 0.05627,-0.213185 0.0069,-0.05287 0.01331,-0.105801 0.02057,-0.158636 0.01186,-0.08623 0.02336,-0.172906 0.02317,-0.260056 -1.03e-4,-0.04679 -0.0034,-0.09413 -0.01678,-0.139343 -0.01152,-0.03898 -0.04173,-0.07377 -0.08315,-0.08201 -0.04061,-0.0081 -0.08229,3.83e-4 -0.1212,0.01219 -0.06803,0.02064 -0.132536,0.05116 -0.195766,0.08331 -0.02017,0.01026 -0.04021,0.02077 -0.06016,0.03145"
       style="fill:none;stroke:#000000;stroke-width:0.264583px;stroke-linecap:butt;stroke-linejoin:miter;stroke-opacity:1" />
    <path
       id="path909"
       d="m 37.500335,2.506062 c 0,1.3606678 0.01167,-0.8532301 -0.182917,2.5889716 -0.113679,2.010851 0.08341,4.0292538 0.178226,6.0362484 0.0249,0.527198 0.126552,3.227283 0.150082,3.817797 0.04878,1.224321 0.133929,2.435015 0.05159,3.658332 -0.02328,0.345926 -0.313862,1.185624 0.03752,0.248579"
       style="fill:none;stroke:#000000;stroke-width:0.264583px;stroke-linecap:butt;stroke-linejoin:miter;stroke-opacity:1" />
    <path
       id="path919"
       d="m 37.906122,3.2518 c 0.216318,-0.5681856 0.803248,-0.6663193 1.364821,-0.7410465 1.787594,-0.2378713 3.267567,0.3137466 4.197654,1.9042088 0.496237,0.84857 0.46644,2.0345529 0.412732,2.9782563 -0.105704,1.8573789 -0.356397,2.0761245 -2.087102,2.4717189 -0.408202,0.093305 -0.778711,0.2683965 -1.167837,0.4174265 -0.144473,0.05533 -0.559646,0.221955 -0.450254,0.112563 0.100232,-0.100232 1.060262,-0.07545 1.285094,-0.08911 0.479917,-0.02917 0.930939,0.02653 1.360133,0.257958 1.056616,0.569745 1.043794,1.247391 1.528977,2.246592 0.613783,1.264044 0.925663,2.088954 0.844222,3.522316 -0.05001,0.880121 -0.280139,1.926384 -0.938025,2.584282 -0.30004,0.300045 -0.77457,0.619904 -1.17253,0.778569 -0.291166,0.116088 -2.958595,0.499135 -3.240871,0.417422 -0.413014,-0.119558 -0.635143,-0.543745 -0.980233,-0.755116 -0.238186,-0.145891 -0.406437,-0.138621 -0.558126,-0.398665"
       style="fill:none;stroke:#000000;stroke-width:0.264583px;stroke-linecap:butt;stroke-linejoin:miter;stroke-opacity:1" />
    <path
       id="path921"
       d="m 35.945508,5.9029933 c -0.02188,1.6274891 -0.06566,3.2548311 -0.06566,4.8824677 0,1.011996 0.227523,2.031416 0.0938,3.034539 -0.0098,0.07382 -0.09791,-0.112591 -0.140702,-0.173538 -0.152837,-0.217669 -0.359588,-0.420683 -0.487778,-0.651932 -0.234813,-0.423591 -0.199837,-0.913905 -0.257953,-1.378908 -0.0087,-0.06969 0.04155,0.134183 0.06097,0.201674 0.04437,0.154172 0.08657,0.308982 0.126635,0.464327 0.09105,0.353027 0.194334,1.263826 0.558126,1.482094 0.01447,0.0087 0.126775,-0.12718 0.257953,-0.309551 0.311941,-0.433678 0.477609,-0.896651 0.656619,-1.392978"
       style="fill:none;stroke:#ff0000;stroke-width:0.264583px;stroke-linecap:butt;stroke-linejoin:miter;stroke-opacity:1" />
    <path
       id="path923"
       d="m 41.404807,1.3019387 c 0.743026,0.027268 1.302067,0.00815 1.969846,0.3845932 0.163992,0.092448 0.34802,0.1643655 0.478394,0.3001718 0.765524,0.7974315 1.470599,4.1201751 1.21005,5.2858194 -0.05083,0.2274184 -0.179083,0.4253921 -0.248578,0.6472444 -0.09853,0.3145515 -0.09748,0.7313901 -0.304853,0.9802432 -0.154009,0.1848114 -0.507167,0.5714963 -0.497155,0.5862738 0.03672,0.05421 0.645454,0.079794 0.708205,0.093802 0.318421,0.071077 0.637283,0.2249694 0.872363,0.4549445 0.465714,0.455601 0.646827,1.077931 0.928642,1.641562 0.355158,0.710315 0.79129,1.390947 1.008375,2.162169 0.365675,1.299118 -0.09491,2.144387 -0.534673,3.287806 -0.07599,0.197573 -0.115194,0.482354 -0.234505,0.661315 -0.09554,0.143301 -0.02972,-0.343699 -0.02814,-0.515921 0.0046,-0.500682 0.05033,-0.995927 0.05628,-1.496162 0.0013,-0.10943 0,-0.218875 0,-0.328312 0,-0.0172 0.0041,-0.0683 0,-0.05159 -0.111641,0.456748 -0.680841,2.670129 0.01876,2.612427 0.335987,-0.02771 1.463683,-1.332735 1.496148,-1.35546"
       style="fill:none;stroke:#ff0000;stroke-width:0.264583px;stroke-linecap:butt;stroke-linejoin:miter;stroke-opacity:1" />
    <path
       id="path929"
       d="M 69.301619,15.803939 C 68.763462,15.0768 68.609779,14.453278 68.448018,13.529207 68.159437,11.880663 68.572226,10.18833 68.419878,8.534181 68.384658,8.1518102 68.234376,7.8031838 68.180682,7.4273003 c -0.07366,-0.5156549 0.289721,-0.9339307 -0.01408,-1.435192 -0.193252,-0.3188682 -0.82169,0.5712309 -0.78794,0.7738776 0.01826,0.1096772 0.11466,-0.1917819 0.154779,-0.2954803 0.09723,-0.2513221 0.202107,-0.752607 0.422103,-0.9380334 0.266094,-0.2242777 1.024461,0.6911756 1.754108,0.567508"
       style="fill:none;stroke:#fc0000;stroke-width:0.264583px;stroke-linecap:butt;stroke-linejoin:miter;stroke-opacity:1" />
    <path
       id="path931"
       d="m 70.532061,2.7150736 c 0.681853,-0.5538173 0.963531,-0.880357 1.721271,-1.2100632 0.662969,-0.2884681 1.958758,-0.4767615 2.720268,-0.2673406 0.210085,0.057775 0.379278,0.2118468 0.58157,0.2907911 0.320106,0.1249213 0.557655,0.1517489 0.81139,0.4127351 0.169691,0.1745367 0.990343,2.3038445 1.06466,2.6546359 0.05778,0.2727386 -0.150398,2.2689915 -0.300173,2.4482687 -0.271785,0.3253216 -0.800984,0.953458 -1.144389,1.1537817 -0.349507,0.2038813 -0.652999,0.4776719 -0.998987,0.6753842 -0.168733,0.096421 -0.244033,0.1243129 -0.398661,0.1500859 -0.02246,0.00374 -0.0882,0.015539 -0.06566,0.018756 0.570611,0.081451 1.208778,0.081943 1.66968,0.4737103 0.212151,0.180331 0.225557,1.0616493 0.262649,1.2663453 0.09881,0.545298 0.256921,1.093692 0.300162,1.646249 0.04046,0.517083 0.0041,1.043942 0,1.561825 -0.0028,0.349522 0.03014,0.713229 -0.02344,1.05998 -0.05688,0.368061 -0.369337,2.044187 -0.51122,2.204378 -0.219327,0.247628 -0.593556,0.371248 -0.830149,0.614414 -0.151453,0.155663 -0.331483,0.551461 -0.506531,0.628483 -0.04573,0.02012 -0.124894,0.0042 -0.140708,0.05159 -0.02996,0.08978 0.183898,-0.05537 0.262649,-0.107872 0.184179,-0.122787 0.326194,-0.30927 0.398661,-0.520607 0.02477,-0.07224 0.101711,-0.340517 0.07973,-0.417426 -0.03536,-0.123717 -0.108874,-0.29989 -0.103185,-0.290789 0.421651,0.674608 -1.471022,1.714526 -0.2345,1.585273 0.318005,-0.03324 0.634465,-0.08448 0.947401,-0.150081 0.20846,-0.0437 0.526481,-0.154707 0.726964,-0.262654"
       style="fill:none;stroke:#ff0000;stroke-width:0.264583px;stroke-linecap:butt;stroke-linejoin:miter;stroke-opacity:1" />
  </g>
</svg>
