<?xml version="1.0" encoding="UTF-8" standalone="no"?>
<svg
   xmlns:dc="http://purl.org/dc/elements/1.1/"
   xmlns:cc="http://creativecommons.org/ns#"
   xmlns:rdf="http://www.w3.org/1999/02/22-rdf-syntax-ns#"
   xmlns:svg="http://www.w3.org/2000/svg"
   xmlns="http://www.w3.org/2000/svg"
   xmlns:sodipodi="http://sodipodi.sourceforge.net/DTD/sodipodi-0.dtd"
   xmlns:inkscape="http://www.inkscape.org/namespaces/inkscape"
   sodipodi:docname="beta.svg"
   inkscape:version="1.0 (4035a4fb49, 2020-05-01)"
   id="svg8"
   version="1.1"
   viewBox="0 0 100 29.999999"
   height="3cm"
   width="10cm">
  <defs
     id="defs2">
    <inkscape:path-effect
       effect="simplify"
       id="path-effect906"
       is_visible="true"
       lpeversion="1"
       steps="1"
       threshold="0.000408163"
       smooth_angles="360"
       helper_size="0"
       simplify_individual_paths="false"
       simplify_just_coalesce="false" />
    <inkscape:path-effect
       effect="simplify"
       id="path-effect902"
       is_visible="true"
       lpeversion="1"
       steps="1"
       threshold="0.000408163"
       smooth_angles="360"
       helper_size="0"
       simplify_individual_paths="false"
       simplify_just_coalesce="false" />
    <inkscape:path-effect
       effect="simplify"
       id="path-effect898"
       is_visible="true"
       lpeversion="1"
       steps="1"
       threshold="0.000408163"
       smooth_angles="360"
       helper_size="0"
       simplify_individual_paths="false"
       simplify_just_coalesce="false" />
    <inkscape:path-effect
       effect="simplify"
       id="path-effect894"
       is_visible="true"
       lpeversion="1"
       steps="1"
       threshold="0.000408163"
       smooth_angles="360"
       helper_size="0"
       simplify_individual_paths="false"
       simplify_just_coalesce="false" />
    <inkscape:path-effect
       effect="simplify"
       id="path-effect890"
       is_visible="true"
       lpeversion="1"
       steps="1"
       threshold="0.000408163"
       smooth_angles="360"
       helper_size="0"
       simplify_individual_paths="false"
       simplify_just_coalesce="false" />
    <inkscape:path-effect
       effect="simplify"
       id="path-effect886"
       is_visible="true"
       lpeversion="1"
       steps="1"
       threshold="0.000408163"
       smooth_angles="360"
       helper_size="0"
       simplify_individual_paths="false"
       simplify_just_coalesce="false" />
    <inkscape:path-effect
       effect="simplify"
       id="path-effect882"
       is_visible="true"
       lpeversion="1"
       steps="1"
       threshold="0.000408163"
       smooth_angles="360"
       helper_size="0"
       simplify_individual_paths="false"
       simplify_just_coalesce="false" />
    <inkscape:path-effect
       effect="simplify"
       id="path-effect878"
       is_visible="true"
       lpeversion="1"
       steps="1"
       threshold="0.000408163"
       smooth_angles="360"
       helper_size="0"
       simplify_individual_paths="false"
       simplify_just_coalesce="false" />
    <inkscape:path-effect
       effect="simplify"
       id="path-effect874"
       is_visible="true"
       lpeversion="1"
       steps="1"
       threshold="0.000408163"
       smooth_angles="360"
       helper_size="0"
       simplify_individual_paths="false"
       simplify_just_coalesce="false" />
    <inkscape:path-effect
       effect="simplify"
       id="path-effect870"
       is_visible="true"
       lpeversion="1"
       steps="1"
       threshold="0.000408163"
       smooth_angles="360"
       helper_size="0"
       simplify_individual_paths="false"
       simplify_just_coalesce="false" />
    <inkscape:path-effect
       effect="simplify"
       id="path-effect866"
       is_visible="true"
       lpeversion="1"
       steps="1"
       threshold="0.000408163"
       smooth_angles="360"
       helper_size="0"
       simplify_individual_paths="false"
       simplify_just_coalesce="false" />
    <inkscape:path-effect
       effect="simplify"
       id="path-effect862"
       is_visible="true"
       lpeversion="1"
       steps="1"
       threshold="0.000408163"
       smooth_angles="360"
       helper_size="0"
       simplify_individual_paths="false"
       simplify_just_coalesce="false" />
    <inkscape:path-effect
       effect="simplify"
       id="path-effect858"
       is_visible="true"
       lpeversion="1"
       steps="1"
       threshold="0.000408163"
       smooth_angles="360"
       helper_size="0"
       simplify_individual_paths="false"
       simplify_just_coalesce="false" />
    <inkscape:path-effect
       effect="simplify"
       id="path-effect951"
       is_visible="true"
       lpeversion="1"
       steps="1"
       threshold="0.000408163"
       smooth_angles="360"
       helper_size="0"
       simplify_individual_paths="false"
       simplify_just_coalesce="false" />
    <inkscape:path-effect
       effect="simplify"
       id="path-effect947"
       is_visible="true"
       lpeversion="1"
       steps="1"
       threshold="0.000408163"
       smooth_angles="360"
       helper_size="0"
       simplify_individual_paths="false"
       simplify_just_coalesce="false" />
    <inkscape:path-effect
       effect="simplify"
       id="path-effect943"
       is_visible="true"
       lpeversion="1"
       steps="1"
       threshold="0.000408163"
       smooth_angles="360"
       helper_size="0"
       simplify_individual_paths="false"
       simplify_just_coalesce="false" />
    <inkscape:path-effect
       effect="simplify"
       id="path-effect939"
       is_visible="true"
       lpeversion="1"
       steps="1"
       threshold="0.000408163"
       smooth_angles="360"
       helper_size="0"
       simplify_individual_paths="false"
       simplify_just_coalesce="false" />
    <inkscape:path-effect
       effect="simplify"
       id="path-effect935"
       is_visible="true"
       lpeversion="1"
       steps="1"
       threshold="0.000408163"
       smooth_angles="360"
       helper_size="0"
       simplify_individual_paths="false"
       simplify_just_coalesce="false" />
    <inkscape:path-effect
       effect="simplify"
       id="path-effect931"
       is_visible="true"
       lpeversion="1"
       steps="1"
       threshold="0.000408163"
       smooth_angles="360"
       helper_size="0"
       simplify_individual_paths="false"
       simplify_just_coalesce="false" />
    <inkscape:path-effect
       effect="simplify"
       id="path-effect927"
       is_visible="true"
       lpeversion="1"
       steps="1"
       threshold="0.000408163"
       smooth_angles="360"
       helper_size="0"
       simplify_individual_paths="false"
       simplify_just_coalesce="false" />
    <inkscape:path-effect
       effect="simplify"
       id="path-effect923"
       is_visible="true"
       lpeversion="1"
       steps="1"
       threshold="0.000408163"
       smooth_angles="360"
       helper_size="0"
       simplify_individual_paths="false"
       simplify_just_coalesce="false" />
    <inkscape:path-effect
       effect="simplify"
       id="path-effect919"
       is_visible="true"
       lpeversion="1"
       steps="1"
       threshold="0.000408163"
       smooth_angles="360"
       helper_size="0"
       simplify_individual_paths="false"
       simplify_just_coalesce="false" />
    <inkscape:path-effect
       effect="simplify"
       id="path-effect915"
       is_visible="true"
       lpeversion="1"
       steps="1"
       threshold="0.000408163"
       smooth_angles="360"
       helper_size="0"
       simplify_individual_paths="false"
       simplify_just_coalesce="false" />
    <inkscape:path-effect
       effect="simplify"
       id="path-effect911"
       is_visible="true"
       lpeversion="1"
       steps="1"
       threshold="0.000408163"
       smooth_angles="360"
       helper_size="0"
       simplify_individual_paths="false"
       simplify_just_coalesce="false" />
  </defs>
  <sodipodi:namedview
     inkscape:window-maximized="1"
     inkscape:window-y="0"
     inkscape:window-x="0"
     inkscape:window-height="1051"
     inkscape:window-width="1920"
     units="cm"
     showgrid="false"
     inkscape:document-rotation="0"
     inkscape:current-layer="layer1"
     inkscape:document-units="mm"
     inkscape:cy="54.637967"
     inkscape:cx="192.94887"
     inkscape:zoom="3.6797313"
     inkscape:pageshadow="2"
     inkscape:pageopacity="0.0"
     borderopacity="1.0"
     bordercolor="#666666"
     pagecolor="#ffffff"
     id="base" />
  <metadata
     id="metadata5">
    <rdf:RDF>
      <cc:Work
         rdf:about="">
        <dc:format>image/svg+xml</dc:format>
        <dc:type
           rdf:resource="http://purl.org/dc/dcmitype/StillImage" />
        <dc:title />
      </cc:Work>
    </rdf:RDF>
  </metadata>
  <g
     id="layer1"
     inkscape:groupmode="layer"
     inkscape:label="Layer 1">
    <path
       sodipodi:nodetypes="cc"
       id="path10"
       d="m 0,20.132291 102.10211,0"
       style="fill:none;stroke:#2690a7;stroke-width:0.264583px;stroke-linecap:butt;stroke-linejoin:miter;stroke-opacity:0.474099" />
    <path
       sodipodi:nodetypes="cc"
       style="fill:none;stroke:#2690a7;stroke-width:0.264583px;stroke-linecap:butt;stroke-linejoin:miter;stroke-opacity:0.474099"
       d="m 0,0.1322915 101.24145,0"
       id="path12" />
    <path
       sodipodi:nodetypes="cc"
       style="fill:none;stroke:#2690a7;stroke-width:0.265;stroke-linecap:butt;stroke-linejoin:miter;stroke-miterlimit:4;stroke-dasharray:1.06, 1.06;stroke-dashoffset:0;stroke-opacity:0.474099"
       d="m 0,10.132291 101.7922,0"
       id="path14" />
    <path
       style="fill:none;stroke:#000000;stroke-width:0.264583px;stroke-linecap:butt;stroke-linejoin:miter;stroke-opacity:1"
       d="m 62.601368,28.681894 c 0.05786,-0.145807 0.08209,-0.306012 0.165984,-0.440455 0.07265,-0.116424 0.173986,-0.212166 0.281573,-0.29584 0.208448,-0.162116 0.442047,-0.28887 0.681274,-0.398978 0.404965,-0.186392 0.828309,-0.33121 1.258786,-0.445756 0.391944,-0.104293 0.79026,-0.189683 1.194191,-0.2294 0.208003,-0.02045 0.418168,-0.03102 0.626717,-0.01049 0.105123,0.01035 0.207004,0.03927 0.308443,0.06725 0.225152,0.06211 0.448314,0.1332 0.66386,0.223134 0.242438,0.101154 0.452729,0.267484 0.630334,0.458974 0.223683,0.24117 0.402556,0.520662 0.551976,0.812762 0.05979,0.116885 0.127281,0.231698 0.165509,0.357294 0.01752,0.05757 0.02809,0.117012 0.04222,0.175473 0.01181,0.04887 0.02131,0.09856 0.03842,0.145932 0,0 0.0038,0.0069 0.0038,0.0069 0.01399,-0.04456 0.02382,-0.09053 0.03493,-0.135968 0.01338,-0.05473 0.02673,-0.109471 0.04011,-0.164202"
       id="path880"
       inkscape:path-effect="#path-effect882"
       inkscape:original-d="m 62.601368,28.681894 c 0.06254,-0.157903 0.0901,-0.334653 0.187606,-0.47371 0.571005,-0.814316 3.312673,-1.530199 4.164825,-1.322623 0.270936,0.066 0.537464,0.152082 0.797316,0.253264 0.666359,0.259472 1.122101,1.027467 1.3789,1.641563 0.01386,0.03313 0.0663,0.306572 0.08442,0.328311 0.0016,0.0019 0.01558,-0.05698 0.07504,-0.30017" />
    <path
       style="fill:none;stroke:#000000;stroke-width:0.264583px;stroke-linecap:butt;stroke-linejoin:miter;stroke-opacity:1"
       d="m 64.449274,23.452355 c -0.07044,-0.02145 -0.142365,-0.0411 -0.216181,-0.04523 -0.04825,-0.0027 -0.09885,0.002 -0.141697,0.02631 -0.04355,0.02471 -0.07073,0.06987 -0.08589,0.116376 -0.01982,0.06077 -0.02628,0.124989 -0.02847,0.188526 -0.002,0.05816 -0.0032,0.116837 0.0071,0.174418 0.01243,0.06926 0.04259,0.135995 0.09062,0.18801 0.05108,0.05533 0.120342,0.0912 0.192612,0.11016 0.09435,0.02475 0.193724,0.02478 0.289739,0.01081 0.137435,-0.02 0.270593,-0.06665 0.39215,-0.133421 0.1175,-0.06454 0.226166,-0.147922 0.310492,-0.252689 0.05135,-0.0638 0.09414,-0.135517 0.119263,-0.213746 0.02146,-0.06684 0.02616,-0.139627 0.0089,-0.208066 -0.01867,-0.0742 -0.06257,-0.14009 -0.117339,-0.192696 -0.07068,-0.06789 -0.157591,-0.117077 -0.248734,-0.151815 -0.113685,-0.04333 -0.235212,-0.06697 -0.356906,-0.0669 -0.08905,5.2e-5 -0.179391,0.01207 -0.262136,0.04623 -0.06074,0.02508 -0.117368,0.064 -0.155231,0.1185 -0.0051,0.0073 -0.0098,0.01482 -0.01412,0.02257"
       id="path884"
       inkscape:path-effect="#path-effect886"
       inkscape:original-d="m 64.449274,23.452355 c -0.379378,-0.11741 -0.473702,-0.01419 -0.473702,0.361142 0,0.700342 1.147397,0.429177 1.388274,-0.150085 0.248766,-0.598237 -0.907291,-0.871966 -1.130316,-0.473706" />
    <path
       style="fill:none;stroke:#000000;stroke-width:0.264583px;stroke-linecap:butt;stroke-linejoin:miter;stroke-opacity:1"
       d="m 68.313931,23.940131 c -0.08951,-0.092 -0.154779,-0.204772 -0.247098,-0.29423 -0.04023,-0.03899 -0.08571,-0.07428 -0.138229,-0.09459 -0.0448,-0.01733 -0.09483,-0.01537 -0.140653,-0.0033 -0.0659,0.01738 -0.126082,0.05178 -0.180533,0.09202 -0.0853,0.06305 -0.159654,0.140235 -0.223312,0.224841 -0.06361,0.08454 -0.118711,0.176565 -0.154555,0.276358 -0.02303,0.06412 -0.03898,0.132128 -0.03555,0.200657 0.0025,0.04947 0.01768,0.09919 0.04862,0.138522 0.03286,0.04179 0.0815,0.06836 0.131969,0.08277 0.07087,0.02023 0.145682,0.02182 0.218666,0.01604 0.112946,-0.0089 0.224325,-0.03295 0.332685,-0.06528 0.07604,-0.02269 0.150148,-0.05541 0.213036,-0.104455 0.04228,-0.03298 0.07778,-0.07484 0.101758,-0.122977 0.03308,-0.0664 0.04672,-0.140252 0.05627,-0.213185 0.0069,-0.05287 0.01331,-0.105801 0.02057,-0.158636 0.01185,-0.08623 0.02336,-0.172906 0.02317,-0.260056 -1.03e-4,-0.04679 -0.0034,-0.09413 -0.01678,-0.139343 -0.01152,-0.03898 -0.04173,-0.07377 -0.08315,-0.08201 -0.04061,-0.0081 -0.08229,3.83e-4 -0.1212,0.01219 -0.06803,0.02064 -0.132536,0.05116 -0.195766,0.08331 -0.02017,0.01026 -0.04021,0.02077 -0.06016,0.03145"
       id="path888"
       inkscape:path-effect="#path-effect890"
       inkscape:original-d="m 68.313931,23.940131 c -0.125071,-0.128197 -0.212164,-0.310479 -0.37521,-0.384591 -0.427265,-0.194211 -1.425919,1.357275 -0.02344,0.961482 0.113557,-0.03205 0.23309,-0.09054 0.300168,-0.187605 0.0761,-0.110116 0.07916,-0.256838 0.09849,-0.389286 0.08032,-0.550355 -0.0058,-0.618021 -0.450252,-0.3799" />
    <path
       style="fill:none;stroke:#ff6161;stroke-width:0.264583px;stroke-linecap:butt;stroke-linejoin:miter;stroke-opacity:1"
       d="m 72.849271,12.078694 c 0.947193,-0.02776 1.894754,-0.08301 2.842565,-0.05096 0.306714,0.01037 0.615561,0.01243 0.91845,0.06207 0.08412,0.01379 0.165427,0.04034 0.248193,0.06017 0.04857,0.01164 0.09836,0.0175 0.147276,0.02906 0.01066,0.0025 0.02621,-0.007 0.01671,-0.01895 -0.02638,-0.03321 -0.06003,-0.06 -0.09281,-0.08662 -0.12363,-0.100421 -0.254256,-0.19201 -0.388205,-0.278033 -0.109417,-0.07027 -0.219568,-0.140433 -0.33732,-0.195889 -0.04192,-0.01974 -0.08513,-0.03787 -0.131341,-0.04535 -0.154138,-0.02494 -0.310839,-0.02237 -0.466471,-0.02386 -0.161285,-0.0016 -0.324344,-0.0021 -0.482559,-0.03695 -0.02519,-0.0056 -0.06165,0.0025 -0.07483,-0.01969 -0.0066,-0.01109 0.01237,-0.01829 0.02025,-0.01985 0.05379,-0.01065 0.109757,-0.01099 0.164623,-0.01285 0.06771,-0.0023 0.135202,0.0043 0.202416,0.01169 0.313573,0.03472 0.6262,0.08781 0.928729,0.178456 0.216869,0.06498 0.430731,0.147204 0.622947,0.268073 0.114038,0.07171 0.222147,0.155923 0.307235,0.261044 0.06157,0.07607 0.108471,0.168137 0.114383,0.267391 0.0057,0.0963 -0.03019,0.190308 -0.08227,0.269799 -0.07445,0.113652 -0.175015,0.207229 -0.279148,0.293182 -0.219174,0.18091 -0.463537,0.328881 -0.680781,0.51211 -0.08927,0.07529 -0.177459,0.15539 -0.240183,0.254833 -0.02472,0.03918 -0.04499,0.08164 -0.05576,0.126862"
       id="path892"
       inkscape:path-effect="#path-effect894"
       inkscape:original-d="m 72.849271,12.078694 c 1.239996,-0.03626 2.507747,-0.12035 3.747402,0.0094 0.138097,0.01445 0.510913,0.154462 0.412731,0.05628 -0.163546,-0.163545 -0.755927,-0.556304 -0.914569,-0.58627 -0.310904,-0.05873 -0.735028,0.01205 -1.0459,-0.08442 -0.01283,-0.004 0.01945,-0.02227 0.03283,-0.02345 0.09501,-0.0084 0.191186,-0.01413 0.286094,-0.0047 0.572844,0.05695 1.424686,0.212851 1.857285,0.637861 0.750425,0.737262 -1.016696,1.225382 -1.153766,1.801026" />
    <path
       id="path870"
       d="M 6.9062446,27.082546 C 6.6152392,25.720952 6.7882142,24.285052 6.7983716,22.903604 6.8154927,20.575067 7.0261209,18.283659 7.3752558,15.980919 7.9774361,12.009204 8.8108892,8.6515725 12.37492,6.3144775 13.808937,5.374128 17.880887,2.7819961 19.147446,5.2732614 c 0.35723,0.7026555 -0.274305,1.6937709 -0.633166,2.2419011 -0.961916,1.4692465 -3.210392,3.5208415 -4.971521,4.1554885 -0.616457,0.222148 -1.283163,0.260838 -1.876047,0.567512 -0.02222,0.01149 0.05049,0.0048 0.07504,0 0.160448,-0.03128 0.317571,-0.07857 0.478392,-0.107876 0.574418,-0.104663 1.047781,-0.146788 1.65092,-0.145395 1.70434,0.0039 4.120693,0.593159 4.765158,2.424818 0.215512,0.612516 0.213967,1.284709 0.164153,1.922968 -0.0147,0.188337 -0.183181,0.58046 -0.229815,0.689455 -0.47018,1.098915 -0.847094,1.366003 -1.960469,1.716602 -0.06214,0.01957 -1.096521,0.346205 -1.167838,0.351764 -1.337868,0.104289 -1.869708,-0.05784 -3.217419,-0.243888 C 11.647052,18.766849 10.968835,18.718699 10.40038,18.527678 10.02721,18.40228 9.6791215,18.047131 9.3779352,17.913265"
       style="fill:none;stroke:#000000;stroke-width:0.264583px;stroke-linecap:butt;stroke-linejoin:miter;stroke-opacity:1" />
    <path
       id="path877"
       d="m 8.1960259,24.531096 c -0.5342115,-1.33978 -0.4279133,-2.792709 -0.4690113,-4.202391 -0.02213,-0.759033 -0.1233898,-1.532809 -0.075042,-2.293494 0.090889,-1.43 0.7010966,-3.016145 1.3273026,-4.286815 0.2501974,-0.507689 0.5538735,-0.979719 0.80201,-1.486785 0.2089651,-0.427019 0.3825628,-0.869183 0.6237848,-1.280414 0.440837,-0.75153 1.104396,-1.3252453 1.543049,-2.0871262 0.230658,-0.4006213 0.434929,-0.7768551 0.726968,-1.1350204 0.675114,-0.8279797 2.292999,-2.2688159 3.465996,-1.754123 0.71131,0.3121118 -0.962279,2.4593132 -1.219431,2.748438 -0.25253,0.2839288 -0.428197,0.4035798 -0.741038,0.623794 -0.141829,0.099836 -0.28759,0.193965 -0.431492,0.290789 -0.109364,0.073586 -0.219126,0.146581 -0.328307,0.2204398 -0.930809,0.6296748 0.264026,-0.6196325 -0.112563,-0.8911326 -0.258492,-0.1863582 -1.176315,1.0248314 -0.384589,1.1725404 0.14757,0.02753 0.306055,0.05112 0.450251,0.0094 0.277277,-0.08027 0.769697,-0.9051763 1.055275,-0.487776"
       style="fill:none;stroke:#ff0000;stroke-width:0.264583px;stroke-linecap:butt;stroke-linejoin:miter;stroke-opacity:1" />
    <path
       id="path879"
       d="m 12.994015,13.588932 c 0.751231,-0.03925 2.21146,-0.642828 2.87504,-0.239201 0.162155,0.09863 0.238412,0.296162 0.342379,0.454949 0.378015,0.577337 0.539976,1.466487 0.276717,2.124646 -0.07741,0.193541 -0.237407,0.322885 -0.318928,0.511229 -0.165216,0.381708 -0.420564,0.762189 -0.78325,0.994312 -0.477694,0.30573 -2.123177,-0.07092 -2.593633,-0.38459 -0.331582,-0.221078 0.267482,-0.667911 -0.40335,-0.45495 -0.071,0.02254 -0.433556,0.185004 -0.478392,0.314242 -0.06569,0.189335 0.186596,0.266818 0.168844,0.323625 -0.04659,0.149083 -0.240759,0.450444 -0.06097,0.562816 0.07845,0.04903 0.341248,0.171402 0.384589,0.145399 0.09197,-0.05518 -0.111032,-0.183554 -0.164154,-0.276723 -0.1252,-0.219584 -0.380298,-0.64738 -0.375209,-0.905203 0.01453,-0.736254 1.554014,-0.736355 2.091791,-0.736355"
       style="fill:none;stroke:#fd0000;stroke-width:0.264583px;stroke-linecap:butt;stroke-linejoin:miter;stroke-opacity:1" />
    <path
       id="path881"
       d="m 60.289143,4.7104405 c 0.223832,1.4858635 -0.129186,2.9960229 -0.211058,4.4884911 -0.230688,4.2052934 -0.25808,8.4089574 -0.750417,12.5977964 -0.136207,1.158859 -0.435956,2.285518 -0.586263,3.437892 -0.02516,0.192848 -0.05852,0.614072 -0.0469,0.834849 0.004,0.07549 0.08442,0.468281 0.08442,0.136016"
       style="fill:none;stroke:#000000;stroke-width:0.264583px;stroke-linecap:butt;stroke-linejoin:miter;stroke-opacity:1" />
    <path
       id="path883"
       d="m 60.94594,5.0246821 c 2.200889,-2.0188997 4.648618,-0.645082 4.788609,2.0965064 0.05435,1.0644256 -0.665191,2.0434707 -1.528976,2.5842825 -0.115774,0.072486 -0.576779,0.316536 -0.78794,0.417424 -0.104137,0.04976 -0.426207,0.117411 -0.314235,0.145397 0.10858,0.02714 0.217027,-0.05838 0.328305,-0.07035 0.510083,-0.0549 0.784297,-0.120806 1.233501,0.09849 2.311763,1.128591 3.259947,5.057558 2.213735,7.283834 -0.957885,2.038327 -3.13912,2.577281 -5.168506,3.006396 -0.553352,0.117006 -0.681241,-0.182557 -0.764493,-0.623792"
       style="fill:none;stroke:#000000;stroke-width:0.264583px;stroke-linecap:butt;stroke-linejoin:miter;stroke-opacity:1" />
    <path
       id="path887"
       d="m 58.549108,7.3838358 c -0.114126,1.1193864 -0.228251,2.2387732 -0.342376,3.3581602 -0.137578,1.10219 -0.298247,2.201744 -0.412732,3.306572 -0.131447,1.26853 -0.173918,2.551418 -0.290787,3.822487 -0.0027,0.02962 -0.0028,-0.05943 -0.0047,-0.08911 -0.0113,-0.180928 -0.02228,-0.33269 -0.07035,-0.520606 -0.154768,-0.605006 -0.297683,-1.215911 -0.515911,-1.801027 -0.05507,-0.147656 -0.265192,-0.536659 -0.281409,-0.379904 -0.048,0.464018 0.143352,3.074258 0.651926,3.118964 0.31056,0.0273 1.245066,-1.457264 1.519597,-1.805718"
       style="fill:none;stroke:#fd0000;stroke-width:0.264583px;stroke-linecap:butt;stroke-linejoin:miter;stroke-opacity:1" />
    <path
       id="path889"
       d="m 61.53202,6.5865075 c 0.447292,-0.2736405 1.699808,-1.6732527 2.138694,-0.5440598 0.208351,0.5360535 0.235619,1.0922352 0.05628,1.6415597 -0.128672,0.3941339 -0.287197,0.7977245 -0.55812,1.1115698 -0.376909,0.4366215 -0.38677,0.4492853 -0.83484,0.8067088 -0.325154,0.2593745 -0.710438,0.433728 -0.694137,0.417426 0.01244,-0.01243 -0.07846,0.09807 -0.121946,0.112564 -0.0491,0.01637 -0.08947,-0.07298 -0.140703,-0.06566 -0.01034,0.0015 -0.104412,0.03456 -0.11725,0.02814 -0.304051,-0.1520021 0.817343,-1.109516 0.483082,-1.2006842 -0.07794,-0.021257 -0.76912,1.3481932 -0.68007,1.5008542 0.08198,0.140533 0.357696,-0.07211 0.370523,-0.07973 0.421561,-0.25066 0.958559,-0.7690611 1.482074,-0.731666"
       style="fill:none;stroke:#ff0000;stroke-width:0.264583px;stroke-linecap:butt;stroke-linejoin:miter;stroke-opacity:1" />
    <path
       id="path891"
       d="m 63.642575,12.341344 c 0.519039,0.780131 1.342806,1.428211 1.557115,2.340394 0.425347,1.810421 -0.855831,3.239264 -2.148072,4.146112 -0.06649,0.04666 -0.459071,0.400025 -0.605026,0.262649 -0.30063,-0.282958 0.436491,-1.261281 0.581578,-1.505546 0.06627,-0.111572 0.13588,-0.221148 0.201674,-0.333003 0.01595,-0.02712 0.06849,-0.10171 0.04221,-0.08442 -0.210878,0.138736 -0.282408,0.274474 -0.483081,0.436184 -0.09509,0.07662 -1.673349,0.980613 -1.327304,1.34139 0.409028,0.426436 1.009965,0.48746 1.589948,0.478397 0.512019,-0.008 1.141947,-0.501803 1.280403,-0.262649"
       style="fill:none;stroke:#ff0000;stroke-width:0.264583px;stroke-linecap:butt;stroke-linejoin:miter;stroke-opacity:1" />
    <path
       id="path895"
       d="m 82.459321,5.0153014 c 0.312333,2.8861025 0.787786,5.7506866 1.449242,8.5830086 0.246163,1.054066 0.551246,2.079968 0.769181,3.142412 0.174344,0.849936 0.304141,1.711864 0.459629,2.565525 0.05496,0.301771 0.119919,0.844228 0.25796,0.844228 0.13203,0 -0.164023,-0.810399 -0.178228,-0.914581"
       style="fill:none;stroke:#00a9ff;stroke-width:0.264583px;stroke-linecap:butt;stroke-linejoin:miter;stroke-opacity:1" />
    <path
       id="path897"
       d="m 82.459321,5.0153014 c 1.590953,-0.2256407 4.412012,-2.5060913 5.71256,-1.0412161 0.482831,0.5438372 0.758524,1.2968851 0.820764,2.0214613 0.02976,0.3464835 -0.343847,0.6100784 -0.572185,0.8723712 -1.03319,1.1868219 -2.155081,2.2794174 -3.620775,2.8656928 -0.17702,0.070809 -0.336346,0.032503 -0.515914,0.1031849 -0.09794,0.038551 -0.840065,0.3879865 -0.830149,0.4408745 0.03112,0.165981 0.33877,0.02871 0.506532,0.0094 0.274778,-0.03167 0.546148,-0.08902 0.820775,-0.121944 0.862044,-0.103345 1.377375,-0.09784 2.330981,-0.06097 3.287364,0.127104 5.046935,1.174998 5.604695,4.540086 0.243414,1.46857 -0.6702,2.893121 -1.6134,3.953812 -0.273084,0.3071 -1.268118,0.791183 -1.505529,0.909889 -0.684408,0.342209 -1.764467,1.001826 -2.617081,1.069363 -0.769718,0.06097 -1.610765,-0.08706 -2.382583,-0.126638 -0.453875,-0.02328 0.419684,-0.806364 0.619093,-1.214752"
       style="fill:none;stroke:#00a9ff;stroke-width:0.264583px;stroke-linecap:butt;stroke-linejoin:miter;stroke-opacity:1" />
  </g>
</svg>
