<?xml version="1.0" encoding="UTF-8" standalone="no"?>
<svg
   xmlns:dc="http://purl.org/dc/elements/1.1/"
   xmlns:cc="http://creativecommons.org/ns#"
   xmlns:rdf="http://www.w3.org/1999/02/22-rdf-syntax-ns#"
   xmlns:svg="http://www.w3.org/2000/svg"
   xmlns="http://www.w3.org/2000/svg"
   xmlns:sodipodi="http://sodipodi.sourceforge.net/DTD/sodipodi-0.dtd"
   xmlns:inkscape="http://www.inkscape.org/namespaces/inkscape"
   sodipodi:docname="d.svg"
   inkscape:version="1.0 (4035a4fb49, 2020-05-01)"
   id="svg8"
   version="1.1"
   viewBox="0 0 100 29.999999"
   height="3cm"
   width="10cm">
  <defs
     id="defs2">
    <inkscape:path-effect
       simplify_just_coalesce="false"
       simplify_individual_paths="false"
       helper_size="0"
       smooth_angles="360"
       threshold="0.000408163"
       steps="1"
       lpeversion="1"
       is_visible="true"
       id="path-effect908"
       effect="simplify" />
    <inkscape:path-effect
       simplify_just_coalesce="false"
       simplify_individual_paths="false"
       helper_size="0"
       smooth_angles="360"
       threshold="0.000408163"
       steps="1"
       lpeversion="1"
       is_visible="true"
       id="path-effect904"
       effect="simplify" />
    <inkscape:path-effect
       simplify_just_coalesce="false"
       simplify_individual_paths="false"
       helper_size="0"
       smooth_angles="360"
       threshold="0.000408163"
       steps="1"
       lpeversion="1"
       is_visible="true"
       id="path-effect900"
       effect="simplify" />
    <inkscape:path-effect
       simplify_just_coalesce="false"
       simplify_individual_paths="false"
       helper_size="0"
       smooth_angles="360"
       threshold="0.000408163"
       steps="1"
       lpeversion="1"
       is_visible="true"
       id="path-effect896"
       effect="simplify" />
    <inkscape:path-effect
       simplify_just_coalesce="false"
       simplify_individual_paths="false"
       helper_size="0"
       smooth_angles="360"
       threshold="0.000408163"
       steps="1"
       lpeversion="1"
       is_visible="true"
       id="path-effect892"
       effect="simplify" />
    <inkscape:path-effect
       simplify_just_coalesce="false"
       simplify_individual_paths="false"
       helper_size="0"
       smooth_angles="360"
       threshold="0.000408163"
       steps="1"
       lpeversion="1"
       is_visible="true"
       id="path-effect888"
       effect="simplify" />
    <inkscape:path-effect
       simplify_just_coalesce="false"
       simplify_individual_paths="false"
       helper_size="0"
       smooth_angles="360"
       threshold="0.000408163"
       steps="1"
       lpeversion="1"
       is_visible="true"
       id="path-effect884"
       effect="simplify" />
    <inkscape:path-effect
       simplify_just_coalesce="false"
       simplify_individual_paths="false"
       helper_size="0"
       smooth_angles="360"
       threshold="0.000408163"
       steps="1"
       lpeversion="1"
       is_visible="true"
       id="path-effect880"
       effect="simplify" />
    <inkscape:path-effect
       simplify_just_coalesce="false"
       simplify_individual_paths="false"
       helper_size="0"
       smooth_angles="360"
       threshold="0.000408163"
       steps="1"
       lpeversion="1"
       is_visible="true"
       id="path-effect876"
       effect="simplify" />
    <inkscape:path-effect
       simplify_just_coalesce="false"
       simplify_individual_paths="false"
       helper_size="0"
       smooth_angles="360"
       threshold="0.000408163"
       steps="1"
       lpeversion="1"
       is_visible="true"
       id="path-effect872"
       effect="simplify" />
    <inkscape:path-effect
       effect="simplify"
       id="path-effect906"
       is_visible="true"
       lpeversion="1"
       steps="1"
       threshold="0.000408163"
       smooth_angles="360"
       helper_size="0"
       simplify_individual_paths="false"
       simplify_just_coalesce="false" />
    <inkscape:path-effect
       effect="simplify"
       id="path-effect902"
       is_visible="true"
       lpeversion="1"
       steps="1"
       threshold="0.000408163"
       smooth_angles="360"
       helper_size="0"
       simplify_individual_paths="false"
       simplify_just_coalesce="false" />
    <inkscape:path-effect
       effect="simplify"
       id="path-effect898"
       is_visible="true"
       lpeversion="1"
       steps="1"
       threshold="0.000408163"
       smooth_angles="360"
       helper_size="0"
       simplify_individual_paths="false"
       simplify_just_coalesce="false" />
    <inkscape:path-effect
       effect="simplify"
       id="path-effect894"
       is_visible="true"
       lpeversion="1"
       steps="1"
       threshold="0.000408163"
       smooth_angles="360"
       helper_size="0"
       simplify_individual_paths="false"
       simplify_just_coalesce="false" />
    <inkscape:path-effect
       effect="simplify"
       id="path-effect890"
       is_visible="true"
       lpeversion="1"
       steps="1"
       threshold="0.000408163"
       smooth_angles="360"
       helper_size="0"
       simplify_individual_paths="false"
       simplify_just_coalesce="false" />
    <inkscape:path-effect
       effect="simplify"
       id="path-effect886"
       is_visible="true"
       lpeversion="1"
       steps="1"
       threshold="0.000408163"
       smooth_angles="360"
       helper_size="0"
       simplify_individual_paths="false"
       simplify_just_coalesce="false" />
    <inkscape:path-effect
       effect="simplify"
       id="path-effect882"
       is_visible="true"
       lpeversion="1"
       steps="1"
       threshold="0.000408163"
       smooth_angles="360"
       helper_size="0"
       simplify_individual_paths="false"
       simplify_just_coalesce="false" />
    <inkscape:path-effect
       effect="simplify"
       id="path-effect878"
       is_visible="true"
       lpeversion="1"
       steps="1"
       threshold="0.000408163"
       smooth_angles="360"
       helper_size="0"
       simplify_individual_paths="false"
       simplify_just_coalesce="false" />
    <inkscape:path-effect
       effect="simplify"
       id="path-effect874"
       is_visible="true"
       lpeversion="1"
       steps="1"
       threshold="0.000408163"
       smooth_angles="360"
       helper_size="0"
       simplify_individual_paths="false"
       simplify_just_coalesce="false" />
    <inkscape:path-effect
       effect="simplify"
       id="path-effect870"
       is_visible="true"
       lpeversion="1"
       steps="1"
       threshold="0.000408163"
       smooth_angles="360"
       helper_size="0"
       simplify_individual_paths="false"
       simplify_just_coalesce="false" />
    <inkscape:path-effect
       effect="simplify"
       id="path-effect866"
       is_visible="true"
       lpeversion="1"
       steps="1"
       threshold="0.000408163"
       smooth_angles="360"
       helper_size="0"
       simplify_individual_paths="false"
       simplify_just_coalesce="false" />
    <inkscape:path-effect
       effect="simplify"
       id="path-effect862"
       is_visible="true"
       lpeversion="1"
       steps="1"
       threshold="0.000408163"
       smooth_angles="360"
       helper_size="0"
       simplify_individual_paths="false"
       simplify_just_coalesce="false" />
    <inkscape:path-effect
       effect="simplify"
       id="path-effect858"
       is_visible="true"
       lpeversion="1"
       steps="1"
       threshold="0.000408163"
       smooth_angles="360"
       helper_size="0"
       simplify_individual_paths="false"
       simplify_just_coalesce="false" />
    <inkscape:path-effect
       effect="simplify"
       id="path-effect951"
       is_visible="true"
       lpeversion="1"
       steps="1"
       threshold="0.000408163"
       smooth_angles="360"
       helper_size="0"
       simplify_individual_paths="false"
       simplify_just_coalesce="false" />
    <inkscape:path-effect
       effect="simplify"
       id="path-effect947"
       is_visible="true"
       lpeversion="1"
       steps="1"
       threshold="0.000408163"
       smooth_angles="360"
       helper_size="0"
       simplify_individual_paths="false"
       simplify_just_coalesce="false" />
    <inkscape:path-effect
       effect="simplify"
       id="path-effect943"
       is_visible="true"
       lpeversion="1"
       steps="1"
       threshold="0.000408163"
       smooth_angles="360"
       helper_size="0"
       simplify_individual_paths="false"
       simplify_just_coalesce="false" />
    <inkscape:path-effect
       effect="simplify"
       id="path-effect939"
       is_visible="true"
       lpeversion="1"
       steps="1"
       threshold="0.000408163"
       smooth_angles="360"
       helper_size="0"
       simplify_individual_paths="false"
       simplify_just_coalesce="false" />
    <inkscape:path-effect
       effect="simplify"
       id="path-effect935"
       is_visible="true"
       lpeversion="1"
       steps="1"
       threshold="0.000408163"
       smooth_angles="360"
       helper_size="0"
       simplify_individual_paths="false"
       simplify_just_coalesce="false" />
    <inkscape:path-effect
       effect="simplify"
       id="path-effect931"
       is_visible="true"
       lpeversion="1"
       steps="1"
       threshold="0.000408163"
       smooth_angles="360"
       helper_size="0"
       simplify_individual_paths="false"
       simplify_just_coalesce="false" />
    <inkscape:path-effect
       effect="simplify"
       id="path-effect927"
       is_visible="true"
       lpeversion="1"
       steps="1"
       threshold="0.000408163"
       smooth_angles="360"
       helper_size="0"
       simplify_individual_paths="false"
       simplify_just_coalesce="false" />
    <inkscape:path-effect
       effect="simplify"
       id="path-effect923"
       is_visible="true"
       lpeversion="1"
       steps="1"
       threshold="0.000408163"
       smooth_angles="360"
       helper_size="0"
       simplify_individual_paths="false"
       simplify_just_coalesce="false" />
    <inkscape:path-effect
       effect="simplify"
       id="path-effect919"
       is_visible="true"
       lpeversion="1"
       steps="1"
       threshold="0.000408163"
       smooth_angles="360"
       helper_size="0"
       simplify_individual_paths="false"
       simplify_just_coalesce="false" />
    <inkscape:path-effect
       effect="simplify"
       id="path-effect915"
       is_visible="true"
       lpeversion="1"
       steps="1"
       threshold="0.000408163"
       smooth_angles="360"
       helper_size="0"
       simplify_individual_paths="false"
       simplify_just_coalesce="false" />
    <inkscape:path-effect
       effect="simplify"
       id="path-effect911"
       is_visible="true"
       lpeversion="1"
       steps="1"
       threshold="0.000408163"
       smooth_angles="360"
       helper_size="0"
       simplify_individual_paths="false"
       simplify_just_coalesce="false" />
  </defs>
  <sodipodi:namedview
     inkscape:window-maximized="1"
     inkscape:window-y="0"
     inkscape:window-x="0"
     inkscape:window-height="1051"
     inkscape:window-width="1920"
     units="cm"
     showgrid="false"
     inkscape:document-rotation="0"
     inkscape:current-layer="layer1"
     inkscape:document-units="mm"
     inkscape:cy="54.366208"
     inkscape:cx="192.94887"
     inkscape:zoom="3.6797313"
     inkscape:pageshadow="2"
     inkscape:pageopacity="0.0"
     borderopacity="1.0"
     bordercolor="#666666"
     pagecolor="#ffffff"
     id="base" />
  <metadata
     id="metadata5">
    <rdf:RDF>
      <cc:Work
         rdf:about="">
        <dc:format>image/svg+xml</dc:format>
        <dc:type
           rdf:resource="http://purl.org/dc/dcmitype/StillImage" />
        <dc:title />
      </cc:Work>
    </rdf:RDF>
  </metadata>
  <g
     id="layer1"
     inkscape:groupmode="layer"
     inkscape:label="Layer 1">
    <path
       sodipodi:nodetypes="cc"
       id="path10"
       d="m 0,20.132291 102.10211,0"
       style="fill:none;stroke:#2690a7;stroke-width:0.264583px;stroke-linecap:butt;stroke-linejoin:miter;stroke-opacity:0.474099" />
    <path
       sodipodi:nodetypes="cc"
       style="fill:none;stroke:#2690a7;stroke-width:0.264583px;stroke-linecap:butt;stroke-linejoin:miter;stroke-opacity:0.474099"
       d="m 0,0.1322915 101.24145,0"
       id="path12" />
    <path
       sodipodi:nodetypes="cc"
       style="fill:none;stroke:#2690a7;stroke-width:0.265;stroke-linecap:butt;stroke-linejoin:miter;stroke-miterlimit:4;stroke-dasharray:1.06, 1.06;stroke-dashoffset:0;stroke-opacity:0.474099"
       d="m 0,10.132291 101.7922,0"
       id="path14" />
    <path
       inkscape:original-d="m 15.207749,11.661272 c -0.375447,-1.070079 -1.923331,-1.203416 -2.832829,-0.764499 -1.416513,0.683599 -2.8843419,2.293576 -2.9125623,3.949121 -0.013293,0.779813 0.2703298,1.524453 0.5581243,2.232522 0.240225,0.591035 0.483567,1.139501 0.919262,1.613418 0.310467,0.337703 0.746826,1.03824 1.271022,1.055288 0.647869,0.02107 1.252578,-1.830455 1.383583,-2.302872 0.374477,-1.350398 0.589894,-2.741504 0.741038,-4.132037 0.146695,-1.349598 0.246844,-2.705052 0.295478,-4.061689 0.04207,-1.1734225 0.0024,-2.3543365 0.182915,-3.5176266 0.05686,-0.3664177 0.181039,-0.7920537 0.0938,-1.1678515 -0.108669,-0.4681236 -0.342379,-0.6738099 -0.342379,-1.1913042 0,-0.2617218 0.03401,-0.5088456 -0.0094,-0.7691862 -0.02216,-0.1329511 -0.02398,-0.1379849 -0.01407,-0.2767213 0.0017,-0.023854 0.01143,-0.09412 0.01407,-0.070351 0.203868,1.8342421 -0.231751,3.6135238 -0.215746,5.4499752 0.01546,1.7745953 0.390509,3.4288006 0.81608,5.1357356 0.266818,1.070184 0.426141,2.172611 0.576884,3.264358 0.06009,0.435214 0.06926,0.658944 0.182913,1.045906 0.04402,0.149891 0.149029,0.583998 0.182915,0.431495 0.01943,-0.08744 -0.0073,-0.204654 -0.01407,-0.290789"
       inkscape:path-effect="#path-effect872"
       id="path870"
       d="m 15.207749,11.661272 c -0.09494,-0.277258 -0.290129,-0.514436 -0.533945,-0.675136 -0.324991,-0.214203 -0.716348,-0.309845 -1.101872,-0.322504 -0.39747,-0.01305 -0.804419,0.04655 -1.164777,0.217947 -0.5663,0.269357 -1.080001,0.644287 -1.52485,1.084752 -0.490324,0.485492 -0.9065888,1.05558 -1.1673029,1.697237 -0.1797312,0.442346 -0.2734306,0.922345 -0.2487954,1.40072 0.026944,0.523201 0.1753159,1.031414 0.3595408,1.518754 0.1114899,0.29493 0.2286245,0.58784 0.3548105,0.876795 0.176645,0.404501 0.38432,0.801704 0.674877,1.136607 0.07838,0.09034 0.158798,0.178849 0.234833,0.271294 0.196591,0.239018 0.386765,0.489378 0.634208,0.678801 0.144089,0.110303 0.316035,0.204076 0.501466,0.200735 0.141955,-0.0026 0.266449,-0.08838 0.363484,-0.184809 0.180732,-0.179595 0.313651,-0.400749 0.429287,-0.625832 0.209518,-0.407821 0.374223,-0.837542 0.510756,-1.274714 0.096,-0.30738 0.174221,-0.620048 0.248129,-0.933342 0.349376,-1.480999 0.531153,-2.99517 0.666164,-4.508825 0.09708,-1.088405 0.168181,-2.179491 0.19633,-3.271901 0.02658,-1.0314487 0.02483,-2.0661477 0.155453,-3.0921986 0.04256,-0.3343443 0.136602,-0.6622264 0.142179,-1.0011175 0.0024,-0.144205 -0.02528,-0.2867951 -0.06675,-0.4246009 -0.07925,-0.2633322 -0.224773,-0.5029905 -0.279853,-0.7746269 -0.04496,-0.2217466 -0.02074,-0.4486687 -0.0142,-0.6726313 0.0042,-0.1445576 -0.0023,-0.2899042 -0.03005,-0.4320702 -0.01774,-0.091025 -0.0096,-0.1844591 0.0015,-0.2758055 0.0052,-0.042419 0.01016,0.00791 0.01205,0.025663 0.09957,0.934348 0.03291,1.8757506 -0.05368,2.8082592 -0.08789,0.9465358 -0.187469,1.8952378 -0.162218,2.8475127 0.03143,1.1852794 0.229494,2.3590119 0.484516,3.5148439 0.115243,0.522315 0.249708,1.040106 0.372865,1.560557 0.248161,1.048708 0.40728,2.115879 0.545532,3.183672 0.03615,0.279245 0.06064,0.561979 0.139113,0.833312 0.04279,0.147949 0.07169,0.300584 0.127966,0.444013 0.01635,0.04166 0.01326,0.128669 0.0586,0.121974 0.04031,-0.006 0.03305,-0.07591 0.0326,-0.109143 -9.64e-4,-0.07094 -0.01501,-0.140779 -0.02098,-0.2113"
       style="fill:none;stroke:#000000;stroke-width:0.264583px;stroke-linecap:butt;stroke-linejoin:miter;stroke-opacity:1" />
    <path
       inkscape:original-d="M 11.685473,9.8321041 C 10.263562,10.185414 8.6213867,12.164339 8.3179699,13.542031 8.1942976,14.103575 8.123302,14.635801 8.135055,15.211728 c 0.00111,0.05475 0.059667,0.872371 0,0.872371 -0.019587,0 -0.088788,-0.296488 -0.098492,-0.318929 -0.094577,-0.218715 -0.2247172,-0.43315 -0.3611393,-0.628483 -0.063934,-0.09154 -0.2498193,-0.349805 -0.2345049,-0.239201 0.048776,0.352278 0.6514594,1.457212 1.1162469,0.881754 0.2748325,-0.340273 0.4433096,-0.874183 0.5956445,-1.280415"
       inkscape:path-effect="#path-effect876"
       id="path874"
       d="m 11.685473,9.8321041 c -0.334038,0.083947 -0.645274,0.2418629 -0.931506,0.4307409 -0.406566,0.268284 -0.7711196,0.596933 -1.0976685,0.957349 -0.3545372,0.391307 -0.6708459,0.819224 -0.9244399,1.282737 -0.1686305,0.308219 -0.3184397,0.631128 -0.3986914,0.974089 -0.045291,0.193554 -0.083344,0.388823 -0.1147897,0.585098 -0.061511,0.383932 -0.1042944,0.773753 -0.082806,1.162175 0.012621,0.228128 0.032625,0.456478 0.025962,0.684977 -0.00151,0.05162 -0.00883,0.102807 -0.012669,0.154573 -7.351e-4,0.0099 -0.012963,0.0298 -0.020536,0.01291 -0.02267,-0.05056 -0.035313,-0.104921 -0.050137,-0.158141 -0.01422,-0.05105 -0.020484,-0.104847 -0.041627,-0.153441 -0.106328,-0.244367 -0.2450255,-0.473934 -0.4032722,-0.68774 -0.047198,-0.06377 -0.089901,-0.132828 -0.1499673,-0.184998 -0.010472,-0.0091 -0.043819,-0.03674 -0.042997,-0.01149 0.00142,0.04369 0.013632,0.08646 0.026651,0.127958 0.047803,0.152378 0.1173218,0.297595 0.2007077,0.433487 0.084427,0.137588 0.1812447,0.27077 0.3065583,0.373851 0.077362,0.06364 0.1692096,0.116948 0.2711181,0.125343 0.08302,0.0068 0.1650113,-0.02599 0.2288226,-0.078 0.067397,-0.05494 0.1186675,-0.126329 0.1664974,-0.198086 0.1304402,-0.195692 0.2262343,-0.411843 0.3124301,-0.629898 0.070189,-0.177561 0.1328451,-0.357954 0.199699,-0.536768"
       style="fill:none;stroke:#ff0000;stroke-width:0.264583px;stroke-linecap:butt;stroke-linejoin:miter;stroke-opacity:1" />
    <path
       inkscape:original-d="m 15.629861,9.3068057 c 0.219882,-1.2757505 0.436797,-2.555698 0.239194,-3.8459381 -0.0071,-0.046051 -0.02042,-0.606458 -0.05159,-0.6331725 -0.236499,-0.20272 -0.585685,0.8494837 -0.595646,0.8723712 -0.03547,0.081509 -0.15446,0.3195945 -0.107871,0.2438879 0.09015,-0.1464961 0.503,-1.5886678 0.628474,-1.5852756 0.396628,0.010724 0.417216,1.2381732 1.050586,1.3226264"
       inkscape:path-effect="#path-effect880"
       id="path878"
       d="m 15.629861,9.3068057 c 0.124925,-0.7253221 0.249242,-1.45263 0.296967,-2.1879554 0.03587,-0.5526038 -0.01066,-1.1055226 -0.05777,-1.6579827 -0.0057,-0.066617 -0.0072,-0.1335264 -0.0106,-0.2002931 -0.0061,-0.119879 0.0023,-0.2421617 -0.0241,-0.3593237 -0.0066,-0.02934 -0.0036,-0.066095 -0.03369,-0.085771 -0.03458,-0.02259 -0.0797,-0.014058 -0.112828,0.0073 -0.05548,0.035782 -0.09665,0.089134 -0.132788,0.1433825 -0.07425,0.1114576 -0.132447,0.2326694 -0.18589,0.3551706 -0.05418,0.1242008 -0.09255,0.254821 -0.147331,0.3787284 -0.03703,0.083762 -0.07918,0.1651786 -0.115659,0.2491813 0,0 -0.0024,0.00931 -0.0024,0.00931 0.02638,-0.035766 0.04069,-0.078713 0.05606,-0.1199496 0.06108,-0.1639253 0.11507,-0.3303721 0.17114,-0.4960478 0.07832,-0.231416 0.153407,-0.4642443 0.245361,-0.6906679 0.03203,-0.078879 0.05926,-0.1612255 0.106779,-0.2320753 0.01782,-0.026576 0.03707,-0.064574 0.07765,-0.05975 0.06465,0.00768 0.118155,0.050937 0.157886,0.099994 0.06108,0.075413 0.103573,0.1636483 0.142664,0.2518304 0.09213,0.2078387 0.165139,0.4253994 0.283229,0.6207145 0.06436,0.1064479 0.143522,0.2079239 0.249472,0.2757202 0.06002,0.038405 0.128311,0.063779 0.199015,0.072983"
       style="fill:none;stroke:#ff0000;stroke-width:0.264583px;stroke-linecap:butt;stroke-linejoin:miter;stroke-opacity:1" />
    <path
       inkscape:original-d="m 13.645942,3.6973642 c -0.301213,1.0702488 -0.262598,2.2032711 -0.272028,3.3065698 -0.002,0.2325357 -0.01582,0.4626954 -0.03752,0.6941434 -0.0032,0.034562 0.01418,0.1233612 -0.01407,0.1031848 -0.192314,-0.1373658 -0.283058,-0.9036277 -0.567503,-0.8629906 -0.06702,0.00958 0.179342,1.3217186 0.590954,1.2335139 0.483252,-0.1035568 0.726066,-1.0003866 0.881742,-1.4023609 0.03089,-0.079758 0.01696,-0.1857965 0.07973,-0.2438882 0.239201,-0.2213517 0.531016,-0.3779893 0.796524,-0.5669838"
       inkscape:path-effect="#path-effect884"
       id="path882"
       d="m 13.645942,3.6973642 c -0.141001,0.5004979 -0.20777,1.018821 -0.239523,1.5368895 -0.03711,0.6055132 -0.02365,1.2124722 -0.0331,1.8186968 -0.0034,0.2154375 -0.01934,0.4304101 -0.03692,0.6451269 -0.0027,0.033408 0.01469,0.070151 -4.04e-4,0.1004344 -0.0069,0.013888 -0.02083,-0.00221 -0.02702,-0.00793 -0.04591,-0.04233 -0.07543,-0.098863 -0.101358,-0.1547217 -0.07673,-0.1652865 -0.124971,-0.3430607 -0.211778,-0.5036509 -0.03273,-0.060547 -0.06995,-0.1218198 -0.12618,-0.1633969 -0.03261,-0.024113 -0.08585,-0.059545 -0.114829,-0.030545 -0.01669,0.016704 -0.01175,0.044826 -0.01047,0.066413 0.0058,0.09735 0.02358,0.1935884 0.0449,0.2885778 0.03903,0.1738229 0.08864,0.346197 0.161689,0.5089049 0.04281,0.095354 0.09151,0.1900966 0.161741,0.2683221 0.04415,0.049181 0.09984,0.093506 0.167063,0.103645 0.04921,0.00742 0.09822,-0.00783 0.143174,-0.026245 0.109456,-0.044835 0.19929,-0.1268534 0.272717,-0.2178408 0.106278,-0.1316946 0.185894,-0.2824917 0.255427,-0.436089 0.09562,-0.211215 0.173393,-0.429831 0.248154,-0.6490373 0.01217,-0.035678 0.02852,-0.069974 0.03801,-0.1064935 0.01576,-0.060585 0.01065,-0.1288997 0.04574,-0.1824329 0.02678,-0.040855 0.06746,-0.069987 0.104542,-0.1008946 0.223695,-0.1864572 0.479616,-0.3280736 0.716251,-0.4965483"
       style="fill:none;stroke:#ff0000;stroke-width:0.264583px;stroke-linecap:butt;stroke-linejoin:miter;stroke-opacity:1" />
    <path
       inkscape:original-d="m 14.766879,14.836515 c -0.02448,0.807713 0.174624,1.62506 0.347069,2.415435 0.269765,1.236432 -0.05769,-0.28443 0.126633,0.600344 0.0082,0.03935 0.01016,0.153206 0.02814,0.117255 0.135627,-0.271254 -0.68236,-0.344416 -0.642544,-0.318933 0.251731,0.161105 0.486226,0.374181 0.759799,0.50185 0.159377,0.07438 -0.0091,-1.305503 -0.0047,-1.486785 0.01077,-0.443774 0.101628,-0.561259 0.121944,-0.52999 0.235399,0.362322 0.387671,0.772315 0.581507,1.158473"
       inkscape:path-effect="#path-effect888"
       id="path886"
       d="m 14.766879,14.836515 c -0.01228,0.406949 0.03186,0.813474 0.09969,1.214219 0.0751,0.443738 0.177177,0.882224 0.273667,1.321622 0.02844,0.129515 0.112826,0.518262 0.0855,0.388508 -0.01401,-0.0665 -0.0266,-0.133374 -0.0439,-0.199091 -0.0023,-0.0086 4.32e-4,0.0056 4.78e-4,0.0059 0.01893,0.09782 0.0434,0.194582 0.05974,0.292857 0.0062,0.037 0.0051,0.07532 0.01584,0.111438 0,0 0.0048,0.0045 0.0048,0.0045 0.02342,-0.03034 0.02774,-0.07498 0.01172,-0.109858 -0.01912,-0.04162 -0.05719,-0.07074 -0.09606,-0.09263 -0.07645,-0.04305 -0.161313,-0.06875 -0.246443,-0.08797 -0.08536,-0.01928 -0.171937,-0.03579 -0.259431,-0.03927 -0.01469,-5.83e-4 -0.03256,-0.0089 -0.04415,2.95e-4 -0.0081,0.0064 0.006,0.0088 0.0096,0.01119 0.21735,0.140987 0.412786,0.315176 0.640946,0.439195 0.03744,0.02035 0.0719,0.05308 0.114299,0.0575 0.02687,0.0028 0.03678,-0.02945 0.04195,-0.04995 0.01395,-0.05536 0.01699,-0.11276 0.01845,-0.169584 0.0038,-0.146371 -0.0036,-0.292758 -0.01238,-0.43882 -0.01403,-0.232302 -0.03761,-0.463903 -0.05335,-0.696075 -0.0037,-0.05505 -0.0078,-0.110199 -0.0057,-0.165454 0.0044,-0.117551 0.01135,-0.236102 0.03942,-0.350599 0.01088,-0.04438 0.01935,-0.09185 0.04652,-0.12904 0.0073,-0.01 0.021,-0.03518 0.03052,-0.02376 0.02057,0.02468 0.0363,0.05363 0.05306,0.08119 0.154676,0.254284 0.273609,0.527749 0.397751,0.797618 0.04379,0.0952 0.08828,0.19009 0.135291,0.283746"
       style="fill:none;stroke:#ff0000;stroke-width:0.264583px;stroke-linecap:butt;stroke-linejoin:miter;stroke-opacity:1" />
    <path
       inkscape:original-d="m 49.727003,1.4226319 c -0.363387,1.5674648 -0.178356,3.1966848 -0.03283,4.7792823 0.140232,1.5250268 0.0041,3.041342 0.140703,4.5635338 0.08513,0.948565 0.258845,1.883592 0.328308,2.832862 0.04509,0.616241 -0.05814,1.324792 0.06566,1.927659 0.148778,0.724503 0.452612,1.417807 0.529982,2.152791 0.03504,0.332833 -0.294466,0.913118 -0.586267,1.055284 -0.247803,0.120729 -0.568669,0.103409 -0.830149,0.196991 -0.400121,0.143202 -0.743772,0.102999 -1.153768,0.187604 -0.405807,0.08374 -0.157462,0.109662 -0.586264,0.145394 -1.183317,0.09861 -2.160563,-0.626492 -3.109547,-1.242892 -0.523716,-0.340174 -1.05609,-0.764495 -1.331992,-1.34139 -0.261361,-0.546484 -0.225182,-1.292513 -0.215744,-1.880758 0.0082,-0.509832 5.6e-5,-1.159724 0.215744,-1.632179 0.164653,-0.360668 0.456927,-0.634965 0.722275,-0.919273 0.246425,-0.26403 0.487686,-0.617549 0.816084,-0.787947 1.139499,-0.59126 2.451026,-0.47625 3.569176,0.08912 0.447635,0.226336 0.879898,0.668209 1.177219,1.064667 0.03072,0.04097 -0.192688,-0.06124 -0.150083,-0.03283 0.02923,0.01949 0.101854,-0.113217 0.140703,-0.159464"
       inkscape:path-effect="#path-effect892"
       id="path890"
       d="m 49.727003,1.4226319 c -0.20691,0.890562 -0.235282,1.811788 -0.195662,2.7219893 0.03227,0.7412803 0.117619,1.4787774 0.176621,2.218104 0.12076,1.5131802 -0.0083,3.0351964 0.140543,4.5471298 0.0908,0.922158 0.270253,1.83515 0.319306,2.761082 0.02905,0.548426 -0.04093,1.099771 0.02716,1.646371 0.02947,0.236623 0.09048,0.467926 0.154441,0.69714 0.149628,0.536247 0.317915,1.068554 0.404629,1.621294 0.02585,0.164807 -0.02089,0.330835 -0.08625,0.48075 -0.08212,0.188375 -0.195542,0.365043 -0.343468,0.508901 -0.07139,0.06942 -0.159591,0.118956 -0.254049,0.150032 -0.246108,0.08097 -0.510259,0.07988 -0.755901,0.165381 -0.249185,0.08674 -0.514522,0.101103 -0.774902,0.127417 -0.183973,0.01859 -0.368769,0.04437 -0.545496,0.100638 -0.06038,0.01922 -0.11254,0.05826 -0.176154,0.06916 -0.152398,0.0261 -0.30756,0.03617 -0.462049,0.03492 -0.468664,-0.0038 -0.926642,-0.141065 -1.348059,-0.339428 -0.55703,-0.262196 -1.064847,-0.613342 -1.576274,-0.952625 -0.373607,-0.247853 -0.733757,-0.528188 -1.010604,-0.884196 -0.16848,-0.216655 -0.302723,-0.462487 -0.373942,-0.728785 -0.09869,-0.369017 -0.113034,-0.754068 -0.108661,-1.133903 0.0029,-0.255632 0.0059,-0.511279 0.01199,-0.766857 0.0083,-0.35183 0.02728,-0.707292 0.119742,-1.048746 0.05463,-0.201741 0.150687,-0.390426 0.272554,-0.559932 0.208788,-0.290405 0.475691,-0.530738 0.70837,-0.800996 0.177006,-0.205593 0.348952,-0.428401 0.587738,-0.56385 0.191554,-0.108657 0.396397,-0.193302 0.605922,-0.26043 0.625977,-0.200552 1.304323,-0.212735 1.94416,-0.0717 0.399384,0.08803 0.7912,0.22304 1.14773,0.423339 0.300386,0.168757 0.561411,0.399741 0.794536,0.651532 0.111253,0.120161 0.370065,0.222936 0.314623,0.377021 -0.0087,0.02423 -0.05766,-0.0051 -0.0795,-0.01171 -0.01776,-0.0053 -0.07233,-0.01616 -0.06462,-0.0192 0.04576,-0.01803 0.06905,-0.0685 0.09566,-0.107164 0.01263,-0.01835 0.0249,-0.03702 0.03908,-0.05423"
       style="fill:none;stroke:#000000;stroke-width:0.264583px;stroke-linecap:butt;stroke-linejoin:miter;stroke-opacity:1" />
    <path
       inkscape:original-d="m 51.687473,2.1965097 c -0.0813,0.1141278 -0.184269,0.2155769 -0.243888,0.3423835 -0.280326,0.5962499 -0.04803,2.263213 -0.02814,2.9172852 0.04258,1.4003451 -0.01693,2.7336282 0.323617,4.103896 0.11207,0.4509466 0.153181,0.9157716 0.173535,1.3789106 0.0057,0.129159 0.0062,0.265193 -0.0094,0.393976 -0.0044,0.03623 -0.05417,0.09902 -0.01876,0.107872 7.94e-4,1.82e-4 -0.160591,-0.29892 -0.168843,-0.314242 -0.19375,-0.359819 -0.145593,-0.300005 -0.492461,-0.722285 -0.02286,-0.02781 -0.09044,-0.09694 -0.08911,-0.06097 0.01286,0.346946 0.585258,0.734357 0.900501,0.487778 0.494673,-0.386927 0.832051,-1.2188854 1.280404,-1.7494319"
       inkscape:path-effect="#path-effect896"
       id="path894"
       d="m 51.687473,2.1965097 c -0.08722,0.1223248 -0.198893,0.2299339 -0.256656,0.371109 -0.06279,0.1534571 -0.08882,0.3190832 -0.104116,0.4831791 -0.03032,0.3253567 -0.02261,0.6528456 -0.0073,0.9787895 0.01929,0.4097176 0.05918,0.818064 0.08603,1.2272814 0.01434,0.2185392 0.01678,0.4376279 0.02094,0.6565273 0.01664,0.875468 0.01518,1.7539637 0.124406,2.6242865 0.04521,0.360229 0.116132,0.7166793 0.199805,1.0700035 0.106576,0.450034 0.149451,0.91267 0.163645,1.373908 0.0037,0.119515 0.0019,0.239555 -0.01239,0.358452 -0.0039,0.03233 -0.05704,0.08307 -0.02311,0.09852 0.01324,0.006 -0.006,-0.01999 -0.0089,-0.02535 -0.0899,-0.167089 -0.1807,-0.333698 -0.26939,-0.50143 -0.04934,-0.09332 -0.111004,-0.179309 -0.176907,-0.261549 -0.06946,-0.08667 -0.128865,-0.18311 -0.210874,-0.258009 -0.02287,-0.02089 -0.07258,-0.09021 -0.07615,-0.05774 -0.0058,0.05313 0.0118,0.107768 0.03384,0.155741 0.06082,0.132398 0.168404,0.239482 0.291906,0.314386 0.116319,0.07055 0.253625,0.116745 0.391056,0.10088 0.07574,-0.0087 0.14561,-0.04447 0.204264,-0.09284 0.183144,-0.151049 0.328729,-0.341413 0.461753,-0.536479 0.238614,-0.349902 0.436882,-0.7265593 0.692398,-1.064983 0.03326,-0.044055 0.06755,-0.087344 0.103179,-0.1295099"
       style="fill:none;stroke:#ff0000;stroke-width:0.264583px;stroke-linecap:butt;stroke-linejoin:miter;stroke-opacity:1" />
    <path
       inkscape:original-d="m 48.873404,17.866364 c -0.27477,-0.153456 -0.658691,0.235027 -0.928648,0.07504 -0.105336,-0.06243 -0.160078,-0.205793 -0.267335,-0.276723 -0.151852,-0.10042 -0.341286,-0.199311 -0.501843,-0.286098 -0.586645,-0.317104 -1.405223,-0.406424 -1.857282,-0.947416 -0.200504,-0.239949 -0.220279,-0.643257 -0.286097,-0.923964 -0.203015,-0.865805 -0.3347,-0.880602 -0.126635,-1.782265 0.03982,-0.172555 0.06033,-0.337746 0.154774,-0.492467 0.11897,-0.194909 0.292452,-0.38122 0.497149,-0.487776 0.21104,-0.109855 1.293241,-0.293777 1.435179,-0.220439 0.365239,0.188713 0.648661,0.76651 0.900502,1.064671 0.0033,0.0039 0.301807,0.3282 0.351755,0.253266 0.0042,-0.0062 -0.477781,-0.04212 -0.478387,-0.04221 -0.441569,-0.06816 -0.657858,-0.195389 -0.675381,-0.07973 -0.03746,0.247269 0.350499,0.48857 0.567507,0.365834 0.136253,-0.07706 0.266565,-0.175439 0.361141,-0.300171 1.088953,-1.436179 -0.899253,-0.813059 1.416412,-1.364838"
       inkscape:path-effect="#path-effect900"
       id="path898"
       d="m 48.873404,17.866364 c -0.07174,-0.041 -0.158442,-0.04281 -0.23788,-0.02801 -0.161228,0.03004 -0.308138,0.111398 -0.470418,0.137239 -0.07809,0.01243 -0.163138,0.0049 -0.23008,-0.04028 -0.07272,-0.04907 -0.118345,-0.125996 -0.173267,-0.192327 -0.03004,-0.03628 -0.06617,-0.06694 -0.105933,-0.09242 -0.163801,-0.104994 -0.335372,-0.197147 -0.507915,-0.286688 -0.250908,-0.130209 -0.520931,-0.216695 -0.785788,-0.313151 -0.254264,-0.0926 -0.509559,-0.192132 -0.734744,-0.344644 -0.12449,-0.08431 -0.242589,-0.18225 -0.331766,-0.303771 -0.09017,-0.12288 -0.136809,-0.271011 -0.170873,-0.417848 -0.04124,-0.177789 -0.06453,-0.359069 -0.106694,-0.536763 -0.04474,-0.188519 -0.09897,-0.374565 -0.148627,-0.5618 -0.03717,-0.140172 -0.06641,-0.283555 -0.06875,-0.429098 -0.0032,-0.196302 0.03102,-0.39092 0.07177,-0.582159 0.02199,-0.103201 0.04552,-0.206053 0.06765,-0.309229 0.02591,-0.120764 0.06237,-0.24115 0.128709,-0.346638 0.104615,-0.166345 0.238776,-0.317198 0.404254,-0.4246 0.04925,-0.03197 0.10103,-0.06056 0.157,-0.07924 0.133268,-0.04447 0.270738,-0.07498 0.408425,-0.102004 0.217544,-0.04269 0.436612,-0.08074 0.657767,-0.09741 0.08202,-0.0062 0.164497,-0.0099 0.246807,-0.0039 0.04923,0.0036 0.09054,0.03367 0.129611,0.06081 0.128183,0.08903 0.23259,0.2073 0.328003,0.329626 0.14765,0.189297 0.271604,0.395539 0.414745,0.588072 0.03769,0.05069 0.07714,0.100166 0.121731,0.145076 0.06634,0.06681 0.129522,0.140592 0.21181,0.186997 0.02711,0.01529 0.135071,0.02757 0.09598,0.01999 -0.04399,-0.0085 -0.08915,-0.01075 -0.133799,-0.01471 -0.116506,-0.01033 -0.234134,-0.01079 -0.349752,-0.0283 -0.15494,-0.02346 -0.306205,-0.06516 -0.458796,-0.100145 -0.05092,-0.01167 -0.102296,-0.02176 -0.154888,-0.0252 -0.03574,-0.0023 -0.05599,0.02988 -0.05847,0.06378 -0.0061,0.08277 0.03469,0.161905 0.08989,0.220964 0.07713,0.08252 0.181989,0.140479 0.294063,0.156888 0.06761,0.0099 0.13827,-0.0021 0.198246,-0.03668 0.137898,-0.0796 0.265455,-0.180932 0.361007,-0.30962 0.112527,-0.151549 0.220893,-0.309723 0.288988,-0.486695 0.03903,-0.101432 0.06613,-0.212578 0.04668,-0.321593 -0.01172,-0.06572 -0.04629,-0.12489 -0.08914,-0.175237 -0.01684,-0.01979 -0.04724,-0.05447 -0.01436,-0.0748 0.03846,-0.02377 0.0832,-0.0346 0.126513,-0.04571 0.185041,-0.04745 0.371873,-0.08751 0.558041,-0.130218 0.162509,-0.03728 0.324873,-0.0752 0.487061,-0.113857"
       style="fill:none;stroke:#ff0000;stroke-width:0.264583px;stroke-linecap:butt;stroke-linejoin:miter;stroke-opacity:1" />
    <path
       inkscape:original-d="m 54.276415,12.71656 c 1.553464,-0.281152 3.16846,-0.412728 4.751086,-0.365834 0.127643,0.0038 0.552066,0.146012 0.651928,-0.01876 0.122074,-0.201428 -1.647481,-0.849903 -1.317924,-0.58627 0.208632,0.166899 1.256726,0.26796 1.557121,0.436184 0.332885,0.18642 -0.475292,0.94054 -0.511226,0.994317 -0.127066,0.190169 -0.215743,0.403354 -0.323614,0.60503"
       inkscape:path-effect="#path-effect904"
       id="path902"
       d="m 54.276415,12.71656 c 1.303418,-0.235463 2.626649,-0.365502 3.951296,-0.374495 0.270888,-0.0018 0.543312,-0.01999 0.812607,0.0094 0.07512,0.0082 0.148716,0.0262 0.223219,0.03843 0.09025,0.01482 0.182508,0.02928 0.273876,0.01747 0.0512,-0.0066 0.104237,-0.02523 0.1371,-0.06791 0.03066,-0.03982 -0.01207,-0.08573 -0.04089,-0.111713 -0.06533,-0.05889 -0.141677,-0.10399 -0.218677,-0.145642 -0.183631,-0.09933 -0.375466,-0.18305 -0.570892,-0.256075 -0.128934,-0.04818 -0.25709,-0.103847 -0.392923,-0.126997 -0.04153,-0.0071 -0.109489,-0.04871 -0.127648,-0.0089 -0.0094,0.02068 0.01698,0.03818 0.03068,0.04954 0.04798,0.03974 0.10729,0.0622 0.16566,0.08168 0.141993,0.04741 0.288599,0.07904 0.434779,0.110395 0.229908,0.04931 0.462185,0.08901 0.689021,0.151382 0.0913,0.02511 0.182108,0.05364 0.267826,0.09481 0.04423,0.02124 0.0785,0.06337 0.08524,0.11273 0.0092,0.06716 -0.01357,0.133734 -0.04189,0.193591 -0.05324,0.112537 -0.127283,0.213697 -0.204907,0.310421 -0.100171,0.124819 -0.207735,0.243629 -0.320843,0.356683 -0.02686,0.02685 -0.04525,0.06042 -0.06483,0.09257 -0.105223,0.172775 -0.185146,0.359152 -0.280431,0.537281"
       style="fill:none;stroke:#0095ff;stroke-width:0.264583px;stroke-linecap:butt;stroke-linejoin:miter;stroke-opacity:1" />
    <path
       inkscape:original-d="m 65.715607,1.6993532 c 1.637662,0.6562045 3.311004,1.5226762 4.338359,3.0204679 0.823468,1.2005423 1.048227,2.7210575 1.444554,4.0898283 0.407948,1.4089086 0.855956,3.9720166 0.459634,5.3890046 -0.532614,1.904289 -2.102154,3.563185 -3.752093,4.577604 -0.869429,0.534544 -1.76484,1.188727 -2.846901,1.064666 -0.213021,-0.02442 -0.809109,-0.471267 -0.952095,-0.576891 -0.149109,-0.110147 -0.723974,-0.533721 -0.82546,-0.722285 -1.821358,-3.384098 0.775734,-6.341132 3.813063,-7.644975 1.025441,-0.440194 2.766915,-0.9841014 3.822446,-0.314241 0.346782,0.220074 0.487672,0.444571 0.764485,0.708215"
       inkscape:path-effect="#path-effect908"
       id="path906"
       d="m 65.715607,1.6993532 c 0.945419,0.3793531 1.876097,0.815954 2.710305,1.4060015 0.686282,0.4854174 1.303969,1.0828892 1.748973,1.7997751 0.390369,0.6288713 0.634656,1.3344894 0.83285,2.0438395 0.182037,0.6515225 0.339044,1.3095301 0.519523,1.9616164 0.211929,0.7657166 0.370059,1.5465843 0.471273,2.3344723 0.08813,0.686044 0.142327,1.38001 0.098,2.071485 -0.02301,0.358977 -0.08246,0.716195 -0.191322,1.059907 -0.286207,0.903649 -0.790388,1.727107 -1.404109,2.444707 -0.679409,0.794407 -1.499335,1.460853 -2.386844,2.011883 -0.49027,0.304395 -0.975755,0.627454 -1.517979,0.833962 -0.380317,0.144845 -0.790672,0.198702 -1.199156,0.177964 -0.108629,-0.0055 -0.206535,-0.05992 -0.298522,-0.112664 -0.283832,-0.162737 -0.547859,-0.357206 -0.80794,-0.554823 -0.20357,-0.154678 -0.410237,-0.307885 -0.590087,-0.490183 -0.05445,-0.05519 -0.103267,-0.115926 -0.140113,-0.185186 -0.361825,-0.680119 -0.581407,-1.443149 -0.582787,-2.217087 -0.0013,-0.754396 0.216216,-1.499699 0.579829,-2.157796 0.4537,-0.821143 1.112389,-1.51543 1.855985,-2.080547 0.855223,-0.649951 1.823571,-1.151173 2.84744,-1.474102 0.539083,-0.170027 1.098118,-0.297721 1.665489,-0.303944 0.412714,-0.0045 0.837085,0.06038 1.202599,0.261644 0.207807,0.114424 0.387458,0.272639 0.549149,0.445089 0.09978,0.106422 0.197472,0.214965 0.303432,0.31538"
       style="fill:none;stroke:#0094ff;stroke-width:0.264583px;stroke-linecap:butt;stroke-linejoin:miter;stroke-opacity:1" />
  </g>
</svg>
