<?xml version="1.0" encoding="UTF-8" standalone="no"?>
<svg
   xmlns:dc="http://purl.org/dc/elements/1.1/"
   xmlns:cc="http://creativecommons.org/ns#"
   xmlns:rdf="http://www.w3.org/1999/02/22-rdf-syntax-ns#"
   xmlns:svg="http://www.w3.org/2000/svg"
   xmlns="http://www.w3.org/2000/svg"
   xmlns:sodipodi="http://sodipodi.sourceforge.net/DTD/sodipodi-0.dtd"
   xmlns:inkscape="http://www.inkscape.org/namespaces/inkscape"
   sodipodi:docname="delta.svg"
   inkscape:version="1.0 (4035a4fb49, 2020-05-01)"
   id="svg8"
   version="1.1"
   viewBox="0 0 100 29.999999"
   height="3cm"
   width="10cm">
  <defs
     id="defs2">
    <inkscape:path-effect
       effect="simplify"
       id="path-effect887"
       is_visible="true"
       lpeversion="1"
       steps="1"
       threshold="0.000408163"
       smooth_angles="360"
       helper_size="0"
       simplify_individual_paths="false"
       simplify_just_coalesce="false" />
    <inkscape:path-effect
       effect="simplify"
       id="path-effect883"
       is_visible="true"
       lpeversion="1"
       steps="1"
       threshold="0.000408163"
       smooth_angles="360"
       helper_size="0"
       simplify_individual_paths="false"
       simplify_just_coalesce="false" />
    <inkscape:path-effect
       effect="simplify"
       id="path-effect879"
       is_visible="true"
       lpeversion="1"
       steps="1"
       threshold="0.000408163"
       smooth_angles="360"
       helper_size="0"
       simplify_individual_paths="false"
       simplify_just_coalesce="false" />
    <inkscape:path-effect
       simplify_just_coalesce="false"
       simplify_individual_paths="false"
       helper_size="0"
       smooth_angles="360"
       threshold="0.000408163"
       steps="1"
       lpeversion="1"
       is_visible="true"
       id="path-effect908"
       effect="simplify" />
    <inkscape:path-effect
       simplify_just_coalesce="false"
       simplify_individual_paths="false"
       helper_size="0"
       smooth_angles="360"
       threshold="0.000408163"
       steps="1"
       lpeversion="1"
       is_visible="true"
       id="path-effect904"
       effect="simplify" />
    <inkscape:path-effect
       simplify_just_coalesce="false"
       simplify_individual_paths="false"
       helper_size="0"
       smooth_angles="360"
       threshold="0.000408163"
       steps="1"
       lpeversion="1"
       is_visible="true"
       id="path-effect900"
       effect="simplify" />
    <inkscape:path-effect
       simplify_just_coalesce="false"
       simplify_individual_paths="false"
       helper_size="0"
       smooth_angles="360"
       threshold="0.000408163"
       steps="1"
       lpeversion="1"
       is_visible="true"
       id="path-effect896"
       effect="simplify" />
    <inkscape:path-effect
       simplify_just_coalesce="false"
       simplify_individual_paths="false"
       helper_size="0"
       smooth_angles="360"
       threshold="0.000408163"
       steps="1"
       lpeversion="1"
       is_visible="true"
       id="path-effect892"
       effect="simplify" />
    <inkscape:path-effect
       simplify_just_coalesce="false"
       simplify_individual_paths="false"
       helper_size="0"
       smooth_angles="360"
       threshold="0.000408163"
       steps="1"
       lpeversion="1"
       is_visible="true"
       id="path-effect888"
       effect="simplify" />
    <inkscape:path-effect
       simplify_just_coalesce="false"
       simplify_individual_paths="false"
       helper_size="0"
       smooth_angles="360"
       threshold="0.000408163"
       steps="1"
       lpeversion="1"
       is_visible="true"
       id="path-effect884"
       effect="simplify" />
    <inkscape:path-effect
       simplify_just_coalesce="false"
       simplify_individual_paths="false"
       helper_size="0"
       smooth_angles="360"
       threshold="0.000408163"
       steps="1"
       lpeversion="1"
       is_visible="true"
       id="path-effect880"
       effect="simplify" />
    <inkscape:path-effect
       simplify_just_coalesce="false"
       simplify_individual_paths="false"
       helper_size="0"
       smooth_angles="360"
       threshold="0.000408163"
       steps="1"
       lpeversion="1"
       is_visible="true"
       id="path-effect876"
       effect="simplify" />
    <inkscape:path-effect
       simplify_just_coalesce="false"
       simplify_individual_paths="false"
       helper_size="0"
       smooth_angles="360"
       threshold="0.000408163"
       steps="1"
       lpeversion="1"
       is_visible="true"
       id="path-effect872"
       effect="simplify" />
    <inkscape:path-effect
       effect="simplify"
       id="path-effect906"
       is_visible="true"
       lpeversion="1"
       steps="1"
       threshold="0.000408163"
       smooth_angles="360"
       helper_size="0"
       simplify_individual_paths="false"
       simplify_just_coalesce="false" />
    <inkscape:path-effect
       effect="simplify"
       id="path-effect902"
       is_visible="true"
       lpeversion="1"
       steps="1"
       threshold="0.000408163"
       smooth_angles="360"
       helper_size="0"
       simplify_individual_paths="false"
       simplify_just_coalesce="false" />
    <inkscape:path-effect
       effect="simplify"
       id="path-effect898"
       is_visible="true"
       lpeversion="1"
       steps="1"
       threshold="0.000408163"
       smooth_angles="360"
       helper_size="0"
       simplify_individual_paths="false"
       simplify_just_coalesce="false" />
    <inkscape:path-effect
       effect="simplify"
       id="path-effect894"
       is_visible="true"
       lpeversion="1"
       steps="1"
       threshold="0.000408163"
       smooth_angles="360"
       helper_size="0"
       simplify_individual_paths="false"
       simplify_just_coalesce="false" />
    <inkscape:path-effect
       effect="simplify"
       id="path-effect890"
       is_visible="true"
       lpeversion="1"
       steps="1"
       threshold="0.000408163"
       smooth_angles="360"
       helper_size="0"
       simplify_individual_paths="false"
       simplify_just_coalesce="false" />
    <inkscape:path-effect
       effect="simplify"
       id="path-effect886"
       is_visible="true"
       lpeversion="1"
       steps="1"
       threshold="0.000408163"
       smooth_angles="360"
       helper_size="0"
       simplify_individual_paths="false"
       simplify_just_coalesce="false" />
    <inkscape:path-effect
       effect="simplify"
       id="path-effect882"
       is_visible="true"
       lpeversion="1"
       steps="1"
       threshold="0.000408163"
       smooth_angles="360"
       helper_size="0"
       simplify_individual_paths="false"
       simplify_just_coalesce="false" />
    <inkscape:path-effect
       effect="simplify"
       id="path-effect878"
       is_visible="true"
       lpeversion="1"
       steps="1"
       threshold="0.000408163"
       smooth_angles="360"
       helper_size="0"
       simplify_individual_paths="false"
       simplify_just_coalesce="false" />
    <inkscape:path-effect
       effect="simplify"
       id="path-effect874"
       is_visible="true"
       lpeversion="1"
       steps="1"
       threshold="0.000408163"
       smooth_angles="360"
       helper_size="0"
       simplify_individual_paths="false"
       simplify_just_coalesce="false" />
    <inkscape:path-effect
       effect="simplify"
       id="path-effect870"
       is_visible="true"
       lpeversion="1"
       steps="1"
       threshold="0.000408163"
       smooth_angles="360"
       helper_size="0"
       simplify_individual_paths="false"
       simplify_just_coalesce="false" />
    <inkscape:path-effect
       effect="simplify"
       id="path-effect866"
       is_visible="true"
       lpeversion="1"
       steps="1"
       threshold="0.000408163"
       smooth_angles="360"
       helper_size="0"
       simplify_individual_paths="false"
       simplify_just_coalesce="false" />
    <inkscape:path-effect
       effect="simplify"
       id="path-effect862"
       is_visible="true"
       lpeversion="1"
       steps="1"
       threshold="0.000408163"
       smooth_angles="360"
       helper_size="0"
       simplify_individual_paths="false"
       simplify_just_coalesce="false" />
    <inkscape:path-effect
       effect="simplify"
       id="path-effect858"
       is_visible="true"
       lpeversion="1"
       steps="1"
       threshold="0.000408163"
       smooth_angles="360"
       helper_size="0"
       simplify_individual_paths="false"
       simplify_just_coalesce="false" />
    <inkscape:path-effect
       effect="simplify"
       id="path-effect951"
       is_visible="true"
       lpeversion="1"
       steps="1"
       threshold="0.000408163"
       smooth_angles="360"
       helper_size="0"
       simplify_individual_paths="false"
       simplify_just_coalesce="false" />
    <inkscape:path-effect
       effect="simplify"
       id="path-effect947"
       is_visible="true"
       lpeversion="1"
       steps="1"
       threshold="0.000408163"
       smooth_angles="360"
       helper_size="0"
       simplify_individual_paths="false"
       simplify_just_coalesce="false" />
    <inkscape:path-effect
       effect="simplify"
       id="path-effect943"
       is_visible="true"
       lpeversion="1"
       steps="1"
       threshold="0.000408163"
       smooth_angles="360"
       helper_size="0"
       simplify_individual_paths="false"
       simplify_just_coalesce="false" />
    <inkscape:path-effect
       effect="simplify"
       id="path-effect939"
       is_visible="true"
       lpeversion="1"
       steps="1"
       threshold="0.000408163"
       smooth_angles="360"
       helper_size="0"
       simplify_individual_paths="false"
       simplify_just_coalesce="false" />
    <inkscape:path-effect
       effect="simplify"
       id="path-effect935"
       is_visible="true"
       lpeversion="1"
       steps="1"
       threshold="0.000408163"
       smooth_angles="360"
       helper_size="0"
       simplify_individual_paths="false"
       simplify_just_coalesce="false" />
    <inkscape:path-effect
       effect="simplify"
       id="path-effect931"
       is_visible="true"
       lpeversion="1"
       steps="1"
       threshold="0.000408163"
       smooth_angles="360"
       helper_size="0"
       simplify_individual_paths="false"
       simplify_just_coalesce="false" />
    <inkscape:path-effect
       effect="simplify"
       id="path-effect927"
       is_visible="true"
       lpeversion="1"
       steps="1"
       threshold="0.000408163"
       smooth_angles="360"
       helper_size="0"
       simplify_individual_paths="false"
       simplify_just_coalesce="false" />
    <inkscape:path-effect
       effect="simplify"
       id="path-effect923"
       is_visible="true"
       lpeversion="1"
       steps="1"
       threshold="0.000408163"
       smooth_angles="360"
       helper_size="0"
       simplify_individual_paths="false"
       simplify_just_coalesce="false" />
    <inkscape:path-effect
       effect="simplify"
       id="path-effect919"
       is_visible="true"
       lpeversion="1"
       steps="1"
       threshold="0.000408163"
       smooth_angles="360"
       helper_size="0"
       simplify_individual_paths="false"
       simplify_just_coalesce="false" />
    <inkscape:path-effect
       effect="simplify"
       id="path-effect915"
       is_visible="true"
       lpeversion="1"
       steps="1"
       threshold="0.000408163"
       smooth_angles="360"
       helper_size="0"
       simplify_individual_paths="false"
       simplify_just_coalesce="false" />
    <inkscape:path-effect
       effect="simplify"
       id="path-effect911"
       is_visible="true"
       lpeversion="1"
       steps="1"
       threshold="0.000408163"
       smooth_angles="360"
       helper_size="0"
       simplify_individual_paths="false"
       simplify_just_coalesce="false" />
  </defs>
  <sodipodi:namedview
     inkscape:window-maximized="1"
     inkscape:window-y="0"
     inkscape:window-x="0"
     inkscape:window-height="1051"
     inkscape:window-width="1920"
     units="cm"
     showgrid="false"
     inkscape:document-rotation="0"
     inkscape:current-layer="layer1"
     inkscape:document-units="mm"
     inkscape:cy="53.82269"
     inkscape:cx="192.94887"
     inkscape:zoom="3.6797313"
     inkscape:pageshadow="2"
     inkscape:pageopacity="0.0"
     borderopacity="1.0"
     bordercolor="#666666"
     pagecolor="#ffffff"
     id="base" />
  <metadata
     id="metadata5">
    <rdf:RDF>
      <cc:Work
         rdf:about="">
        <dc:format>image/svg+xml</dc:format>
        <dc:type
           rdf:resource="http://purl.org/dc/dcmitype/StillImage" />
        <dc:title />
      </cc:Work>
    </rdf:RDF>
  </metadata>
  <g
     id="layer1"
     inkscape:groupmode="layer"
     inkscape:label="Layer 1">
    <path
       sodipodi:nodetypes="cc"
       id="path10"
       d="m 0,20.132291 102.10211,0"
       style="fill:none;stroke:#2690a7;stroke-width:0.264583px;stroke-linecap:butt;stroke-linejoin:miter;stroke-opacity:0.474099" />
    <path
       sodipodi:nodetypes="cc"
       style="fill:none;stroke:#2690a7;stroke-width:0.264583px;stroke-linecap:butt;stroke-linejoin:miter;stroke-opacity:0.474099"
       d="m 0,0.1322915 101.24145,0"
       id="path12" />
    <path
       sodipodi:nodetypes="cc"
       style="fill:none;stroke:#2690a7;stroke-width:0.265;stroke-linecap:butt;stroke-linejoin:miter;stroke-miterlimit:4;stroke-dasharray:1.06, 1.06;stroke-dashoffset:0;stroke-opacity:0.474099"
       d="m 0,10.132291 101.7922,0"
       id="path14" />
    <path
       inkscape:original-d="m 54.276415,12.71656 c 1.553464,-0.281152 3.16846,-0.412728 4.751086,-0.365834 0.127643,0.0038 0.552066,0.146012 0.651928,-0.01876 0.122074,-0.201428 -1.647481,-0.849903 -1.317924,-0.58627 0.208632,0.166899 1.256726,0.26796 1.557121,0.436184 0.332885,0.18642 -0.475292,0.94054 -0.511226,0.994317 -0.127066,0.190169 -0.215743,0.403354 -0.323614,0.60503"
       inkscape:path-effect="#path-effect904"
       id="path902"
       d="m 54.276415,12.71656 c 1.303418,-0.235463 2.626649,-0.365502 3.951296,-0.374495 0.270888,-0.0018 0.543312,-0.01999 0.812607,0.0094 0.07512,0.0082 0.148716,0.0262 0.223219,0.03843 0.09025,0.01482 0.182508,0.02928 0.273876,0.01747 0.0512,-0.0066 0.104237,-0.02523 0.1371,-0.06791 0.03066,-0.03982 -0.01207,-0.08573 -0.04089,-0.111713 -0.06533,-0.05889 -0.141677,-0.10399 -0.218677,-0.145642 -0.183631,-0.09933 -0.375466,-0.18305 -0.570892,-0.256075 -0.128934,-0.04818 -0.25709,-0.103847 -0.392923,-0.126997 -0.04153,-0.0071 -0.109489,-0.04871 -0.127648,-0.0089 -0.0094,0.02068 0.01698,0.03818 0.03068,0.04954 0.04798,0.03974 0.10729,0.0622 0.16566,0.08168 0.141993,0.04741 0.288599,0.07904 0.434779,0.110395 0.229908,0.04931 0.462185,0.08901 0.689021,0.151382 0.0913,0.02511 0.182108,0.05364 0.267826,0.09481 0.04423,0.02124 0.0785,0.06337 0.08524,0.11273 0.0092,0.06716 -0.01357,0.133734 -0.04189,0.193591 -0.05324,0.112537 -0.127283,0.213697 -0.204907,0.310421 -0.100171,0.124819 -0.207735,0.243629 -0.320843,0.356683 -0.02686,0.02685 -0.04525,0.06042 -0.06483,0.09257 -0.105223,0.172775 -0.185146,0.359152 -0.280431,0.537281"
       style="fill:none;stroke:#0095ff;stroke-width:0.264583px;stroke-linecap:butt;stroke-linejoin:miter;stroke-opacity:1" />
    <path
       inkscape:original-d="m 65.715607,1.6993532 c 1.637662,0.6562045 3.311004,1.5226762 4.338359,3.0204679 0.823468,1.2005423 1.048227,2.7210575 1.444554,4.0898283 0.407948,1.4089086 0.855956,3.9720166 0.459634,5.3890046 -0.532614,1.904289 -2.102154,3.563185 -3.752093,4.577604 -0.869429,0.534544 -1.76484,1.188727 -2.846901,1.064666 -0.213021,-0.02442 -0.809109,-0.471267 -0.952095,-0.576891 -0.149109,-0.110147 -0.723974,-0.533721 -0.82546,-0.722285 -1.821358,-3.384098 0.775734,-6.341132 3.813063,-7.644975 1.025441,-0.440194 2.766915,-0.9841014 3.822446,-0.314241 0.346782,0.220074 0.487672,0.444571 0.764485,0.708215"
       inkscape:path-effect="#path-effect908"
       id="path906"
       d="m 65.715607,1.6993532 c 0.945419,0.3793531 1.876097,0.815954 2.710305,1.4060015 0.686282,0.4854174 1.303969,1.0828892 1.748973,1.7997751 0.390369,0.6288713 0.634656,1.3344894 0.83285,2.0438395 0.182037,0.6515225 0.339044,1.3095301 0.519523,1.9616164 0.211929,0.7657166 0.370059,1.5465843 0.471273,2.3344723 0.08813,0.686044 0.142327,1.38001 0.098,2.071485 -0.02301,0.358977 -0.08246,0.716195 -0.191322,1.059907 -0.286207,0.903649 -0.790388,1.727107 -1.404109,2.444707 -0.679409,0.794407 -1.499335,1.460853 -2.386844,2.011883 -0.49027,0.304395 -0.975755,0.627454 -1.517979,0.833962 -0.380317,0.144845 -0.790672,0.198702 -1.199156,0.177964 -0.108629,-0.0055 -0.206535,-0.05992 -0.298522,-0.112664 -0.283832,-0.162737 -0.547859,-0.357206 -0.80794,-0.554823 -0.20357,-0.154678 -0.410237,-0.307885 -0.590087,-0.490183 -0.05445,-0.05519 -0.103267,-0.115926 -0.140113,-0.185186 -0.361825,-0.680119 -0.581407,-1.443149 -0.582787,-2.217087 -0.0013,-0.754396 0.216216,-1.499699 0.579829,-2.157796 0.4537,-0.821143 1.112389,-1.51543 1.855985,-2.080547 0.855223,-0.649951 1.823571,-1.151173 2.84744,-1.474102 0.539083,-0.170027 1.098118,-0.297721 1.665489,-0.303944 0.412714,-0.0045 0.837085,0.06038 1.202599,0.261644 0.207807,0.114424 0.387458,0.272639 0.549149,0.445089 0.09978,0.106422 0.197472,0.214965 0.303432,0.31538"
       style="fill:none;stroke:#0094ff;stroke-width:0.264583px;stroke-linecap:butt;stroke-linejoin:miter;stroke-opacity:1" />
    <path
       style="fill:none;stroke:#000000;stroke-width:0.264583px;stroke-linecap:butt;stroke-linejoin:miter;stroke-opacity:1"
       d="m 43.756484,28.867949 c -0.04652,-0.209971 -0.04512,-0.431316 0.01243,-0.639221 0.06476,-0.233941 0.196913,-0.443429 0.352584,-0.627356 0.219129,-0.258904 0.481742,-0.475436 0.734156,-0.700424 0.129652,-0.115565 0.26086,-0.229512 0.398431,-0.335681 0.300694,-0.232058 0.632278,-0.426437 0.989234,-0.558479 0.372994,-0.137975 0.769281,-0.203168 1.165311,-0.225338 0.162821,-0.0091 0.325936,-0.0113 0.488971,-0.01234 0.187966,-0.0012 0.37808,0.01136 0.559194,0.06533 0.113531,0.03383 0.22182,0.08271 0.329339,0.131849 0.408682,0.18679 0.78816,0.432222 1.143375,0.706336 0.209063,0.161331 0.423563,0.318447 0.608904,0.506487 0.06654,0.06751 0.127355,0.140376 0.189672,0.211739 0.126392,0.14474 0.246145,0.296065 0.384172,0.429857 0.03308,0.03206 0.06113,0.0741 0.10437,0.09118 0.02376,0.0094 0.0097,-0.0248 0.0065,-0.03357"
       id="path877"
       inkscape:path-effect="#path-effect879"
       inkscape:original-d="m 43.756484,28.867949 c -0.201448,-0.928055 0.544026,-1.471366 1.181912,-2.040221 0.8508,-0.758727 1.611495,-1.037709 2.724955,-1.055289 0.335118,-0.0053 0.609676,-0.01987 0.923954,0.107872 0.751816,0.30558 1.341056,0.762762 1.946399,1.29449 0.09139,0.08028 0.772533,0.919533 0.689446,0.703524" />
    <path
       style="fill:none;stroke:#000000;stroke-width:0.264583px;stroke-linecap:butt;stroke-linejoin:miter;stroke-opacity:1"
       d="m 45.135379,22.311094 c -0.06624,-0.05956 -0.139693,-0.113078 -0.222877,-0.146295 -0.06229,-0.02487 -0.131292,-0.03646 -0.197917,-0.02434 -0.05993,0.01091 -0.115016,0.04272 -0.157019,0.08654 -0.05601,0.05843 -0.09041,0.13504 -0.106002,0.213858 -0.02442,0.123457 -0.0043,0.256205 0.06024,0.364844 0.04345,0.07318 0.107896,0.133541 0.183511,0.172412 0.04579,0.02354 0.09492,0.04214 0.146402,0.04798 0.07742,0.0088 0.155788,-0.0082 0.227096,-0.03796 0.0941,-0.03931 0.178688,-0.09881 0.253678,-0.167369 0.09756,-0.08919 0.18141,-0.193517 0.246918,-0.308291 0.05024,-0.08803 0.09114,-0.182534 0.110867,-0.282276 0.01424,-0.07201 0.01632,-0.147499 -0.0026,-0.219069 -0.0131,-0.04964 -0.04193,-0.09501 -0.08238,-0.126927 -0.05139,-0.04056 -0.116179,-0.06029 -0.180428,-0.06763 -0.08947,-0.01021 -0.180411,-1.95e-4 -0.267241,0.02246 -0.08647,0.02256 -0.170793,0.05655 -0.24473,0.107111 -0.04893,0.03346 -0.09504,0.07421 -0.123703,0.126824 -0.01319,0.02421 -0.02207,0.05104 -0.02375,0.07866"
       id="path881"
       inkscape:path-effect="#path-effect883"
       inkscape:original-d="m 45.135379,22.311094 c -0.656635,-0.59295 -0.981761,0.487818 -0.365829,0.698837 0.430736,0.147571 1.045998,-0.625968 0.900501,-1.022457 -0.125944,-0.343202 -0.896601,-0.123309 -0.914572,0.164156" />
    <path
       style="fill:none;stroke:#000000;stroke-width:0.264583px;stroke-linecap:butt;stroke-linejoin:miter;stroke-opacity:1"
       d="m 48.854642,22.259502 c -0.06984,-0.07163 -0.115581,-0.162489 -0.18349,-0.235748 -0.03387,-0.03654 -0.07574,-0.06664 -0.124008,-0.08143 -0.04029,-0.01234 -0.07961,0.01216 -0.109561,0.0365 -0.04826,0.03921 -0.08774,0.08811 -0.122623,0.139239 -0.05498,0.08058 -0.100551,0.167806 -0.133589,0.259597 -0.02526,0.07017 -0.04501,0.143453 -0.04657,0.218357 -9.96e-4,0.0479 0.0067,0.09732 0.03107,0.13947 0.02436,0.04211 0.07005,0.06474 0.115331,0.07795 0.07714,0.02251 0.159949,0.01811 0.237097,-0.0019 0.101663,-0.02638 0.195858,-0.07627 0.281516,-0.136201 0.118038,-0.08258 0.222959,-0.183477 0.312579,-0.296064 0.06997,-0.0879 0.132703,-0.18268 0.176818,-0.286266 0.02661,-0.06248 0.04784,-0.128575 0.05087,-0.19685 0.0021,-0.04642 -0.0061,-0.09481 -0.03189,-0.134348 -0.02373,-0.03637 -0.06219,-0.06089 -0.103096,-0.07381 -0.05932,-0.01874 -0.122777,-0.01925 -0.184106,-0.01303 -0.10537,0.01068 -0.208124,0.03897 -0.308134,0.0729 -0.07426,0.0252 -0.14727,0.05397 -0.219344,0.08484"
       id="path885"
       inkscape:path-effect="#path-effect887"
       inkscape:original-d="m 48.854642,22.259502 c -0.104745,-0.106311 -0.169222,-0.283659 -0.314237,-0.318933 -0.17684,-0.04302 -0.602568,0.729782 -0.300167,0.858301 0.688308,0.29253 1.949047,-1.692937 0.253267,-0.966173" />
    <path
       id="path883"
       d="m 17.867044,2.51234 c 0.0044,-0.3375797 0.08091,-0.4400337 -0.248575,-0.6753843 -1.152583,-0.823283 -3.152165,0.1642556 -4.183584,0.670695 -1.072975,0.5268441 -3.281697,1.6164046 -3.5316569,2.8094111 -0.029782,0.1421408 0.00544,0.3191709 0.1078729,0.4221158 0.525554,0.5281617 1.561072,0.8091574 2.199664,1.1397096 1.158137,0.5994828 2.356574,1.2132796 3.498826,1.8385467 2.330649,1.2757946 2.69485,4.6317611 2.026131,6.9086171 -0.34389,1.170877 -1.36287,2.846877 -2.603015,3.339404 -0.533304,0.211803 -1.088476,0.374067 -1.650921,0.487776 -0.580183,0.117294 -1.667075,0.03666 -2.148073,-0.286102 -3.3175816,-2.226217 -0.836997,-4.741058 1.18191,-6.721012 0.68394,-0.670744 1.849766,-1.145991 2.771859,-1.294484 0.110454,-0.01779 0.187604,0.121944 0.281406,0.182917"
       style="fill:none;stroke:#000000;stroke-width:0.264583px;stroke-linecap:butt;stroke-linejoin:miter;stroke-opacity:1" />
    <path
       id="path886"
       d="m 16.680444,3.4738262 c -0.209491,-0.08286 -0.404146,-0.2278629 -0.628474,-0.2485795 -0.711013,-0.065661 -2.3778,0.1293196 -2.804689,0.7973282 -0.06669,0.104358 -0.194173,0.8535874 -0.206365,0.9474142 -0.03036,0.2336273 -0.100648,0.7357655 -0.0047,0.9708647 0.22311,0.5466276 1.139319,0.4989857 1.589948,0.5815822 0.834674,0.1529885 1.360742,0.2467041 2.058962,0.7035239 0.5373,0.351536 1.728601,1.4241674 1.876045,2.1387184 0.120902,0.5859208 -0.136253,0.2290894 -0.773868,0.1594643 -0.01929,-0.00212 -0.662986,-0.059144 -0.642545,-0.075043 0.298971,-0.2325312 1.363795,0.5375952 1.768173,0.4268073 0.648482,-0.1776656 -0.487045,-1.6726535 0.117253,-2.1762389"
       style="fill:none;stroke:#ff0000;stroke-width:0.264583px;stroke-linecap:butt;stroke-linejoin:miter;stroke-opacity:1" />
    <path
       id="path888"
       d="m 16.50691,14.340945 c -0.0975,1.384588 -0.04611,1.397807 -1.876045,3.297189 -0.291862,0.302939 -0.817717,0.231351 -1.238191,0.243888 -0.973295,0.02902 -1.476774,-0.66701 -1.922947,-1.383599 -0.118069,-0.18963 -0.364803,-0.438748 -0.225125,-0.689454 0.317956,-0.570699 1.396044,-1.236715 1.983919,-1.528994 0.166911,-0.08299 0.339331,-0.15604 0.515912,-0.215749 0.01687,-0.0057 0.236831,0.01642 0.257956,-0.0047 0.07651,-0.07644 -0.217563,-0.0022 -0.323618,-0.02345 -0.105177,-0.02103 -0.692467,-0.22783 -0.722278,-0.347073 -0.0096,-0.03826 1.581848,-0.64062 1.472696,0.06566 -0.115092,0.744725 -1.305612,0.937677 -1.059965,1.772882"
       style="fill:none;stroke:#ff0000;stroke-width:0.264583px;stroke-linecap:butt;stroke-linejoin:miter;stroke-opacity:1" />
    <path
       id="path890"
       d="m 48.385626,11.217295 c -0.398489,-0.170791 -0.826336,-0.315003 -1.26633,-0.300172 -1.862151,0.06277 -3.933211,2.383001 -4.094472,4.136729 -0.15081,1.640069 1.144402,5.093171 3.301841,4.694859 0.462976,-0.08548 1.807734,-1.461398 2.129317,-1.810405 0.618572,-0.671324 1.094583,-1.497957 1.275709,-2.401365 0.133991,-0.668303 0.125579,-1.392863 0.08442,-2.073054 C 49.698867,11.52616 49.47562,9.0165985 49.042245,7.1556085 48.782808,6.0415291 48.380401,4.9505771 48.071391,3.8490387 47.882754,3.176597 47.742631,1.8094381 47.091155,1.4429819"
       style="fill:none;stroke:#000000;stroke-width:0.264583px;stroke-linecap:butt;stroke-linejoin:miter;stroke-opacity:1" />
    <path
       id="path896"
       d="m 47.419463,12.938584 c -0.429162,-0.168407 -0.355711,-0.234917 -0.820769,0.02345 -1.417614,0.787573 -1.926685,1.737406 -1.589947,3.362852 0.198252,0.956976 1.257281,0.889293 1.890114,0.398665 0.08894,-0.06895 0.371517,-0.238191 0.225126,-0.403357 -0.125984,-0.142139 -0.659355,-0.170181 -0.572196,-0.229818 0.0955,-0.06534 0.898396,-0.563815 0.900502,-0.173534 0.0024,0.45164 -0.544568,1.053709 -0.398659,1.491472"
       style="fill:none;stroke:#ff0000;stroke-width:0.264583px;stroke-linecap:butt;stroke-linejoin:miter;stroke-opacity:1" />
  </g>
</svg>
