<?xml version="1.0" encoding="UTF-8" standalone="no"?>
<svg
   xmlns:dc="http://purl.org/dc/elements/1.1/"
   xmlns:cc="http://creativecommons.org/ns#"
   xmlns:rdf="http://www.w3.org/1999/02/22-rdf-syntax-ns#"
   xmlns:svg="http://www.w3.org/2000/svg"
   xmlns="http://www.w3.org/2000/svg"
   xmlns:sodipodi="http://sodipodi.sourceforge.net/DTD/sodipodi-0.dtd"
   xmlns:inkscape="http://www.inkscape.org/namespaces/inkscape"
   sodipodi:docname="partial.svg"
   inkscape:version="1.0 (4035a4fb49, 2020-05-01)"
   id="svg8"
   version="1.1"
   viewBox="0 0 100 29.999999"
   height="3cm"
   width="10cm">
  <defs
     id="defs2">
    <inkscape:path-effect
       simplify_just_coalesce="false"
       simplify_individual_paths="false"
       helper_size="0"
       smooth_angles="360"
       threshold="0.000408163"
       steps="1"
       lpeversion="1"
       is_visible="true"
       id="path-effect929"
       effect="simplify" />
    <inkscape:path-effect
       simplify_just_coalesce="false"
       simplify_individual_paths="false"
       helper_size="0"
       smooth_angles="360"
       threshold="0.000408163"
       steps="1"
       lpeversion="1"
       is_visible="true"
       id="path-effect925"
       effect="simplify" />
    <inkscape:path-effect
       simplify_just_coalesce="false"
       simplify_individual_paths="false"
       helper_size="0"
       smooth_angles="360"
       threshold="0.000408163"
       steps="1"
       lpeversion="1"
       is_visible="true"
       id="path-effect921"
       effect="simplify" />
    <inkscape:path-effect
       simplify_just_coalesce="false"
       simplify_individual_paths="false"
       helper_size="0"
       smooth_angles="360"
       threshold="0.000408163"
       steps="1"
       lpeversion="1"
       is_visible="true"
       id="path-effect917"
       effect="simplify" />
    <inkscape:path-effect
       simplify_just_coalesce="false"
       simplify_individual_paths="false"
       helper_size="0"
       smooth_angles="360"
       threshold="0.000408163"
       steps="1"
       lpeversion="1"
       is_visible="true"
       id="path-effect913"
       effect="simplify" />
    <inkscape:path-effect
       simplify_just_coalesce="false"
       simplify_individual_paths="false"
       helper_size="0"
       smooth_angles="360"
       threshold="0.000408163"
       steps="1"
       lpeversion="1"
       is_visible="true"
       id="path-effect909"
       effect="simplify" />
    <inkscape:path-effect
       simplify_just_coalesce="false"
       simplify_individual_paths="false"
       helper_size="0"
       smooth_angles="360"
       threshold="0.000408163"
       steps="1"
       lpeversion="1"
       is_visible="true"
       id="path-effect905"
       effect="simplify" />
    <inkscape:path-effect
       simplify_just_coalesce="false"
       simplify_individual_paths="false"
       helper_size="0"
       smooth_angles="360"
       threshold="0.000408163"
       steps="1"
       lpeversion="1"
       is_visible="true"
       id="path-effect901"
       effect="simplify" />
    <inkscape:path-effect
       simplify_just_coalesce="false"
       simplify_individual_paths="false"
       helper_size="0"
       smooth_angles="360"
       threshold="0.000408163"
       steps="1"
       lpeversion="1"
       is_visible="true"
       id="path-effect897"
       effect="simplify" />
    <inkscape:path-effect
       simplify_just_coalesce="false"
       simplify_individual_paths="false"
       helper_size="0"
       smooth_angles="360"
       threshold="0.000408163"
       steps="1"
       lpeversion="1"
       is_visible="true"
       id="path-effect893"
       effect="simplify" />
    <inkscape:path-effect
       simplify_just_coalesce="false"
       simplify_individual_paths="false"
       helper_size="0"
       smooth_angles="360"
       threshold="0.000408163"
       steps="1"
       lpeversion="1"
       is_visible="true"
       id="path-effect889"
       effect="simplify" />
    <inkscape:path-effect
       simplify_just_coalesce="false"
       simplify_individual_paths="false"
       helper_size="0"
       smooth_angles="360"
       threshold="0.000408163"
       steps="1"
       lpeversion="1"
       is_visible="true"
       id="path-effect885"
       effect="simplify" />
    <inkscape:path-effect
       effect="simplify"
       id="path-effect887"
       is_visible="true"
       lpeversion="1"
       steps="1"
       threshold="0.000408163"
       smooth_angles="360"
       helper_size="0"
       simplify_individual_paths="false"
       simplify_just_coalesce="false" />
    <inkscape:path-effect
       effect="simplify"
       id="path-effect883"
       is_visible="true"
       lpeversion="1"
       steps="1"
       threshold="0.000408163"
       smooth_angles="360"
       helper_size="0"
       simplify_individual_paths="false"
       simplify_just_coalesce="false" />
    <inkscape:path-effect
       effect="simplify"
       id="path-effect879"
       is_visible="true"
       lpeversion="1"
       steps="1"
       threshold="0.000408163"
       smooth_angles="360"
       helper_size="0"
       simplify_individual_paths="false"
       simplify_just_coalesce="false" />
    <inkscape:path-effect
       simplify_just_coalesce="false"
       simplify_individual_paths="false"
       helper_size="0"
       smooth_angles="360"
       threshold="0.000408163"
       steps="1"
       lpeversion="1"
       is_visible="true"
       id="path-effect908"
       effect="simplify" />
    <inkscape:path-effect
       simplify_just_coalesce="false"
       simplify_individual_paths="false"
       helper_size="0"
       smooth_angles="360"
       threshold="0.000408163"
       steps="1"
       lpeversion="1"
       is_visible="true"
       id="path-effect904"
       effect="simplify" />
    <inkscape:path-effect
       simplify_just_coalesce="false"
       simplify_individual_paths="false"
       helper_size="0"
       smooth_angles="360"
       threshold="0.000408163"
       steps="1"
       lpeversion="1"
       is_visible="true"
       id="path-effect900"
       effect="simplify" />
    <inkscape:path-effect
       simplify_just_coalesce="false"
       simplify_individual_paths="false"
       helper_size="0"
       smooth_angles="360"
       threshold="0.000408163"
       steps="1"
       lpeversion="1"
       is_visible="true"
       id="path-effect896"
       effect="simplify" />
    <inkscape:path-effect
       simplify_just_coalesce="false"
       simplify_individual_paths="false"
       helper_size="0"
       smooth_angles="360"
       threshold="0.000408163"
       steps="1"
       lpeversion="1"
       is_visible="true"
       id="path-effect892"
       effect="simplify" />
    <inkscape:path-effect
       simplify_just_coalesce="false"
       simplify_individual_paths="false"
       helper_size="0"
       smooth_angles="360"
       threshold="0.000408163"
       steps="1"
       lpeversion="1"
       is_visible="true"
       id="path-effect888"
       effect="simplify" />
    <inkscape:path-effect
       simplify_just_coalesce="false"
       simplify_individual_paths="false"
       helper_size="0"
       smooth_angles="360"
       threshold="0.000408163"
       steps="1"
       lpeversion="1"
       is_visible="true"
       id="path-effect884"
       effect="simplify" />
    <inkscape:path-effect
       simplify_just_coalesce="false"
       simplify_individual_paths="false"
       helper_size="0"
       smooth_angles="360"
       threshold="0.000408163"
       steps="1"
       lpeversion="1"
       is_visible="true"
       id="path-effect880"
       effect="simplify" />
    <inkscape:path-effect
       simplify_just_coalesce="false"
       simplify_individual_paths="false"
       helper_size="0"
       smooth_angles="360"
       threshold="0.000408163"
       steps="1"
       lpeversion="1"
       is_visible="true"
       id="path-effect876"
       effect="simplify" />
    <inkscape:path-effect
       simplify_just_coalesce="false"
       simplify_individual_paths="false"
       helper_size="0"
       smooth_angles="360"
       threshold="0.000408163"
       steps="1"
       lpeversion="1"
       is_visible="true"
       id="path-effect872"
       effect="simplify" />
    <inkscape:path-effect
       effect="simplify"
       id="path-effect906"
       is_visible="true"
       lpeversion="1"
       steps="1"
       threshold="0.000408163"
       smooth_angles="360"
       helper_size="0"
       simplify_individual_paths="false"
       simplify_just_coalesce="false" />
    <inkscape:path-effect
       effect="simplify"
       id="path-effect902"
       is_visible="true"
       lpeversion="1"
       steps="1"
       threshold="0.000408163"
       smooth_angles="360"
       helper_size="0"
       simplify_individual_paths="false"
       simplify_just_coalesce="false" />
    <inkscape:path-effect
       effect="simplify"
       id="path-effect898"
       is_visible="true"
       lpeversion="1"
       steps="1"
       threshold="0.000408163"
       smooth_angles="360"
       helper_size="0"
       simplify_individual_paths="false"
       simplify_just_coalesce="false" />
    <inkscape:path-effect
       effect="simplify"
       id="path-effect894"
       is_visible="true"
       lpeversion="1"
       steps="1"
       threshold="0.000408163"
       smooth_angles="360"
       helper_size="0"
       simplify_individual_paths="false"
       simplify_just_coalesce="false" />
    <inkscape:path-effect
       effect="simplify"
       id="path-effect890"
       is_visible="true"
       lpeversion="1"
       steps="1"
       threshold="0.000408163"
       smooth_angles="360"
       helper_size="0"
       simplify_individual_paths="false"
       simplify_just_coalesce="false" />
    <inkscape:path-effect
       effect="simplify"
       id="path-effect886"
       is_visible="true"
       lpeversion="1"
       steps="1"
       threshold="0.000408163"
       smooth_angles="360"
       helper_size="0"
       simplify_individual_paths="false"
       simplify_just_coalesce="false" />
    <inkscape:path-effect
       effect="simplify"
       id="path-effect882"
       is_visible="true"
       lpeversion="1"
       steps="1"
       threshold="0.000408163"
       smooth_angles="360"
       helper_size="0"
       simplify_individual_paths="false"
       simplify_just_coalesce="false" />
    <inkscape:path-effect
       effect="simplify"
       id="path-effect878"
       is_visible="true"
       lpeversion="1"
       steps="1"
       threshold="0.000408163"
       smooth_angles="360"
       helper_size="0"
       simplify_individual_paths="false"
       simplify_just_coalesce="false" />
    <inkscape:path-effect
       effect="simplify"
       id="path-effect874"
       is_visible="true"
       lpeversion="1"
       steps="1"
       threshold="0.000408163"
       smooth_angles="360"
       helper_size="0"
       simplify_individual_paths="false"
       simplify_just_coalesce="false" />
    <inkscape:path-effect
       effect="simplify"
       id="path-effect870"
       is_visible="true"
       lpeversion="1"
       steps="1"
       threshold="0.000408163"
       smooth_angles="360"
       helper_size="0"
       simplify_individual_paths="false"
       simplify_just_coalesce="false" />
    <inkscape:path-effect
       effect="simplify"
       id="path-effect866"
       is_visible="true"
       lpeversion="1"
       steps="1"
       threshold="0.000408163"
       smooth_angles="360"
       helper_size="0"
       simplify_individual_paths="false"
       simplify_just_coalesce="false" />
    <inkscape:path-effect
       effect="simplify"
       id="path-effect862"
       is_visible="true"
       lpeversion="1"
       steps="1"
       threshold="0.000408163"
       smooth_angles="360"
       helper_size="0"
       simplify_individual_paths="false"
       simplify_just_coalesce="false" />
    <inkscape:path-effect
       effect="simplify"
       id="path-effect858"
       is_visible="true"
       lpeversion="1"
       steps="1"
       threshold="0.000408163"
       smooth_angles="360"
       helper_size="0"
       simplify_individual_paths="false"
       simplify_just_coalesce="false" />
    <inkscape:path-effect
       effect="simplify"
       id="path-effect951"
       is_visible="true"
       lpeversion="1"
       steps="1"
       threshold="0.000408163"
       smooth_angles="360"
       helper_size="0"
       simplify_individual_paths="false"
       simplify_just_coalesce="false" />
    <inkscape:path-effect
       effect="simplify"
       id="path-effect947"
       is_visible="true"
       lpeversion="1"
       steps="1"
       threshold="0.000408163"
       smooth_angles="360"
       helper_size="0"
       simplify_individual_paths="false"
       simplify_just_coalesce="false" />
    <inkscape:path-effect
       effect="simplify"
       id="path-effect943"
       is_visible="true"
       lpeversion="1"
       steps="1"
       threshold="0.000408163"
       smooth_angles="360"
       helper_size="0"
       simplify_individual_paths="false"
       simplify_just_coalesce="false" />
    <inkscape:path-effect
       effect="simplify"
       id="path-effect939"
       is_visible="true"
       lpeversion="1"
       steps="1"
       threshold="0.000408163"
       smooth_angles="360"
       helper_size="0"
       simplify_individual_paths="false"
       simplify_just_coalesce="false" />
    <inkscape:path-effect
       effect="simplify"
       id="path-effect935"
       is_visible="true"
       lpeversion="1"
       steps="1"
       threshold="0.000408163"
       smooth_angles="360"
       helper_size="0"
       simplify_individual_paths="false"
       simplify_just_coalesce="false" />
    <inkscape:path-effect
       effect="simplify"
       id="path-effect931"
       is_visible="true"
       lpeversion="1"
       steps="1"
       threshold="0.000408163"
       smooth_angles="360"
       helper_size="0"
       simplify_individual_paths="false"
       simplify_just_coalesce="false" />
    <inkscape:path-effect
       effect="simplify"
       id="path-effect927"
       is_visible="true"
       lpeversion="1"
       steps="1"
       threshold="0.000408163"
       smooth_angles="360"
       helper_size="0"
       simplify_individual_paths="false"
       simplify_just_coalesce="false" />
    <inkscape:path-effect
       effect="simplify"
       id="path-effect923"
       is_visible="true"
       lpeversion="1"
       steps="1"
       threshold="0.000408163"
       smooth_angles="360"
       helper_size="0"
       simplify_individual_paths="false"
       simplify_just_coalesce="false" />
    <inkscape:path-effect
       effect="simplify"
       id="path-effect919"
       is_visible="true"
       lpeversion="1"
       steps="1"
       threshold="0.000408163"
       smooth_angles="360"
       helper_size="0"
       simplify_individual_paths="false"
       simplify_just_coalesce="false" />
    <inkscape:path-effect
       effect="simplify"
       id="path-effect915"
       is_visible="true"
       lpeversion="1"
       steps="1"
       threshold="0.000408163"
       smooth_angles="360"
       helper_size="0"
       simplify_individual_paths="false"
       simplify_just_coalesce="false" />
    <inkscape:path-effect
       effect="simplify"
       id="path-effect911"
       is_visible="true"
       lpeversion="1"
       steps="1"
       threshold="0.000408163"
       smooth_angles="360"
       helper_size="0"
       simplify_individual_paths="false"
       simplify_just_coalesce="false" />
  </defs>
  <sodipodi:namedview
     inkscape:window-maximized="1"
     inkscape:window-y="0"
     inkscape:window-x="0"
     inkscape:window-height="1051"
     inkscape:window-width="1920"
     units="cm"
     showgrid="false"
     inkscape:document-rotation="0"
     inkscape:current-layer="layer1"
     inkscape:document-units="mm"
     inkscape:cy="54.094449"
     inkscape:cx="192.94887"
     inkscape:zoom="3.6797313"
     inkscape:pageshadow="2"
     inkscape:pageopacity="0.0"
     borderopacity="1.0"
     bordercolor="#666666"
     pagecolor="#ffffff"
     id="base" />
  <metadata
     id="metadata5">
    <rdf:RDF>
      <cc:Work
         rdf:about="">
        <dc:format>image/svg+xml</dc:format>
        <dc:type
           rdf:resource="http://purl.org/dc/dcmitype/StillImage" />
        <dc:title />
      </cc:Work>
    </rdf:RDF>
  </metadata>
  <g
     id="layer1"
     inkscape:groupmode="layer"
     inkscape:label="Layer 1">
    <path
       sodipodi:nodetypes="cc"
       id="path10"
       d="m 0,20.132291 102.10211,0"
       style="fill:none;stroke:#2690a7;stroke-width:0.264583px;stroke-linecap:butt;stroke-linejoin:miter;stroke-opacity:0.474099" />
    <path
       sodipodi:nodetypes="cc"
       style="fill:none;stroke:#2690a7;stroke-width:0.264583px;stroke-linecap:butt;stroke-linejoin:miter;stroke-opacity:0.474099"
       d="m 0,0.1322915 101.24145,0"
       id="path12" />
    <path
       sodipodi:nodetypes="cc"
       style="fill:none;stroke:#2690a7;stroke-width:0.265;stroke-linecap:butt;stroke-linejoin:miter;stroke-miterlimit:4;stroke-dasharray:1.06, 1.06;stroke-dashoffset:0;stroke-opacity:0.474099"
       d="m 0,10.132291 101.7922,0"
       id="path14" />
    <path
       inkscape:original-d="m 11.117969,1.0724586 c 0.970251,0.6829818 1.778329,1.5407751 2.518592,2.4623384 0.46474,0.5785607 0.992826,1.1601061 1.350753,1.8150959 0.06286,0.1150223 0.457873,1.0633131 0.529984,1.2194442 0.415819,0.9003189 0.832847,1.6476104 1.055275,2.6358747 0.228704,1.0161562 0.202856,2.1211582 0.253266,3.1564822 0.07574,1.55558 0.262069,3.187275 -0.422109,4.638579 -0.167306,0.354895 -0.349572,0.81809 -0.675378,1.078736 -0.172719,0.138177 -0.363483,0.252158 -0.544053,0.379904 -0.324061,0.229261 -0.758407,0.704704 -1.191289,0.694146 -0.149432,-0.0036 -0.771507,-0.152545 -0.848912,-0.164156 -0.732864,-0.109931 -1.520783,-0.03472 -2.166833,-0.478397 -0.67548,-0.463892 -0.788649,-1.541817 -0.84891,-2.279419 -0.02938,-0.359637 -0.02473,-1.012166 -0.02345,-1.378913 0.0044,-1.254872 0.175503,-1.872505 1.256951,-2.678085 0.534464,-0.398126 0.696221,-0.566094 1.214741,-0.698836 0.61829,-0.158285 2.46866,-0.229285 2.973534,0.08442 0.268799,0.167021 0.396083,0.467671 0.651925,0.642553 0.210333,0.143775 0.572264,0.228675 0.75511,0.304863"
       inkscape:path-effect="#path-effect885"
       id="path883"
       d="m 11.117969,1.0724586 c 0.825155,0.5801339 1.542524,1.2994642 2.193084,2.0670859 0.222156,0.2621309 0.435611,0.5314058 0.654068,0.7966111 0.371139,0.4505605 0.773095,0.8908804 1.02538,1.4197331 0.08826,0.1850259 0.166325,0.3747275 0.247502,0.5629286 0.09805,0.2273283 0.189866,0.4574462 0.293914,0.6821092 0.311372,0.6723222 0.655783,1.33259 0.886099,2.039219 0.145787,0.4472859 0.235686,0.9111626 0.287748,1.3783225 0.09619,0.863133 0.08659,1.73282 0.133333,2.599079 0.04793,0.888289 0.113577,1.781469 0.02079,2.669259 -0.06327,0.605309 -0.218515,1.202022 -0.475835,1.755533 -0.135189,0.2908 -0.264415,0.589549 -0.464305,0.84371 -0.08196,0.104214 -0.183623,0.190297 -0.290262,0.268383 -0.202055,0.147953 -0.41808,0.27598 -0.613093,0.433966 -0.210435,0.17048 -0.41477,0.355314 -0.660273,0.474528 -0.136979,0.06652 -0.291952,0.105548 -0.445272,0.08167 -0.257841,-0.04016 -0.508864,-0.117012 -0.766745,-0.155693 -0.504185,-0.07563 -1.021241,-0.0622 -1.517219,-0.190792 -0.269684,-0.06992 -0.534307,-0.182036 -0.748236,-0.362901 -0.241955,-0.20456 -0.398473,-0.491449 -0.501066,-0.787086 -0.155253,-0.447385 -0.209935,-0.921346 -0.247081,-1.390967 -0.02481,-0.313709 -0.02798,-0.628679 -0.02658,-0.94317 0.0016,-0.360514 -0.0053,-0.721634 0.02382,-1.08133 0.02879,-0.355319 0.102953,-0.712711 0.270201,-1.030694 0.19056,-0.362305 0.486514,-0.656937 0.806109,-0.906495 0.160435,-0.125277 0.323943,-0.246564 0.48625,-0.36941 0.187326,-0.141782 0.382977,-0.276735 0.60365,-0.3621 0.209426,-0.08101 0.430531,-0.127292 0.652879,-0.155374 0.454011,-0.05734 0.912737,-0.07984 1.369952,-0.06504 0.314398,0.01018 0.631523,0.02801 0.937904,0.103316 0.135236,0.03324 0.268684,0.08391 0.378921,0.17207 0.214988,0.171934 0.340601,0.435293 0.573408,0.586652 0.160147,0.104119 0.344194,0.161997 0.524002,0.22192 0.07581,0.02526 0.15217,0.04924 0.226151,0.07958"
       style="fill:none;stroke:#000000;stroke-width:0.264583px;stroke-linecap:butt;stroke-linejoin:miter;stroke-opacity:1" />
    <path
       inkscape:original-d="m 14.879443,2.3528756 c 0.171436,0.8328418 0.841612,1.3672594 1.266329,2.0496034 0.191164,0.3071201 0.349564,0.6505223 0.497152,0.9802453 0.80321,1.794434 1.800958,3.880223 1.932329,5.8627097 0.0528,0.796791 -0.172163,1.543813 -0.168845,2.340395 0.0039,0.937991 0.265063,1.775768 0.06566,2.720298 -0.03418,0.161916 -0.08844,0.434272 -0.154773,0.623792 -0.03309,0.09455 -0.09647,0.374717 -0.117254,0.276719 -0.03518,-0.165862 -8.47e-4,-0.339553 -0.01407,-0.506537 -0.04104,-0.518091 -0.272559,-1.136187 -0.553434,-1.571204 -0.02338,-0.03621 -0.46432,-0.279018 -0.46432,-0.215748 0,0.157084 0.172877,0.418064 0.215746,0.506537 0.06625,0.136721 0.335228,0.989472 0.600334,1.05998 0.440699,0.117209 1.705634,-1.968015 2.03551,-2.523312"
       inkscape:path-effect="#path-effect889"
       id="path887"
       d="m 14.879443,2.3528756 c 0.06564,0.3251496 0.219792,0.6251724 0.405976,0.8971975 0.291659,0.4261306 0.655463,0.8000395 0.917607,1.247052 0.245811,0.4191612 0.432238,0.8691119 0.631207,1.3113164 0.496358,1.1031434 0.994566,2.2108863 1.341513,3.3719638 0.208058,0.6962776 0.369868,1.4121487 0.403659,2.1395847 0.02314,0.498232 -0.05928,0.992329 -0.119325,1.485124 -0.03903,0.320367 -0.06137,0.643315 -0.0497,0.966315 0.02301,0.637122 0.151865,1.267588 0.134646,1.906745 -0.0064,0.236298 -0.03996,0.47096 -0.08854,0.702276 -0.04149,0.19756 -0.08988,0.3937 -0.151033,0.586417 -0.02597,0.08183 -0.03934,0.168967 -0.07938,0.245259 -0.01963,0.0374 -0.02894,-0.01828 -0.03183,-0.03668 -0.02731,-0.173803 0.0057,-0.349543 -0.01266,-0.524205 -0.035,-0.332505 -0.129563,-0.656869 -0.258692,-0.964403 -0.08124,-0.193494 -0.13573,-0.415872 -0.290341,-0.557946 -0.04173,-0.03835 -0.09262,-0.06555 -0.142182,-0.09252 -0.08873,-0.04829 -0.18346,-0.08415 -0.274754,-0.128196 -0.02339,-0.01129 -0.05083,-0.0084 -0.04628,0.02771 0.01398,0.110818 0.06712,0.211485 0.11833,0.309085 0.04345,0.08281 0.09368,0.162099 0.127619,0.24986 0.09732,0.251659 0.185365,0.510292 0.328558,0.740102 0.05288,0.08487 0.111162,0.171263 0.19697,0.226383 0.05255,0.03376 0.119528,0.0261 0.174258,0.0021 0.119625,-0.05239 0.218585,-0.1416 0.309477,-0.23316 0.230665,-0.23236 0.429418,-0.494006 0.619074,-0.760096 0.348609,-0.489102 0.668717,-0.998096 0.976196,-1.513846"
       style="fill:none;stroke:#ff0000;stroke-width:0.264583px;stroke-linecap:butt;stroke-linejoin:miter;stroke-opacity:1" />
    <path
       inkscape:original-d="M 9.2747535,17.609995 C 9.1088566,16.631657 8.7103378,15.731422 8.6462782,14.734919 c -0.034455,-0.535982 0.072652,-1.02731 0.1829136,-1.547755 0.3686656,-1.740135 0.864998,-2.544609 2.6452262,-3.09082 0.430019,-0.1319387 0.881996,-0.2343118 1.331992,-0.2673403 0.245437,-0.018015 0.49058,-0.01407 0.736349,-0.01407 0.0172,0 0.05159,0.017198 0.05159,0 0,-0.1518777 -0.961542,-0.3166793 -1.088106,-0.384593 -0.4661,-0.2501088 1.478044,0.1981234 1.491456,0.2110568 0.181976,0.1754743 -0.871548,0.6359895 -1.055276,0.8301585 -0.132073,0.13958 -0.0654,0.319872 -0.0469,0.478398"
       inkscape:path-effect="#path-effect893"
       id="path891"
       d="M 9.2747535,17.609995 C 9.145063,16.841713 8.8637084,16.10902 8.7240398,15.343009 c -0.047812,-0.262225 -0.082262,-0.527934 -0.084265,-0.7948 -0.0028,-0.373148 0.060783,-0.742671 0.1360139,-1.106914 0.093989,-0.455066 0.1929548,-0.911041 0.3543304,-1.347845 0.1305658,-0.353409 0.3098557,-0.692533 0.5583834,-0.977976 0.2435928,-0.279775 0.5513598,-0.497683 0.8811288,-0.664482 0.365371,-0.184807 0.754511,-0.317797 1.148831,-0.425483 0.422366,-0.1153451 0.856564,-0.1932893 1.294986,-0.2070706 0.176383,-0.00554 0.353804,0.014596 0.529311,-0.0035 0.01598,-0.00165 0.06005,0.020515 0.05089,-0.00713 -0.01411,-0.042604 -0.05834,-0.064636 -0.09596,-0.082523 -0.116142,-0.055224 -0.240482,-0.09018 -0.364035,-0.1244062 -0.180631,-0.050038 -0.363486,-0.091465 -0.544324,-0.1407403 -0.05138,-0.014001 -0.09666,-0.0419 -0.143301,-0.068783 -0.0199,-0.011471 -0.0099,-0.031208 0.01144,-0.033841 0.06175,-0.0076 0.124184,3.745e-4 0.185451,0.00835 0.236513,0.030781 0.47071,0.077102 0.703899,0.1265783 0.21131,0.044834 0.4179,0.1147082 0.632063,0.1431174 0.04068,0.0054 0.04676,0.058022 0.03087,0.089549 -0.03008,0.0597 -0.08273,0.1038771 -0.13469,0.1439729 -0.137779,0.1063223 -0.288927,0.1934831 -0.438309,0.2821481 -0.136215,0.08085 -0.275121,0.157705 -0.405589,0.247781 -0.05823,0.0402 -0.114787,0.08827 -0.143704,0.154945 -0.03865,0.08912 -0.02511,0.188988 -0.0097,0.281756 0.0063,0.03802 0.01327,0.07595 0.01777,0.114246"
       style="fill:none;stroke:#ff0000;stroke-width:0.264583px;stroke-linecap:butt;stroke-linejoin:miter;stroke-opacity:1" />
    <path
       inkscape:original-d="m 55.214437,1.260067 c -0.465095,0.9712543 -0.221938,2.1790887 -0.107873,3.2080742 0.142679,1.287109 0.366908,2.4968329 0.680066,3.7568253 0.347282,1.3972775 0.524857,2.7952075 0.680067,4.2258425 0.08823,0.81325 0.209889,1.99432 0.29079,2.879762 0.04679,0.512154 0.07472,1.007933 0.154774,1.514924 0.06067,0.384243 0.179765,0.732247 0.272026,1.106881 0.02376,0.09649 0.0445,0.193701 0.06566,0.290794 0.0064,0.02938 0.0168,0.119058 0.01408,0.08911 -0.02328,-0.255939 -0.193665,-0.480312 -0.262649,-0.726977 -0.517277,-1.849646 -2.326781,-4.585505 -4.160129,-5.295197 -0.443838,-0.171811 -1.049197,-0.287175 -1.472697,-0.01407 -0.712282,0.459326 -1.974604,3.072301 -1.716585,3.920981 0.21367,0.702804 0.869902,1.301419 1.364824,1.810409 0.427662,0.439817 1.00807,1.01129 1.679064,0.970865 0.48046,-0.02895 1.985706,-0.928226 2.340367,-1.275728 0.359685,-0.352422 0.601501,-0.779758 0.952095,-1.130329"
       inkscape:path-effect="#path-effect897"
       id="path895"
       d="m 55.214437,1.260067 c -0.199441,0.4151793 -0.268413,0.8802574 -0.273524,1.3372273 -0.0075,0.6683208 0.103643,1.3293487 0.179266,1.9912906 0.14063,1.2309556 0.372114,2.4505003 0.670513,3.652756 0.346777,1.3971724 0.527917,2.8282701 0.681212,4.2575351 0.105444,0.983121 0.209962,1.966443 0.296238,2.951444 0.04395,0.501713 0.06946,1.006741 0.162653,1.50234 0.0774,0.411616 0.207688,0.810106 0.303307,1.217681 0.01276,0.0544 0.03442,0.220491 0.02977,0.164781 -0.01499,-0.179923 -0.09994,-0.343024 -0.1757,-0.503458 -0.04752,-0.100645 -0.0799,-0.207169 -0.111985,-0.313701 -0.196904,-0.653787 -0.487608,-1.276553 -0.827945,-1.867118 -0.434465,-0.7539 -0.945453,-1.468121 -1.554804,-2.090576 -0.427912,-0.437114 -0.902634,-0.840432 -1.451829,-1.116026 -0.320051,-0.160606 -0.66712,-0.280387 -1.026069,-0.306787 -0.243078,-0.01788 -0.499149,0.01097 -0.711849,0.137041 -0.164588,0.09755 -0.294301,0.243076 -0.411191,0.391859 -0.276511,0.351956 -0.502833,0.740929 -0.701289,1.141121 -0.233538,0.470935 -0.442749,0.957937 -0.571127,1.468474 -0.0625,0.248547 -0.113326,0.504527 -0.09919,0.76222 0.0084,0.153984 0.06607,0.299657 0.13076,0.437542 0.17139,0.365326 0.429964,0.680994 0.703319,0.974294 0.218282,0.234209 0.44436,0.460943 0.670107,0.687903 0.258419,0.259808 0.531638,0.513638 0.857396,0.686926 0.228088,0.121332 0.490464,0.209443 0.748817,0.170004 0.164908,-0.02517 0.321413,-0.08783 0.47304,-0.154854 0.390523,-0.172632 0.765411,-0.379693 1.125727,-0.608118 0.223403,-0.141628 0.451186,-0.280613 0.648922,-0.456947 0.145367,-0.129633 0.271311,-0.279316 0.392002,-0.431666 0.201185,-0.253958 0.387401,-0.521367 0.617328,-0.751021"
       style="fill:none;stroke:#000000;stroke-width:0.264583px;stroke-linecap:butt;stroke-linejoin:miter;stroke-opacity:1" />
    <path
       inkscape:original-d="m 56.738726,3.1783459 c -0.03302,1.638705 0.02217,3.3099663 0.328308,4.9246768 0.09622,0.5075343 0.24607,1.0038252 0.342381,1.510235 0.08642,0.4544173 0.131054,0.8857133 0.342376,1.3038653 0.05781,0.114388 0.128112,0.224117 0.187603,0.337694 0.0085,0.01621 0.03445,0.06101 0.01876,0.05159 -0.307295,-0.184372 -0.625866,-0.769017 -1.069345,-1.064671 -0.0349,-0.02327 -0.132935,-0.09295 -0.112562,-0.05628 0.06925,0.124666 0.200176,0.203175 0.300167,0.304861 0.272304,0.276922 0.606531,0.880612 1.111555,0.586269 0.143264,-0.0835 0.158623,-0.291253 0.239196,-0.436183 0.614879,-1.1060154 0.303049,-0.6462219 0.970857,-1.4961631"
       inkscape:path-effect="#path-effect901"
       id="path899"
       d="m 56.738726,3.1783459 c -0.02564,1.2809532 5.67e-4,2.5661565 0.159344,3.8386736 0.05036,0.4036028 0.110461,0.8063248 0.192446,1.2047609 0.103165,0.5013687 0.247676,0.9934663 0.338488,1.4975627 0.05609,0.3113319 0.103217,0.6263899 0.207598,0.9263489 0.04886,0.140412 0.11339,0.274884 0.187265,0.403854 0.04563,0.07967 0.06629,0.178593 0.133978,0.240677 0.0077,0.0071 0.0082,0.02137 -0.0069,0.01179 -0.109135,-0.06935 -0.19887,-0.164116 -0.283845,-0.260393 -0.195011,-0.220949 -0.373936,-0.457467 -0.593491,-0.655661 -0.07172,-0.06474 -0.145366,-0.129377 -0.23048,-0.174973 -0.02234,-0.01197 -0.07869,-0.05888 -0.06933,-0.03459 0.01538,0.03993 0.04444,0.07383 0.07345,0.10484 0.08143,0.08705 0.180934,0.154682 0.261363,0.24296 0.142042,0.155903 0.26562,0.329943 0.427856,0.46646 0.09387,0.07899 0.204555,0.144847 0.328205,0.161339 0.117713,0.0157 0.239091,-0.01818 0.336355,-0.08359 0.07208,-0.04848 0.109616,-0.130933 0.138808,-0.209691 0.0306,-0.08256 0.05834,-0.166516 0.101568,-0.243943 0.125235,-0.224296 0.246931,-0.450532 0.368775,-0.6766758 0.05108,-0.094807 0.108161,-0.1864755 0.17421,-0.2716781 0.118672,-0.1530856 0.241042,-0.3032558 0.361007,-0.4553295 0.01756,-0.022264 0.0351,-0.044545 0.05262,-0.066843"
       style="fill:none;stroke:#ff0000;stroke-width:0.264583px;stroke-linecap:butt;stroke-linejoin:miter;stroke-opacity:1" />
    <path
       inkscape:original-d="m 54.571891,15.776137 c -0.03858,-0.938627 -0.381042,-1.274172 -1.092798,-1.763503 -0.180366,-0.124002 -0.272563,-0.333335 -0.459631,-0.450253 -0.673701,-0.42107 -1.483405,-0.108454 -1.754103,0.64724 -0.089,0.248461 -0.138806,2.12517 0.04221,2.354464 0.268201,0.339723 0.555469,0.382981 0.848911,0.600344 0.07655,0.05671 0.118993,0.139925 0.187603,0.201678 0.01196,0.01077 0.0583,0.02318 0.04221,0.02345 -0.265943,0.0045 -0.465947,-0.02746 -0.722275,-0.08442 -0.07101,-0.01578 -0.259387,-0.09103 -0.215744,-0.03283 0.0666,0.0888 0.243642,0.145743 0.314238,0.168848 0.839499,0.27475 0.832763,-0.753406 0.956781,-1.228823"
       inkscape:path-effect="#path-effect909"
       id="path907"
       d="m 54.571891,15.776137 c -0.01031,-0.243383 -0.04162,-0.488614 -0.124455,-0.718911 -0.06072,-0.168794 -0.153329,-0.325539 -0.269509,-0.46212 -0.15313,-0.180019 -0.340798,-0.326245 -0.531094,-0.464737 -0.06212,-0.04521 -0.127022,-0.08656 -0.188484,-0.132647 -0.106828,-0.0801 -0.184155,-0.190492 -0.272169,-0.289229 -0.05542,-0.06217 -0.118735,-0.117533 -0.190458,-0.160613 -0.185871,-0.111643 -0.401535,-0.174953 -0.618978,-0.174251 -0.225804,7.29e-4 -0.449428,0.07399 -0.635326,0.20176 -0.196252,0.134892 -0.34982,0.328895 -0.441909,0.54772 -0.02063,0.04903 -0.04089,0.09866 -0.05033,0.15138 -0.02105,0.11749 -0.03089,0.23667 -0.03886,0.355636 -0.02117,0.315848 -0.02922,0.632617 -0.02401,0.949098 0.0036,0.220219 0.0086,0.441091 0.03682,0.659682 0.01123,0.08716 0.02748,0.173775 0.05138,0.258665 0.01322,0.04696 0.04604,0.08365 0.07724,0.119668 0.09205,0.106263 0.203729,0.194128 0.324333,0.26588 0.147429,0.08771 0.301955,0.162642 0.446048,0.256608 0.04587,0.02991 0.08507,0.06842 0.120293,0.110338 0.03452,0.04108 0.0607,0.09332 0.107576,0.120132 0.01215,0.007 0.05194,0.01479 0.03818,0.0171 -0.0347,0.0058 -0.07402,0.0027 -0.110498,0.002 -0.167213,-0.0031 -0.333763,-0.0245 -0.497157,-0.05936 -0.06075,-0.01296 -0.121587,-0.02554 -0.181267,-0.04324 -0.04447,-0.01318 -0.08989,-0.02268 -0.134575,-0.03577 -0.01059,-0.0031 -0.03002,0.0018 -0.01982,0.01628 0.02961,0.04216 0.07421,0.07094 0.119098,0.09443 0.07822,0.04094 0.161972,0.07049 0.24679,0.09411 0.112387,0.03129 0.233602,0.04424 0.34767,0.01296 0.09331,-0.02559 0.17477,-0.08506 0.234945,-0.160056 0.08105,-0.101013 0.130521,-0.223094 0.16762,-0.346026 0.0646,-0.214048 0.09099,-0.436794 0.136358,-0.655154 0.0066,-0.03188 0.01375,-0.06366 0.02196,-0.09517"
       style="fill:none;stroke:#ff0000;stroke-width:0.264583px;stroke-linecap:butt;stroke-linejoin:miter;stroke-opacity:1" />
    <path
       inkscape:original-d="m 50.458658,28.650652 c 0.03283,-0.201676 0.03231,-0.411713 0.09849,-0.605031 0.05471,-0.159813 0.165478,-0.294833 0.257958,-0.436186 0.763548,-1.167062 2.027536,-1.954804 3.470685,-1.665011 0.882756,0.177263 1.250249,0.834005 1.54305,1.608726 0.03219,0.08517 0.616667,1.187839 0.389279,0.590965"
       inkscape:path-effect="#path-effect913"
       id="path911"
       d="m 50.458658,28.650652 c 0.03187,-0.195382 0.03283,-0.396558 0.09248,-0.586859 0.04498,-0.143519 0.13601,-0.265516 0.219564,-0.388444 0.06073,-0.08935 0.119799,-0.179835 0.183713,-0.267014 0.317512,-0.433084 0.713891,-0.812297 1.177005,-1.086767 0.377041,-0.223458 0.800009,-0.371977 1.236389,-0.419944 0.32991,-0.03626 0.666225,-0.0174 0.989251,0.05841 0.233086,0.0547 0.45601,0.155538 0.646831,0.300984 0.204353,0.15576 0.366992,0.36011 0.497036,0.580395 0.133952,0.226905 0.219552,0.477682 0.329824,0.716465 0.04221,0.0914 0.08944,0.180416 0.137095,0.269067 0.07399,0.137623 0.140931,0.280151 0.23102,0.407887 0.02063,0.02925 0.03681,0.10685 0.06621,0.08545 0.01263,-0.0092 0.0023,-0.03094 -0.0014,-0.04405 -0.0127,-0.04485 -0.02917,-0.08853 -0.04559,-0.132114"
       style="fill:none;stroke:#000000;stroke-width:0.264583px;stroke-linecap:butt;stroke-linejoin:miter;stroke-opacity:1" />
    <path
       inkscape:original-d="m 52.414442,22.787942 c -0.269611,0.02817 -0.414422,-0.0511 -0.422114,0.314242 -0.0091,0.430604 0.658638,0.221718 0.773867,-0.01876 0.208753,-0.435652 -0.708869,-0.357461 -0.844217,-0.323624 -0.07676,0.01919 -0.09693,0.125072 -0.145394,0.187608"
       inkscape:path-effect="#path-effect917"
       id="path915"
       d="m 52.414442,22.787942 c -0.06251,0.0068 -0.125492,0.0063 -0.188199,0.01005 -0.04981,0.003 -0.102895,0.006 -0.146115,0.03375 -0.04074,0.02612 -0.06113,0.07316 -0.07174,0.118656 -0.01159,0.0497 -0.01491,0.100901 -0.01606,0.15178 -0.0012,0.05235 0.0081,0.10665 0.03667,0.151471 0.02364,0.03707 0.06098,0.06395 0.102021,0.07886 0.05357,0.01945 0.111837,0.02207 0.168054,0.01628 0.08147,-0.0084 0.160997,-0.0325 0.234747,-0.06773 0.06223,-0.02972 0.121543,-0.06706 0.171084,-0.115378 0.0298,-0.02907 0.05418,-0.06369 0.07026,-0.10231 0.01846,-0.04431 0.02875,-0.09448 0.01578,-0.141814 -0.01244,-0.0454 -0.04735,-0.08096 -0.08671,-0.104884 -0.05056,-0.03074 -0.107998,-0.04812 -0.165592,-0.05989 -0.08598,-0.01757 -0.173899,-0.02397 -0.261521,-0.02482 -0.09299,-8.99e-4 -0.186403,0.0014 -0.278406,0.015 -0.03033,0.0045 -0.06227,0.005 -0.09049,0.01741 -0.04498,0.01983 -0.06716,0.06714 -0.08825,0.108452 -0.01307,0.02561 -0.0258,0.05168 -0.0434,0.07457"
       style="fill:none;stroke:#000000;stroke-width:0.264583px;stroke-linecap:butt;stroke-linejoin:miter;stroke-opacity:1" />
    <path
       inkscape:original-d="m 55.509916,23.200677 c -0.114128,-0.06723 -0.210095,-0.208358 -0.342381,-0.201678 -0.196504,0.0099 -0.2178,0.700395 0.02814,0.741047 0.654521,0.108185 1.016852,-1.478676 0.0047,-0.858302"
       inkscape:path-effect="#path-effect921"
       id="path919"
       d="m 55.509916,23.200677 c -0.05814,-0.03467 -0.106415,-0.08274 -0.159251,-0.124512 -0.03723,-0.02943 -0.07722,-0.05783 -0.123573,-0.07032 -0.03624,-0.0098 -0.07872,-0.01211 -0.110128,0.01279 -0.03024,0.02398 -0.04906,0.05919 -0.06252,0.09461 -0.02261,0.05953 -0.03327,0.12304 -0.03707,0.186383 -0.0048,0.0795 -2.83e-4,0.160154 0.01926,0.237503 0.01267,0.05014 0.03121,0.09997 0.06297,0.141337 0.02241,0.0292 0.05362,0.0536 0.09035,0.0605 0.07193,0.01352 0.147329,0.005 0.215328,-0.02175 0.08147,-0.03209 0.151899,-0.08775 0.209581,-0.152892 0.07167,-0.08093 0.126628,-0.176154 0.164032,-0.277379 0.02981,-0.08067 0.04994,-0.165781 0.05143,-0.252007 0.001,-0.05924 -0.0066,-0.119919 -0.03178,-0.174096 -0.01806,-0.03879 -0.04719,-0.07279 -0.08451,-0.09426 -0.04301,-0.02473 -0.09403,-0.03175 -0.142946,-0.0285 -0.06822,0.0045 -0.134252,0.02555 -0.196776,0.05224 -0.06031,0.02575 -0.118044,0.0572 -0.173936,0.09141"
       style="fill:none;stroke:#000000;stroke-width:0.264583px;stroke-linecap:butt;stroke-linejoin:miter;stroke-opacity:1" />
    <path
       inkscape:original-d="m 61.658658,10.80456 c 0.700524,-0.16323 0.586724,-0.156663 1.533668,-0.229818 0.377603,-0.02917 0.75634,-0.04489 1.135007,-0.05159 0.328292,-0.0058 0.656651,0.0075 0.984927,0.01407 0.22048,0.0044 0.440918,0.01097 0.661305,0.01876 0.62851,0.02222 -0.0622,-0.280785 -0.27672,-0.431494 -0.256548,-0.1802363 -0.537548,-0.4265639 -0.839531,-0.5346811 -0.05891,-0.021093 -0.182911,0.020365 -0.182911,-0.04221 0,-0.00626 0.313737,0.057348 0.628472,0.1313246 0.252505,0.059349 1.436786,0.2210324 1.355445,0.7410475 -0.118851,0.759788 -1.631281,1.44683 -2.190284,1.937039"
       inkscape:path-effect="#path-effect925"
       id="path923"
       d="m 61.658658,10.80456 c 0.175648,-0.04033 0.350403,-0.08462 0.52677,-0.121775 0.218967,-0.04613 0.442494,-0.06345 0.665121,-0.08122 0.26729,-0.02133 0.534612,-0.04284 0.802461,-0.05602 0.260497,-0.01281 0.521233,-0.02226 0.782046,-0.02365 0.320057,-0.0017 0.639949,0.01013 0.959882,0.01707 0.202419,0.0044 0.404674,0.01616 0.607129,0.01782 0.06087,4.99e-4 0.12188,-0.0031 0.182245,-0.01402 0.02688,-0.0048 0.05921,-0.02925 0.04268,-0.05976 -0.0211,-0.03895 -0.05794,-0.066 -0.09333,-0.09097 -0.132653,-0.0936 -0.281646,-0.161266 -0.415367,-0.252987 -0.122284,-0.08388 -0.238561,-0.1760864 -0.358941,-0.2626211 -0.152528,-0.1096442 -0.315473,-0.204434 -0.487902,-0.2814526 -0.04251,-0.01899 -0.08988,-0.011392 -0.134788,-0.010801 -0.02438,3.206e-4 -0.09421,-0.038946 -0.06226,-0.036577 0.04522,0.00335 0.08989,0.014046 0.134368,0.022974 0.174148,0.034958 0.3464,0.078797 0.520439,0.114222 0.151253,0.030787 0.30312,0.058974 0.452919,0.096462 0.181178,0.04534 0.36231,0.097661 0.529818,0.1813769 0.09785,0.048904 0.193518,0.1080302 0.265567,0.1917412 0.05051,0.05869 0.08488,0.133731 0.08479,0.212068 -7.3e-5,0.06077 -0.01537,0.120655 -0.0356,0.177508 -0.05559,0.156182 -0.155221,0.292561 -0.266614,0.41349 -0.169134,0.183614 -0.365576,0.339577 -0.567158,0.485795 -0.319234,0.231558 -0.657989,0.434302 -0.983134,0.657153 -0.117507,0.08054 -0.234222,0.162954 -0.341759,0.256621"
       style="fill:none;stroke:#008aff;stroke-width:0.264583px;stroke-linecap:butt;stroke-linejoin:miter;stroke-opacity:1" />
    <path
       inkscape:original-d="m 74.29852,11.658169 c -0.07035,-0.09693 -0.104384,-0.236336 -0.211058,-0.290793 -0.633942,-0.323625 -3.130791,0.822342 -3.58325,1.191304 -0.177445,0.1447 -0.31851,0.329298 -0.469011,0.50185 -0.793803,0.910105 -0.986657,2.013224 -1.059963,3.189313 -0.01236,0.198191 -0.03375,0.401819 0.0094,0.595652 0.357465,1.606299 1.085546,2.325414 2.748407,2.218448 0.206973,-0.01331 0.928431,-0.198005 1.106866,-0.32362 0.284919,-0.200575 0.545737,-0.441692 0.764487,-0.712906 0.714348,-0.885679 0.554064,-3.759541 0.558125,-4.835562 0.0058,-1.551025 0.03191,-3.065833 0.107871,-4.6104374 0.06385,-1.2984191 0.05809,-2.5937683 0,-3.8928412 -0.01207,-0.2700711 -0.02167,-0.7410466 -0.103185,-0.7410466 -0.009,0 0.0072,0.1293223 0.0094,0.1594665 0.0081,0.1142677 -0.114602,0.4802635 -0.117256,0.6003414 -0.02109,0.954649 0.229624,1.8823961 0.309547,2.8281725 0.02945,0.3484518 0.05824,1.5031556 0.08911,1.8291659 0.09427,0.9956249 0.238768,1.7764959 0.295476,2.7296769 0.04484,0.753753 -0.122589,1.620144 0.02344,2.359155 0.188347,0.9531 0.649404,1.698859 1.045893,2.556143 0.118562,0.256357 0.188277,0.404533 0.295476,0.661314 0.04039,0.09676 0.121431,0.399452 0.107871,0.295481 -0.02759,-0.211536 -0.0469,-0.4198 -0.0469,-0.633175"
       inkscape:path-effect="#path-effect929"
       id="path927"
       d="m 74.29852,11.658169 c -0.0637,-0.08712 -0.0882,-0.205451 -0.17852,-0.270042 -0.07408,-0.05297 -0.167887,-0.0697 -0.256734,-0.07487 -0.230155,-0.01341 -0.459569,0.029 -0.681964,0.08367 -0.472129,0.11607 -0.929838,0.285089 -1.375416,0.477999 -0.366884,0.15884 -0.730193,0.328552 -1.074884,0.531716 -0.113746,0.06704 -0.223382,0.142074 -0.319186,0.233603 -0.153267,0.146427 -0.285906,0.312238 -0.422443,0.47383 -0.324798,0.384401 -0.562165,0.837979 -0.715958,1.316228 -0.19481,0.6058 -0.258045,1.243261 -0.301831,1.875411 -0.01331,0.192118 -0.02234,0.387438 0.0215,0.577265 0.0992,0.429551 0.234514,0.857653 0.467672,1.235001 0.173825,0.281322 0.414763,0.52343 0.706001,0.683063 0.352849,0.193403 0.759485,0.26581 1.157934,0.272135 0.151001,0.0024 0.303386,0.0079 0.452932,-0.01368 0.192255,-0.0278 0.3816,-0.07379 0.567666,-0.128849 0.150621,-0.04457 0.304479,-0.08561 0.443363,-0.15991 0.07051,-0.03772 0.133058,-0.08845 0.195943,-0.137374 0.239076,-0.186007 0.465765,-0.393151 0.644558,-0.637895 0.156201,-0.213818 0.245898,-0.467985 0.310997,-0.722126 0.121985,-0.476222 0.172181,-0.967463 0.202076,-1.457015 0.04946,-0.809919 0.02342,-1.621609 0.02094,-2.432425 -0.0015,-0.497876 0.0036,-0.995763 0.0097,-1.493598 0.0143,-1.154174 0.05243,-2.307917 0.104665,-3.4610302 0.05799,-1.2801961 0.04982,-2.5629884 -0.01143,-3.842839 -0.0083,-0.1740798 0.007,-0.3535707 -0.0413,-0.521427 -0.01161,-0.040355 -0.04955,-0.1647799 -0.05762,-0.117477 -0.0068,0.039893 -4.64e-4,0.081877 0.0057,0.1218328 0.01291,0.083145 -0.01103,0.1656721 -0.02918,0.2461396 -0.02805,0.1243625 -0.07944,0.2456988 -0.08328,0.3733798 -0.01222,0.4067971 0.02891,0.8131276 0.08406,1.2156931 0.07906,0.5770288 0.198043,1.1498489 0.231581,1.7320605 0.0308,0.5346118 0.03508,1.0705857 0.07253,1.6047782 0.0163,0.2325821 0.04332,0.4642905 0.07057,0.6957946 0.08836,0.7505816 0.21337,1.4987846 0.238892,2.2549126 0.02146,0.635894 -0.0748,1.270759 -0.0287,1.906562 0.02231,0.307676 0.09619,0.609253 0.189868,0.902285 0.19745,0.617611 0.511883,1.187418 0.790586,1.77025 0.111502,0.233176 0.223459,0.466316 0.324938,0.704038 0.04614,0.108089 0.0917,0.216333 0.129123,0.328058 0.02038,0.06085 0.05614,0.246814 0.06077,0.182764 0.0034,-0.047 -0.01049,-0.113891 -0.01644,-0.167937 -0.01771,-0.160997 -0.02905,-0.322844 -0.02901,-0.48487"
       style="fill:none;stroke:#0093ff;stroke-width:0.264583px;stroke-linecap:butt;stroke-linejoin:miter;stroke-opacity:1" />
  </g>
</svg>
